<svg xmlns="http://www.w3.org/2000/svg" width="100" height="87.5" viewBox="0 0 100 87.5">
  <path id="camera-solid" d="M100,53.875v56.25a9.377,9.377,0,0,1-9.375,9.375H9.375A9.377,9.377,0,0,1,0,110.125V53.875A9.377,9.377,0,0,1,9.375,44.5H26.562l2.4-6.426A9.362,9.362,0,0,1,37.734,32H62.246a9.362,9.362,0,0,1,8.77,6.074L73.438,44.5H90.625A9.377,9.377,0,0,1,100,53.875ZM73.438,82A23.438,23.438,0,1,0,50,105.438,23.456,23.456,0,0,0,73.438,82Zm-6.25,0A17.188,17.188,0,1,1,50,64.813,17.213,17.213,0,0,1,67.188,82Z" transform="translate(0 -32)" fill="#ff7a7a"/>
</svg>
