<svg xmlns="http://www.w3.org/2000/svg" xmlns:xlink="http://www.w3.org/1999/xlink" width="128.864" height="128.864" viewBox="0 0 128.864 128.864">
  <defs>
    <clipPath id="clip-path">
      <path id="Path_2062" data-name="Path 2062" d="M458.367,132.871H384.43a36.956,36.956,0,0,0,19.645,32.654v5.357h34.662v-5.357A36.957,36.957,0,0,0,458.367,132.871Z" transform="translate(-384.43 -132.871)" fill="none"/>
    </clipPath>
  </defs>
  <g id="Group_588" data-name="Group 588" transform="translate(-335.375 -20.221)">
    <circle id="Ellipse_129" data-name="Ellipse 129" cx="63.097" cy="63.097" r="63.097" transform="translate(336.282 21.214)" fill="#fff"/>
    <g id="icon-2" transform="translate(335.375 20.221)">
      <path id="Path_1979-2" data-name="Path 1979-2" d="M403.84,29.366a59.252,59.252,0,1,1-41.891,17.353A59.252,59.252,0,0,1,403.84,29.366Zm40.1,19.191a56.73,56.73,0,1,0,16.6,40.095A56.731,56.731,0,0,0,443.936,48.557Z" transform="translate(-339.446 -24.26)" fill="#7ed5ea"/>
      <path id="Path_1980-2" data-name="Path 1980-2" d="M399.769,20.221a64.432,64.432,0,1,1-45.522,18.872A64.432,64.432,0,0,1,399.769,20.221ZM443.5,40.887a61.838,61.838,0,1,0,18.112,43.726A61.838,61.838,0,0,0,443.5,40.887Z" transform="translate(-335.375 -20.221)" fill="#ac5454"/>
    </g>
    <g id="Group_584" data-name="Group 584" transform="translate(361.648 54.862)">
      <path id="Path_2025" data-name="Path 2025" d="M459.369,106.284a6.822,6.822,0,0,0-2.178-5.079,8.255,8.255,0,0,0,.18-1.682c0-4.075-2.968-7.381-6.629-7.381a6.074,6.074,0,0,0-3.232.94,7.58,7.58,0,0,0-6.81-4.688,7.037,7.037,0,0,0-.926.067,5.964,5.964,0,0,0-4.246-1.832,6.183,6.183,0,0,0-5.281,3.166,6.84,6.84,0,0,0-4.614,0,7.447,7.447,0,0,0-6.462-4.039,6.977,6.977,0,0,0-3.964,1.255,8.441,8.441,0,0,0-6.157-2.753,9.1,9.1,0,0,0-8.517,6.952,7.3,7.3,0,0,0-1.6-.178,7.6,7.6,0,0,0-5.726,2.694,6.283,6.283,0,0,0-.78-.052c-3.763,0-6.813,3.394-6.813,7.585a8.356,8.356,0,0,0,.342,2.365,9.552,9.552,0,0,0-1.529,5.221,8.876,8.876,0,0,0,5.439,8.434v3.24H457.23v-9.194A6.832,6.832,0,0,0,459.369,106.284Z" transform="translate(-383.309 -83.141)" fill="#f7e1ba"/>
      <path id="Path_2060" data-name="Path 2060" d="M457.465,120.752h-69.6v-3.646a10.061,10.061,0,0,1-5.438-9.176,10.58,10.58,0,0,1,1.442-5.365,9.484,9.484,0,0,1-.256-2.191c0-4.8,3.557-8.7,7.93-8.7.109,0,.217,0,.325.009a8.706,8.706,0,0,1,6.17-2.65h0q.412,0,.818.039a10.256,10.256,0,0,1,9.269-6.812,9.626,9.626,0,0,1,6.361,2.46,8.053,8.053,0,0,1,3.8-.962,8.571,8.571,0,0,1,6.989,3.841,7.992,7.992,0,0,1,3.606.009,7.33,7.33,0,0,1,5.744-2.977,7.157,7.157,0,0,1,4.667,1.785c.173-.012.347-.019.52-.02a8.723,8.723,0,0,1,7.311,4.3,7.187,7.187,0,0,1,2.736-.547c4.273,0,7.748,3.812,7.748,8.5a9.448,9.448,0,0,1-.1,1.307,8.145,8.145,0,0,1-.044,10.953ZM390.1,118.518h65.13V109.96l.349-.331a5.733,5.733,0,0,0,1.789-4.216v-.026a5.715,5.715,0,0,0-1.822-4.248l-.463-.431.131-.619a7.109,7.109,0,0,0,.156-1.454c0-3.449-2.473-6.259-5.512-6.259a4.955,4.955,0,0,0-2.636.767l-1.123.71-.506-1.228a6.468,6.468,0,0,0-5.807-4,5.9,5.9,0,0,0-.743.056l-.564.078-.395-.411a4.877,4.877,0,0,0-3.452-1.489,5.072,5.072,0,0,0-4.3,2.594l-.462.826-.89-.319a5.735,5.735,0,0,0-3.861,0l-.922.33-.448-.871a6.322,6.322,0,0,0-5.492-3.433,5.817,5.817,0,0,0-3.3,1.054l-.8.561-.661-.724a7.345,7.345,0,0,0-5.342-2.389,8,8,0,0,0-7.421,6.1l-.259,1.069-1.072-.242a6.129,6.129,0,0,0-1.353-.151,6.467,6.467,0,0,0-4.872,2.3l-.393.465-.6-.078a5.231,5.231,0,0,0-.642-.043c-3.135,0-5.69,2.9-5.69,6.468a7.238,7.238,0,0,0,.3,2.05l.145.491-.279.431a8.407,8.407,0,0,0-1.349,4.61,7.819,7.819,0,0,0,4.754,7.409l.685.288Z" transform="translate(-382.426 -82.259)" fill="#552614"/>
    </g>
    <g id="Group_573" data-name="Group 573" transform="translate(373.235 62.665)">
      <path id="Path_2026" data-name="Path 2026" d="M446.477,101.328c1.786-1.457,3.552-2.246,3.946-1.766s-.735,2.057-2.522,3.511-3.551,2.246-3.944,1.766S444.692,102.785,446.477,101.328Z" transform="translate(-421.152 -97.641)" fill="#552614"/>
      <path id="Path_2030" data-name="Path 2030" d="M427.618,100.476c-.551-2.186-.514-4.08.093-4.233s1.543,1.5,2.09,3.681.514,4.081-.093,4.234S428.174,102.662,427.618,100.476Z" transform="translate(-413.799 -96.233)" fill="#552614"/>
      <path id="Path_2031" data-name="Path 2031" d="M406.894,113.276c2.366-1.506,4.55-2.3,4.884-1.776s-1.311,2.17-3.674,3.676-4.55,2.3-4.884,1.777S404.532,114.782,406.894,113.276Z" transform="translate(-403.178 -102.904)" fill="#552614"/>
      <path id="Path_2032" data-name="Path 2032" d="M426.327,121.726c2.777-.412,5.1-.242,5.186.374s-2.084,1.44-4.858,1.851-5.1.242-5.187-.373S423.553,122.135,426.327,121.726Z" transform="translate(-411.254 -107.392)" fill="#552614"/>
      <path id="Path_2033" data-name="Path 2033" d="M458.111,120.346c-1.926-1.1-3.237-2.433-2.929-2.973s2.122-.084,4.049,1.019,3.238,2.433,2.929,2.975S460.038,121.449,458.111,120.346Z" transform="translate(-426.124 -105.468)" fill="#552614"/>
      <path id="Path_2034" data-name="Path 2034" d="M475.722,106.537c2.1-.468,3.919-.355,4.053.252s-1.461,1.48-3.565,1.947-3.919.354-4.053-.253S473.619,107,475.722,106.537Z" transform="translate(-433.637 -100.656)" fill="#552614"/>
      <path id="Path_2035" data-name="Path 2035" d="M493.934,116.635c-1.3,1.96-2.777,3.271-3.292,2.927s.117-2.213,1.421-4.175,2.777-3.27,3.292-2.925S495.238,114.67,493.934,116.635Z" transform="translate(-441.724 -103.375)" fill="#552614"/>
    </g>
    <g id="Group_585" data-name="Group 585" transform="translate(361.65 82.006)">
      <path id="Path_2036" data-name="Path 2036" d="M458.367,132.871H384.43a36.956,36.956,0,0,0,19.645,32.654v5.357h34.662v-5.357A36.957,36.957,0,0,0,458.367,132.871Z" transform="translate(-383.313 -131.754)" fill="#986049"/>
      <path id="Path_2061" data-name="Path 2061" d="M438.97,171.115h-36.9v-5.808a37.986,37.986,0,0,1-19.645-33.319v-1.117H458.6v1.117a37.989,37.989,0,0,1-19.631,33.319Zm-34.662-2.234h32.428V163.97l.594-.315a35.762,35.762,0,0,0,19.02-30.551H384.68a35.76,35.76,0,0,0,19.035,30.551l.594.315Z" transform="translate(-382.43 -130.871)" fill="#552614"/>
    </g>
    <path id="Path_2039" data-name="Path 2039" d="M419.606,193.454h34.657v4.183Z" transform="translate(-37.198 -76.502)" fill="#b18b7b" opacity="0.348" style="isolation: isolate"/>
    <g id="Group_587" data-name="Group 587" transform="translate(362.767 83.123)">
      <g id="Group_586" data-name="Group 586" clip-path="url(#clip-path)">
        <g id="Mask_Group_1" data-name="Mask Group 1" transform="translate(-6.323 2.382)">
          <g id="Group_572" data-name="Group 572" transform="translate(0.182 10.423)">
            <path id="Path_2037" data-name="Path 2037" d="M373.584,157.2a64.5,64.5,0,0,0,11.2,1.775,90.959,90.959,0,0,0,11.3.207,99.526,99.526,0,0,0,11.232-1.079c1.866-.246,3.714-.615,5.56-.959s3.786-.67,5.687-.943a76.336,76.336,0,0,1,22.908,1.11,93.726,93.726,0,0,1,21.732,6.931,113.007,113.007,0,0,0-10.891-3.24c-3.67-.916-7.365-1.7-11.093-2.255-.929-.157-1.861-.291-2.8-.387l-2.8-.342-2.811-.219-1.4-.1-1.408-.036-2.814-.086-2.809.071-1.4.039c-.467.025-.927.081-1.4.12l-2.794.254c-1.856.255-3.669.555-5.552.878s-3.762.712-5.667.916a87.1,87.1,0,0,1-11.446.781A66.556,66.556,0,0,1,373.584,157.2Z" transform="translate(-373.5 -155.804)" fill="#cdbab2" opacity="0.48" style="isolation: isolate"/>
            <path id="Path_2038" data-name="Path 2038" d="M373.433,166.081a64.4,64.4,0,0,0,11.2,1.775,90.962,90.962,0,0,0,11.3.208,99.777,99.777,0,0,0,11.232-1.079c1.866-.246,3.714-.616,5.56-.959s3.786-.67,5.687-.943a76.282,76.282,0,0,1,22.908,1.109,93.756,93.756,0,0,1,21.732,6.932,112.8,112.8,0,0,0-10.891-3.241c-3.67-.917-7.365-1.7-11.094-2.253-.929-.158-1.861-.292-2.8-.388l-2.8-.342-2.81-.218-1.4-.1-1.408-.036-2.815-.087-2.809.072-1.4.039c-.467.025-.928.081-1.4.121l-2.794.254c-1.856.254-3.669.554-5.552.878s-3.762.711-5.667.916a87.2,87.2,0,0,1-11.446.781A66.584,66.584,0,0,1,373.433,166.081Z" transform="translate(-373.433 -159.725)" fill="#cdbab2" opacity="0.48" style="isolation: isolate"/>
          </g>
          <g id="Group_576" data-name="Group 576" transform="translate(0.364)">
            <path id="Path_2037-2" data-name="Path 2037-2" d="M373.91,138.536a64.454,64.454,0,0,0,11.2,1.775,90.966,90.966,0,0,0,11.3.207,99.512,99.512,0,0,0,11.232-1.079c1.866-.246,3.714-.615,5.56-.959s3.786-.67,5.687-.942a76.317,76.317,0,0,1,22.908,1.109,93.751,93.751,0,0,1,21.732,6.931,113,113,0,0,0-10.891-3.24c-3.67-.916-7.365-1.7-11.093-2.254-.929-.158-1.861-.291-2.8-.388l-2.8-.342-2.811-.218-1.4-.1L430.32,139l-2.814-.086-2.809.072-1.4.039c-.467.025-.927.081-1.4.121l-2.794.253c-1.856.255-3.669.555-5.552.878s-3.762.711-5.667.916a87.1,87.1,0,0,1-11.446.781A66.557,66.557,0,0,1,373.91,138.536Z" transform="translate(-373.826 -137.138)" fill="#cdbab2" opacity="0.48" style="isolation: isolate"/>
            <path id="Path_2038-2" data-name="Path 2038-2" d="M373.759,147.415a64.4,64.4,0,0,0,11.2,1.775,90.865,90.865,0,0,0,11.3.208,99.777,99.777,0,0,0,11.232-1.079c1.866-.246,3.714-.616,5.56-.959s3.786-.671,5.687-.944a76.321,76.321,0,0,1,22.908,1.11,93.76,93.76,0,0,1,21.731,6.932,112.8,112.8,0,0,0-10.891-3.241c-3.67-.917-7.365-1.7-11.093-2.253-.929-.158-1.861-.292-2.8-.387l-2.8-.342-2.81-.218-1.4-.1-1.408-.036-2.815-.087-2.809.071-1.4.039c-.467.025-.927.081-1.4.12l-2.794.254c-1.856.255-3.669.555-5.552.878s-3.762.712-5.667.916a87.2,87.2,0,0,1-11.446.781A66.557,66.557,0,0,1,373.759,147.415Z" transform="translate(-373.759 -141.058)" fill="#cdbab2" opacity="0.48" style="isolation: isolate"/>
          </g>
          <g id="Group_575" data-name="Group 575" transform="translate(0 20.845)">
            <path id="Path_2037-3" data-name="Path 2037-3" d="M373.258,175.868a64.452,64.452,0,0,0,11.2,1.775,90.865,90.865,0,0,0,11.3.208,99.526,99.526,0,0,0,11.232-1.079c1.866-.246,3.714-.615,5.56-.959s3.786-.67,5.687-.943a76.354,76.354,0,0,1,22.908,1.11,93.752,93.752,0,0,1,21.732,6.932,112.842,112.842,0,0,0-10.891-3.24c-3.67-.916-7.365-1.7-11.093-2.255-.929-.157-1.861-.291-2.8-.387l-2.8-.342-2.811-.219-1.4-.1-1.408-.036-2.814-.086-2.809.071-1.4.039c-.467.025-.927.081-1.4.12l-2.794.254c-1.856.255-3.669.555-5.552.878s-3.762.712-5.667.916a87.1,87.1,0,0,1-11.446.781A66.557,66.557,0,0,1,373.258,175.868Z" transform="translate(-373.174 -174.469)" fill="#cdbab2" opacity="0.48" style="isolation: isolate"/>
            <path id="Path_2038-3" data-name="Path 2038-3" d="M373.107,184.746a64.348,64.348,0,0,0,11.2,1.775,91.081,91.081,0,0,0,11.3.208,99.777,99.777,0,0,0,11.232-1.079c1.866-.246,3.714-.616,5.56-.959s3.786-.67,5.687-.943a76.28,76.28,0,0,1,22.908,1.11,93.755,93.755,0,0,1,21.732,6.932,112.849,112.849,0,0,0-10.891-3.241c-3.67-.917-7.365-1.7-11.093-2.254-.929-.157-1.861-.292-2.8-.387l-2.8-.342-2.81-.218-1.4-.1-1.408-.036-2.815-.087-2.809.072-1.4.039c-.467.025-.927.081-1.4.121l-2.794.254c-1.856.254-3.669.554-5.552.878s-3.762.711-5.667.916a87.1,87.1,0,0,1-11.446.781A66.559,66.559,0,0,1,373.107,184.746Z" transform="translate(-373.107 -178.39)" fill="#cdbab2" opacity="0.48" style="isolation: isolate"/>
          </g>
        </g>
      </g>
    </g>
  </g>
</svg>
