<?xml version="1.0" encoding="iso-8859-1"?>
<!-- Generator: Adobe Illustrator 16.0.0, SVG Export Plug-In . SVG Version: 6.00 Build 0)  -->
<!DOCTYPE svg PUBLIC "-//W3C//DTD SVG 1.1//EN" "http://www.w3.org/Graphics/SVG/1.1/DTD/svg11.dtd">
<svg version="1.1" xmlns="http://www.w3.org/2000/svg" xmlns:xlink="http://www.w3.org/1999/xlink" x="0px" y="0px" width="800px"
	 height="800px" viewBox="0 0 800 800" style="enable-background:new 0 0 800 800;" xml:space="preserve">
<g id="&#x5716;&#x5C64;_1">
	<g>
		<path style="fill:#969665;" d="M599.693,84.543c-3.599-0.473-7.304-0.137-10.832-0.137c-0.513-1.404-0.599-3.178-1.443-3.681
			c-3.246-1.935-2.745-4.912-2.745-7.827c0-1.327,0.045-2.657-0.021-3.981c-0.222-4.418-2.193-6.417-6.543-6.536
			c-3.095-0.085-6.215,0.199-9.287-0.086c-11.859-1.104-36.049-16.486-38.048-19.342c-1.833-2.616-10.184-16.19-15.504-15.875
			c-9.361,0.555-28.666,15.855-30.865,18.422c-1.92,2.24-2.061,4.45,0.152,6.623c1.261,1.238,2.563,2.453,3.684,3.813
			c2.363,2.867,2.331,3.69,0.026,7.301c-5.136-5.24-11.1-4.237-17.188-2.229c-4.151,1.37-8.266,2.875-12.474,4.049
			c-8.736,2.436-17.599,4.444-26.274,7.076c-14.551,4.415-49.211,52.893-51.13,57.118c-2.585,5.692-4.939,11.492-7.668,17.112
			c-2.75,5.661-20.984,21.727-24.093,24.946c-6.008,6.223-14.833,21.393-14.995,21.639c-7.724,11.773-15.54,23.487-23.141,35.34
			c-5.188,8.089-12.135,15.598-12.897,25.606c-0.658,8.657-5.003,14.128-11.19,19.421c-3.111,2.661-5.743,6.944-6.612,10.925
			c-1.469,6.733-4.768,11.667-9.621,16.297c-3.608,3.442-7.443,7.512-9.023,12.052c-4.45,12.787-10.427,24.694-18.898,35.093
			c-10.463,12.843-16.537,28.228-25.554,41.874c-0.784,1.187-1.504,2.669-1.559,4.044c-0.352,8.807-1.911,17.883-0.342,26.363
			c1.602,8.661,4.381,17.048,3.747,26.022c-0.04,0.565,0.265,1.146,0.333,1.729c0.765,6.486,0.68,12.747-2.458,18.856
			c-3.136,6.104-5.79,12.485-8.2,18.918c-0.966,2.574-0.717,5.604-1.021,8.431c0.84,0.573-0.882,7.271,0.474,15.772
			c0.023,0.145,35.304,106.992,37.863,110.204c2.652,3.329,18.21,30.962,26.066,30.426c2.981-0.205,6.334,2.554,9.234,4.405
			c2.321,1.483,4.174,3.684,6.303,5.485c7.964,6.735,17.073,12.493,23.71,20.344c14.465,17.108,22.974,36.613,18.559,59.992
			c-0.866,4.587-1.285,10.389,0.803,14.109c2.521,4.49,5.016,7.969,3.776,13.521c-0.725,3.248,2.608,4.571,5.551,5.005
			c3.324,0.49,3.293-2.008,3.603-4.224c0.17-1.217,3.192-4.332,3.542-4.494c7.16-3.333,13.826,16.665,16.929,13.014
			c-0.171-3.25,0.914-6.548,0.353-8.569c-1.345-4.846-1.182-7.984,2.011-11.695c4.74-5.511,5.588-12.007,5.479-18.974
			c-0.179-11.465-0.44-22.963,0.203-34.399c0.522-9.289,6.501-37.903,7.777-42.995c0.597-2.384,0.79-5.401,2.348-6.909
			c4.349-4.211,5.258-9.567,6.598-14.954c0.51-2.049,1.907-3.896,3.009-5.773c3.238-5.505,6.387-11.071,9.853-16.432
			c2.324-3.598,4.637-7.455,7.82-10.194c6.099-5.246,13.024-9.528,19.214-14.682c6.126-5.102,28.26-55.111,32.007-58.781
			c5.213-5.11,20.206-26.144,22.516-32.663c0.909-2.569,1.222-19.308,3.461-23.675c4.037-7.874,13.152-31.652,13.754-34.038
			c1.495-5.939,2.424-12.038,3.263-18.118c1.242-9.006,17.23-78.298,17.521-84.428c0.45-9.438,1.179-18.339,7.27-26.166
			c2.174-2.792,3.378-6.87,0.231-9.704c-5.41-4.874-3.355-9.3-0.637-14.463c2.959-5.618,5.114-11.657,7.697-17.478
			c0.649-1.461,1.386-2.98,2.439-4.15c6.076-6.749,13.214-12.626,18.448-20.045c6.248-8.857,9.122-59.438,8.307-63.764
			c-2.573-13.65,2.307-50.362,3.775-55.894c1.324-4.985,2.857-9.59,4.245-10.962c3.842-3.796,7.386-7.919,11.444-11.46
			c5.513-4.808,11.469-9.104,17.058-13.83c1.405-1.189,2.131-3.18,3.171-4.802C603.277,86.456,601.578,84.791,599.693,84.543z"/>
		<path style="fill:#A0CD64;" d="M587.997,78.587c-3.602-0.473-7.309-0.137-10.841-0.137c-0.512-1.405-0.6-3.181-1.443-3.685
			c-3.249-1.936-2.748-4.915-2.748-7.833c0-1.328,0.046-2.659-0.021-3.984c-0.223-4.422-2.195-6.421-6.549-6.541
			c-3.097-0.085-6.22,0.2-9.294-0.086c-11.869-1.104-36.077-16.499-38.078-19.357c-1.834-2.619-10.19-16.203-15.516-15.887
			c-9.368,0.555-28.688,15.868-30.89,18.437c-1.92,2.242-2.061,4.453,0.153,6.628c1.262,1.239,2.564,2.454,3.687,3.815
			c2.364,2.869,2.332,3.692,0.026,7.306c-5.141-5.244-11.108-4.24-17.202-2.23c-4.154,1.37-8.271,2.877-12.483,4.051
			c-8.743,2.438-17.612,4.448-26.295,7.083c-14.563,4.417-49.249,52.933-51.169,57.162c-2.587,5.696-4.943,11.501-7.674,17.125
			c-2.751,5.666-21,21.744-24.111,24.966c-6.013,6.227-14.844,21.409-15.006,21.655c-7.73,11.782-15.553,23.505-23.159,35.367
			c-5.191,8.096-12.144,15.61-12.907,25.627c-0.658,8.663-5.007,14.139-11.199,19.437c-3.113,2.662-5.748,6.949-6.617,10.933
			c-1.47,6.738-4.771,11.676-9.628,16.31c-3.611,3.444-7.449,7.517-9.03,12.061c-4.453,12.796-10.436,24.714-18.912,35.121
			c-10.472,12.853-16.55,28.249-25.575,41.905c-0.785,1.187-1.505,2.671-1.56,4.047c-0.353,8.815-1.913,17.896-0.343,26.385
			c1.603,8.667,4.385,17.06,3.75,26.042c-0.04,0.566,0.265,1.147,0.333,1.729c0.766,6.491,0.68,12.759-2.46,18.871
			c-3.138,6.109-5.793,12.495-8.206,18.934c-0.966,2.576-0.717,5.608-1.021,8.437c0.841,0.574-0.882,7.277,0.475,15.784
			c0.023,0.145,35.331,107.076,37.892,110.289c2.655,3.333,18.225,30.986,26.086,30.45c2.984-0.204,6.339,2.557,9.241,4.408
			c2.323,1.484,4.177,3.688,6.308,5.491c7.97,6.74,17.086,12.503,23.729,20.358c14.477,17.123,22.992,36.643,18.574,60.039
			c-0.866,4.591-1.286,10.397,0.804,14.12c2.522,4.495,5.02,7.975,3.779,13.531c-0.726,3.251,2.61,4.577,5.556,5.012
			c3.326,0.49,3.295-2.011,3.605-4.229c0.17-1.217,3.195-4.334,3.544-4.497c7.166-3.336,13.837,16.679,16.943,13.025
			c-0.171-3.253,0.914-6.556,0.353-8.578c-1.346-4.849-1.182-7.99,2.013-11.703c4.743-5.516,5.592-12.017,5.483-18.989
			c-0.179-11.473-0.44-22.979,0.203-34.425c0.522-9.296,6.506-37.935,7.783-43.028c0.597-2.386,0.791-5.406,2.35-6.915
			c4.352-4.215,5.262-9.575,6.604-14.966c0.51-2.05,1.908-3.9,3.011-5.777c3.24-5.51,6.392-11.08,9.86-16.444
			c2.326-3.601,4.642-7.463,7.827-10.203c6.104-5.249,13.035-9.536,19.229-14.694c6.132-5.104,28.283-55.152,32.032-58.826
			c5.218-5.112,20.222-26.163,22.533-32.688c0.91-2.57,1.223-19.323,3.464-23.693c4.04-7.879,13.162-31.676,13.764-34.063
			c1.496-5.944,2.427-12.047,3.266-18.132c1.243-9.012,17.244-78.36,17.535-84.493c0.451-9.446,1.18-18.354,7.276-26.187
			c2.175-2.794,3.38-6.875,0.23-9.711c-5.414-4.878-3.357-9.309-0.637-14.476c2.961-5.622,5.118-11.665,7.703-17.491
			c0.649-1.463,1.388-2.982,2.441-4.154c6.081-6.753,13.225-12.636,18.463-20.06c6.253-8.865,9.129-59.484,8.313-63.813
			c-2.575-13.661,2.308-50.402,3.778-55.938c1.325-4.989,2.86-9.598,4.248-10.97c3.845-3.8,7.393-7.926,11.454-11.469
			c5.516-4.811,11.477-9.11,17.07-13.84c1.406-1.19,2.133-3.182,3.174-4.806C591.585,80.502,589.884,78.835,587.997,78.587z"/>
		<g>
			<path style="fill:#F6F29B;" d="M373.667,534.998c-20.207,14.836-29.719,56.824-42.572,77.583
				c-8.858,14.306-33.867,37.447-44.59,50.414c4.771,3.719,9.413,7.546,13.235,12.066c14.477,17.123,22.992,36.643,18.574,60.039
				c-0.866,4.591-1.286,10.397,0.804,14.12c2.522,4.495,5.02,7.975,3.779,13.531c-0.726,3.251,2.61,4.577,5.556,5.012
				c3.326,0.49,3.295-2.011,3.605-4.229c0.17-1.217,3.195-4.334,3.544-4.497c7.166-3.336,13.837,16.679,16.943,13.025
				c-0.171-3.253,0.914-6.556,0.353-8.578c-1.346-4.849-1.182-7.99,2.013-11.703c4.743-5.516,5.592-12.017,5.483-18.989
				c-0.179-11.473-0.44-22.979,0.203-34.425c0.522-9.296,6.506-37.935,7.783-43.028c0.597-2.386,0.791-5.406,2.35-6.915
				c4.352-4.215,5.262-9.575,6.604-14.966c0.51-2.05,1.908-3.9,3.011-5.777c3.24-5.51,6.392-11.08,9.86-16.444
				c2.326-3.601,4.642-7.463,7.827-10.203c6.104-5.249,13.035-9.536,19.229-14.694c6.132-5.104,28.283-55.152,32.032-58.826
				c5.218-5.112,20.222-26.163,22.533-32.688c0.91-2.57,1.223-19.323,3.464-23.693c4.04-7.879,13.162-31.676,13.764-34.063
				c1.496-5.944-26.72,10.599-40.72,25.932C423.204,490.521,400,515.664,373.667,534.998z"/>
		</g>
	</g>
	<path style="display:none;opacity:0.6;fill:#F6F29B;" d="M372.473,559.048c-4.916,15.864-27.363,47.282-34.139,78.619
		c-5.178,23.945-21.429,51.05-20.444,70.302c0.237,4.626,1.591,8.665,1.61,14.531c0.024,7.24-1.358,16.217-1.855,19.948
		c-0.219,1.647,4.071,21.818,8.542,23.787c1.125,0.496,3.448,1.549,4.909-0.152c1.926-2.241,3.119-7.562,5.654-8.333
		c3.185-0.97,7.825,4.723,8.583,5.586c3.249,3.698,4.511,7.086,5.617,7.949c3.101,2.42,2.05-15.949,2.05-15.949
		s5.78-10.427,6.642-14.265c2.768-12.323,0.233-37.951,1.729-50.492c1.217-10.199,8.295-40.243,8.295-40.243l4.667-7.334
		c0,0,2.385-9.382,3.667-12.332c1.446-3.329,7.344-12.525,7.344-12.525s8.683-14.277,12.688-18.111
		c8-7.658,17.044-12.354,20.969-17.029c10.541-12.554,21.907-42.405,30.292-56.491c2.477-4.161,9.115-11.32,11.954-15.244
		c2.989-4.133,10.579-17.444,10.579-17.444l3.464-23.693c0,0,7.465-16.776,9.522-22.537c1.854-5.189,6.222-21.143,6.222-21.143
		s-9.112,9.873-17.366,16.549c-5.428,4.389-9.391,4.316-14,10c-9.42,11.617-10.478,25.117-15.333,30.667
		C410.667,522.141,385.584,516.74,372.473,559.048z"/>
</g>
<g id="&#x5716;&#x5C64;_3">
	<linearGradient id="SVGID_1_" gradientUnits="userSpaceOnUse" x1="460.957" y1="127.9277" x2="461.6962" y2="111.6662">
		<stop  offset="0.0234" style="stop-color:#00913A"/>
		<stop  offset="1" style="stop-color:#D0DD3A"/>
	</linearGradient>
	<path style="fill:url(#SVGID_1_);" d="M475.83,117.115c0,7.289-6.439,14.602-14.384,14.602c-7.943,0-14.384-7.313-14.384-14.602
		c0-2.959,1.405-3.519,3.197-5.72c2.623-3.22,6.467-7.478,11.187-7.478c5.279,0,7.597,4.556,10.099,8.445
		C472.809,114.327,475.83,114.67,475.83,117.115z"/>
	<path style="fill:#633319;" d="M461.688,118.578c0,0-1.906,14.316-2.675,19.048c-0.357,2.2-1.971,8.726-1.971,8.726
		s2.894,0.444,3.94,0.444c1.049,0,3.942-0.444,3.942-0.444s-1.452-6.626-1.69-8.757
		C462.699,132.787,461.688,118.578,461.688,118.578z"/>
	<linearGradient id="SVGID_2_" gradientUnits="userSpaceOnUse" x1="488.541" y1="310.5332" x2="489.4001" y2="291.633">
		<stop  offset="0.0234" style="stop-color:#00913A"/>
		<stop  offset="1" style="stop-color:#D0DD3A"/>
	</linearGradient>
	<path style="fill:url(#SVGID_2_);" d="M505.827,297.966c0,8.471-7.484,16.971-16.718,16.971c-9.231,0-16.717-8.5-16.717-16.971
		c0-3.439,1.634-4.09,3.716-6.648c3.049-3.743,7.517-8.691,13.001-8.691c6.136,0,8.829,5.295,11.737,9.816
		C502.315,294.726,505.827,295.125,505.827,297.966z"/>
	<path style="fill:#633319;" d="M489.39,299.667c0,0-2.215,16.638-3.108,22.138c-0.415,2.557-2.29,10.141-2.29,10.141
		s3.362,0.517,4.58,0.517c1.219,0,4.581-0.517,4.581-0.517s-1.688-7.701-1.964-10.178
		C490.566,316.181,489.39,299.667,489.39,299.667z"/>
	<linearGradient id="SVGID_3_" gradientUnits="userSpaceOnUse" x1="263.5684" y1="595.1357" x2="264.4275" y2="576.2355">
		<stop  offset="0.0234" style="stop-color:#00913A"/>
		<stop  offset="1" style="stop-color:#D0DD3A"/>
	</linearGradient>
	<path style="fill:url(#SVGID_3_);" d="M280.855,582.569c0,8.471-7.484,16.971-16.718,16.971c-9.231,0-16.717-8.5-16.717-16.971
		c0-3.439,1.634-4.09,3.716-6.648c3.049-3.742,7.517-8.69,13.001-8.69c6.136,0,8.829,5.296,11.737,9.815
		C277.344,579.329,280.855,579.728,280.855,582.569z"/>
	<path style="fill:#633319;" d="M264.418,584.271c0,0-2.215,16.638-3.108,22.138c-0.415,2.557-2.29,10.142-2.29,10.142
		s3.362,0.516,4.58,0.516c1.219,0,4.581-0.516,4.581-0.516s-1.688-7.701-1.964-10.178
		C265.595,600.784,264.418,584.271,264.418,584.271z"/>
	<linearGradient id="SVGID_4_" gradientUnits="userSpaceOnUse" x1="546.0303" y1="84.856" x2="546.7515" y2="68.9895">
		<stop  offset="0.0234" style="stop-color:#00913A"/>
		<stop  offset="1" style="stop-color:#D0DD3A"/>
	</linearGradient>
	<path style="fill:url(#SVGID_4_);" d="M560.541,74.306c0,7.111-6.283,14.247-14.035,14.247c-7.749,0-14.032-7.135-14.032-14.247
		c0-2.887,1.371-3.433,3.118-5.581c2.56-3.142,6.312-7.296,10.914-7.296c5.151,0,7.413,4.445,9.854,8.24
		C557.593,71.586,560.541,71.92,560.541,74.306z"/>
	<path style="fill:#633319;" d="M546.742,75.734c0,0-1.859,13.967-2.61,18.584c-0.348,2.146-1.922,8.513-1.922,8.513
		s2.822,0.434,3.845,0.434c1.023,0,3.846-0.434,3.846-0.434s-1.417-6.465-1.648-8.544C547.729,89.597,546.742,75.734,546.742,75.734
		z"/>
	<linearGradient id="SVGID_5_" gradientUnits="userSpaceOnUse" x1="382.0674" y1="348.2251" x2="382.6929" y2="334.4648">
		<stop  offset="0.0234" style="stop-color:#00913A"/>
		<stop  offset="1" style="stop-color:#D0DD3A"/>
	</linearGradient>
	<path style="fill:url(#SVGID_5_);" d="M394.654,339.076c0,6.167-5.449,12.355-12.171,12.355c-6.721,0-12.171-6.188-12.171-12.355
		c0-2.504,1.189-2.978,2.706-4.84c2.22-2.725,5.472-6.327,9.465-6.327c4.467,0,6.428,3.855,8.545,7.146
		C392.098,336.716,394.654,337.007,394.654,339.076z"/>
	<path style="fill:#633319;" d="M382.687,340.314c0,0-1.612,12.113-2.263,16.118c-0.302,1.861-1.667,7.383-1.667,7.383
		s2.448,0.376,3.334,0.376c0.888,0,3.335-0.376,3.335-0.376s-1.229-5.607-1.43-7.41
		C383.543,352.337,382.687,340.314,382.687,340.314z"/>
</g>
<g id="&#x5716;&#x5C64;_4">
	<linearGradient id="SVGID_6_" gradientUnits="userSpaceOnUse" x1="416.3848" y1="238.6172" x2="417.9986" y2="203.1133">
		<stop  offset="0.0234" style="stop-color:#00913A"/>
		<stop  offset="1" style="stop-color:#D0DD3A"/>
	</linearGradient>
	<path style="fill:url(#SVGID_6_);" d="M392.503,219.199c0.564-2.246,1.293-6.984,2.736-8.208c1.472-1.248,5.472-2.432,7.296-1.52
		c2.596,1.298,6.757-5.653,9.627-6.08c4.012-0.597,10.604-0.212,14.542,0.76c2.136,0.527,8.254,4.132,9.171,6.132
		c0.971,2.119-1.594,7.622,0,9.322c1.523,1.625,7.861,0.504,8.513,2.635c1.431,4.686-9.452,11.742-13.884,13.833
		c-5.042,2.378-22.193,2.179-22.193,2.179s-15.914-3.212-18.442-7.499C388.132,227.807,391.781,222.072,392.503,219.199z"/>
	<path style="fill:#633319;" d="M416.707,239.788l7.21-13.95l-7.539,8.688c-0.508-8.362-0.99-17.351-0.99-17.351
		s-2.19,21.849-3.072,29.071c-0.411,3.358-2.265,13.317-2.265,13.317s3.324,0.678,4.529,0.678c1.204,0,4.527-0.678,4.527-0.678
		s-1.668-10.113-1.941-13.365C417.033,244.61,416.875,242.352,416.707,239.788z"/>
	<linearGradient id="SVGID_7_" gradientUnits="userSpaceOnUse" x1="233.2588" y1="416.7266" x2="234.6843" y2="385.3659">
		<stop  offset="0.0234" style="stop-color:#00913A"/>
		<stop  offset="1" style="stop-color:#D0DD3A"/>
	</linearGradient>
	<path style="fill:url(#SVGID_7_);" d="M212.165,399.575c0.498-1.984,1.142-6.169,2.417-7.25c1.3-1.102,4.833-2.148,6.445-1.343
		c2.293,1.146,5.969-4.993,8.504-5.371c3.543-0.527,9.366-0.188,12.845,0.671c1.886,0.466,7.291,3.65,8.101,5.417
		c0.857,1.872-1.408,6.733,0,8.234c1.346,1.436,6.944,0.445,7.52,2.327c1.264,4.14-8.349,10.372-12.264,12.219
		c-4.454,2.101-19.604,1.924-19.604,1.924s-14.057-2.837-16.291-6.624C208.304,407.179,211.527,402.113,212.165,399.575z"/>
	<path style="fill:#633319;" d="M233.545,417.762l6.369-12.322l-6.66,7.674c-0.448-7.386-0.875-15.327-0.875-15.327
		s-1.935,19.299-2.714,25.678c-0.363,2.967-2,11.765-2,11.765s2.937,0.599,4.001,0.599c1.063,0,3.999-0.599,3.999-0.599
		s-1.473-8.934-1.715-11.806C233.833,422.021,233.693,420.026,233.545,417.762z"/>
	<linearGradient id="SVGID_8_" gradientUnits="userSpaceOnUse" x1="340.3867" y1="494.1123" x2="341.6805" y2="465.6505">
		<stop  offset="0.0234" style="stop-color:#00913A"/>
		<stop  offset="1" style="stop-color:#D0DD3A"/>
	</linearGradient>
	<path style="fill:url(#SVGID_8_);" d="M321.243,478.546c0.452-1.801,1.037-5.599,2.193-6.58c1.18-1,4.387-1.949,5.849-1.219
		c2.081,1.041,5.417-4.531,7.717-4.874c3.216-0.479,8.5-0.17,11.658,0.61c1.712,0.423,6.617,3.312,7.352,4.914
		c0.778,1.699-1.277,6.111,0,7.474c1.221,1.303,6.302,0.404,6.824,2.112c1.147,3.756-7.577,9.413-11.13,11.088
		c-4.042,1.907-17.791,1.748-17.791,1.748s-12.757-2.576-14.784-6.013C317.739,485.447,320.664,480.85,321.243,478.546z"/>
	<path style="fill:#633319;" d="M340.646,495.051l5.78-11.182l-6.043,6.964c-0.407-6.704-0.794-13.91-0.794-13.91
		s-1.756,17.515-2.463,23.305c-0.33,2.691-1.815,10.677-1.815,10.677s2.665,0.543,3.631,0.543c0.965,0,3.629-0.543,3.629-0.543
		s-1.337-8.107-1.557-10.715C340.907,498.917,340.781,497.106,340.646,495.051z"/>
	<linearGradient id="SVGID_9_" gradientUnits="userSpaceOnUse" x1="331.8965" y1="229.5713" x2="333.5103" y2="194.0674">
		<stop  offset="0.0234" style="stop-color:#00913A"/>
		<stop  offset="1" style="stop-color:#D0DD3A"/>
	</linearGradient>
	<path style="fill:url(#SVGID_9_);" d="M308.015,210.153c0.564-2.246,1.293-6.984,2.736-8.208c1.472-1.248,5.472-2.432,7.296-1.52
		c2.596,1.298,6.757-5.653,9.627-6.08c4.012-0.597,10.604-0.212,14.542,0.76c2.136,0.527,8.254,4.132,9.171,6.132
		c0.971,2.119-1.594,7.622,0,9.322c1.523,1.625,7.861,0.504,8.513,2.635c1.431,4.686-9.452,11.742-13.884,13.833
		c-5.042,2.378-22.193,2.179-22.193,2.179s-15.914-3.212-18.442-7.499C303.644,218.761,307.292,213.026,308.015,210.153z"/>
	<path style="fill:#633319;" d="M332.219,230.742l7.21-13.95l-7.539,8.688c-0.508-8.362-0.99-17.351-0.99-17.351
		s-2.19,21.849-3.072,29.071c-0.411,3.358-2.265,13.317-2.265,13.317s3.324,0.678,4.529,0.678c1.204,0,4.527-0.678,4.527-0.678
		s-1.668-10.113-1.941-13.365C332.545,235.564,332.387,233.306,332.219,230.742z"/>
</g>
<g id="&#x5716;&#x5C64;_5">
	<path style="fill:#42BFED;" d="M506.339,253.642c1.407-1.787,2.184-3.723,2.184-5.747c0-8.962-15.104-16.228-33.732-16.228
		c-8.217,0-15.744,1.415-21.596,3.763c-2.224-0.443-4.603-0.687-7.078-0.687c-12.261,0-22.198,5.888-22.198,13.152
		c0,7.263,9.938,13.151,22.198,13.151c2.476,0,4.854-0.244,7.078-0.687c5.851,2.349,13.379,3.763,21.596,3.763
		c2.121,0,4.192-0.099,6.204-0.278c0.11,5.803,8.75,10.489,19.397,10.489c10.716,0,19.403-4.746,19.403-10.601
		C519.795,259.012,514.145,255.014,506.339,253.642z"/>
	<path style="fill:#42BFED;" d="M271.759,479.623c1.61-0.986,2.514-2.081,2.514-3.236c0-4.344-12.695-7.864-28.354-7.864
		c-15.66,0-28.354,3.521-28.354,7.864c0,4.345,12.695,7.865,28.354,7.865c1.181,0,2.343-0.022,3.487-0.062
		c-0.198,0.334-0.307,0.678-0.307,1.028c0,3.163,8.374,5.726,18.703,5.726s18.703-2.563,18.703-5.726
		C286.504,482.474,280.187,480.18,271.759,479.623z"/>
</g>
<g id="&#x5716;&#x5C64;_6">
	<path style="fill:#666666;" d="M454.727,235.348c0,0,11.846-23.298,17.237-26.895c1.944-1.297,6.342-1.126,8.32,0
		c6.852,3.896,19.889,28.678,19.889,28.678s-17.601,0.666-24.293,0.14C470.214,236.824,454.727,235.348,454.727,235.348z"/>
	<path style="fill:#FFFFFF;" d="M464.277,218.312c0,0,3.283-2.427,6.3-1.106c2.158,0.944,4.177,5.391,5.416,5.421
		c1.54,0.039,3.425-3.563,6.108-4.629c3.204-1.273,6.939,0.314,6.939,0.314s-5.749-8.624-8.156-10.122
		c-1.059-0.661-4.456-1.488-5.588-1.425c-1.401,0.076-3.421,1.382-4.684,2.399C468.853,210.581,464.277,218.312,464.277,218.312z"/>
	<path style="fill:#649595;" d="M435.507,241.443c0,0,15.346-17.216,22.33-19.873c2.52-0.959,8.216-0.832,10.779,0
		c8.877,2.878,25.766,21.19,25.766,21.19s-22.801,0.492-31.471,0.104C455.569,242.534,435.507,241.443,435.507,241.443z"/>
	<path style="fill:#FFFFFF;" d="M446.907,229.942c0,0,4.556-2.021,8.738-0.922c2.993,0.787,5.795,4.491,7.512,4.517
		c2.137,0.032,4.752-2.969,8.475-3.856c4.445-1.061,9.625,0.262,9.625,0.262s-7.976-7.184-11.313-8.432
		c-1.469-0.551-6.182-1.239-7.75-1.188c-1.945,0.063-4.746,1.151-6.498,1.999C453.255,223.502,446.907,229.942,446.907,229.942z"/>
	<path style="fill:#649595;" d="M350.563,386.06c0,0,8.938-15.514,13.005-17.909c1.467-0.864,4.785-0.75,6.278,0
		c5.17,2.593,15.006,19.096,15.006,19.096s-13.28,0.443-18.329,0.093C362.248,387.042,350.563,386.06,350.563,386.06z"/>
	<path style="fill:#FFFFFF;" d="M357.202,375.695c0,0,2.654-1.821,5.089-0.831c1.744,0.709,3.375,4.047,4.375,4.071
		c1.244,0.027,2.767-2.677,4.936-3.476c2.589-0.956,5.606,0.236,5.606,0.236s-4.645-6.474-6.589-7.598
		c-0.855-0.497-3.601-1.117-4.514-1.071c-1.133,0.058-2.764,1.038-3.785,1.802C360.899,369.892,357.202,375.695,357.202,375.695z"/>
	<path style="fill:#666666;" d="M372.376,393.416c0,0,8.306-12.278,12.085-14.173c1.363-0.684,4.447-0.593,5.834,0
		c4.805,2.052,13.943,15.112,13.943,15.112s-12.339,0.351-17.03,0.073C383.234,394.192,372.376,393.416,372.376,393.416z"/>
	<path style="fill:#FFFFFF;" d="M378.546,385.212c0,0,2.466-1.441,4.729-0.657c1.62,0.562,3.136,3.205,4.065,3.223
		c1.155,0.021,2.571-2.119,4.586-2.751c2.405-0.755,5.209,0.186,5.209,0.186s-4.316-5.122-6.123-6.012
		c-0.794-0.393-3.345-0.884-4.194-0.847c-1.052,0.046-2.569,0.822-3.518,1.426C381.981,380.62,378.546,385.212,378.546,385.212z"/>
	<path style="fill:#666666;" d="M231.239,473.476c0,0,9.088-12.1,13.223-13.968c1.492-0.674,4.865-0.584,6.384,0
		c5.257,2.022,15.256,14.894,15.256,14.894s-13.5,0.346-18.634,0.072C243.12,474.241,231.239,473.476,231.239,473.476z"/>
	<path style="fill:#FFFFFF;" d="M237.99,465.392c0,0,2.698-1.42,5.175-0.648c1.772,0.555,3.432,3.158,4.449,3.177
		c1.264,0.021,2.813-2.089,5.018-2.712c2.632-0.744,5.699,0.184,5.699,0.184s-4.723-5.049-6.699-5.926
		c-0.869-0.387-3.66-0.871-4.588-0.835c-1.152,0.046-2.811,0.81-3.849,1.405C241.749,460.866,237.99,465.392,237.99,465.392z"/>
</g>
<g id="&#x5716;&#x5C64;_8">
	<g id="&#x5716;&#x5C64;_7">
		<path style="fill:#C79664;" d="M268-7.25"/>
	</g>
	<g id="&#x5716;&#x5C64;_10">
	</g>
</g>
<g id="&#x5716;&#x5C64;_8_&#x62F7;&#x8C9D;_3">
	<g id="&#x5716;&#x5C64;_7_&#x62F7;&#x8C9D;_3">
		<path style="fill:#C79664;" d="M268-7.25"/>
	</g>
	<g id="&#x5716;&#x5C64;_10_&#x62F7;&#x8C9D;_3">
		<g>
			<polygon style="fill:none;" points="38.523,84.349 38.759,86.899 42.538,84.979 42.598,84.979 39.622,60.821 39.601,60.821 
				39.455,59.462 39.454,59.451 38.902,59.451 38.137,51.89 38.522,51.89 70.25,51.89 70.25,51.89 41.04,51.849 35.525,51.841 
				38.269,81.594 			"/>
			<polygon style="fill:none;" points="70.276,28.639 87.268,28.655 92.544,28.655 70.276,28.639 			"/>
			<polygon style="fill:none;" points="38.759,86.9 38.764,86.956 38.872,86.899 			"/>
			<polygon style="fill:none;" points="101.652,86.97 101.658,86.914 101.545,86.914 			"/>
			<polygon style="fill:none;" points="101.514,59.465 100.963,59.465 100.962,59.477 100.816,60.835 100.794,60.835 97.818,84.994 
				97.879,84.994 101.658,86.914 101.894,84.363 102.147,81.608 104.891,51.855 99.377,51.863 70.276,51.888 70.276,51.888 
				102.28,51.904 			"/>
			<polygon style="fill:#C4641A;" points="56.161,28.19 70.25,28.19 70.25,28.189 84.256,28.205 84.862,28.205 92.544,28.205 
				92.544,26.106 70.25,26.091 70.25,26.092 47.873,26.092 47.873,28.19 55.555,28.19 			"/>
			<polygon style="fill:#69C2EE;" points="48.101,25.642 55.555,25.642 55.421,24.673 50.735,22.982 50.524,20.639 48.078,19.98 
				48.883,20.197 			"/>
			<polygon style="fill:#913523;" points="70.25,26.091 92.544,26.106 92.544,25.656 92.315,25.656 84.862,25.656 84.256,25.656 
				70.25,25.641 70.25,25.642 56.161,25.642 55.555,25.642 48.101,25.642 47.873,25.642 47.873,26.092 70.25,26.092 			"/>
			<polygon style="fill:#086291;" points="50.735,22.982 55.421,24.673 55.555,25.642 56.161,25.642 55.95,24.325 51.577,22.482 
				51.156,20.165 48.101,19.322 48.078,19.98 50.524,20.639 			"/>
			<path style="fill:#EC651A;" d="M70.25,45.844v-0.001l40.427-0.003l0.122-0.026L92.544,28.655h-5.276l-16.992-0.016H70.25v0.001
				H53.148h-5.276L29.618,45.799l0.122,0.026L70.25,45.844z M100.816,45.839h-4.195l-8.323-15.507L100.816,45.839z M88.298,45.839
				h-3.752l-3.751-16.106L88.298,45.839z M78.277,45.839h-3.056l-2.35-15.523L78.277,45.839z M67.655,30.318l-2.459,15.507H62.14
				L67.655,30.318z M59.622,29.719l-3.751,16.106h-3.752L59.622,29.719z M52.119,30.318l-8.323,15.507h-4.195L52.119,30.318z"/>
			<polygon style="fill:#EC651A;" points="52.119,30.318 39.601,45.825 43.796,45.825 			"/>
			<linearGradient id="SVGID_10_" gradientUnits="userSpaceOnUse" x1="42.5171" y1="44.6616" x2="50.5745" y2="33.2047">
				<stop  offset="0" style="stop-color:#EA5514"/>
				<stop  offset="1" style="stop-color:#F8B62D"/>
			</linearGradient>
			<polygon style="fill:url(#SVGID_10_);" points="52.119,30.318 39.601,45.825 43.796,45.825 			"/>
			<polygon style="fill:#EC651A;" points="55.871,45.825 59.622,29.719 52.119,45.825 			"/>
			<linearGradient id="SVGID_11_" gradientUnits="userSpaceOnUse" x1="54.3447" y1="44.9766" x2="59.0697" y2="33.5293">
				<stop  offset="0" style="stop-color:#EA5514"/>
				<stop  offset="1" style="stop-color:#F8B62D"/>
			</linearGradient>
			<polygon style="fill:url(#SVGID_11_);" points="55.871,45.825 59.622,29.719 52.119,45.825 			"/>
			<polygon style="fill:#EC651A;" points="67.655,30.318 62.14,45.825 65.196,45.825 			"/>
			<linearGradient id="SVGID_12_" gradientUnits="userSpaceOnUse" x1="63.8711" y1="44.6992" x2="66.0033" y2="32.9322">
				<stop  offset="0.1304" style="stop-color:#EA5514"/>
				<stop  offset="1" style="stop-color:#F8B62D"/>
			</linearGradient>
			<polygon style="fill:url(#SVGID_12_);" points="67.655,30.318 62.14,45.825 65.196,45.825 			"/>
			<polygon style="fill:#C13432;" points="39.454,59.451 39.455,59.462 39.454,59.451 			"/>
			<polygon style="fill:#C13432;" points="52.878,62.328 70.25,62.328 70.25,62.327 87.538,62.342 87.538,84.988 97.818,84.994 
				100.794,60.835 70.25,60.804 70.25,60.805 39.622,60.821 42.598,84.979 52.878,84.979 			"/>
			<path style="fill:#3590BF;" d="M38.522,51.89h-0.385l0.766,7.562h0.551l0,0H70.25V59.45l30.713,0.015l0.551,0l0.766-7.562
				l-32.004-0.016H70.25v0.001l0,0H38.522z M48.463,57.833h-7.814v-4.766h7.814V57.833z M58.785,57.833H50.97v-4.766h7.815V57.833z
				 M69.194,57.833H61.38v-4.766h7.814V57.833z M79.037,57.847l-7.705-0.016v-4.766l7.705,0.016V57.847z M89.446,57.847h-7.815
				v-4.766h7.815V57.847z M99.767,57.847h-7.814v-4.766h7.814V57.847z"/>
			<rect x="40.649" y="53.066" style="fill:#086291;" width="7.814" height="4.766"/>
			<rect x="50.97" y="53.066" style="fill:#086291;" width="7.815" height="4.766"/>
			<rect x="61.38" y="53.066" style="fill:#086291;" width="7.814" height="4.766"/>
			<path style="fill:#310204;" d="M54.399,84.148h14.795V63.107H54.399V84.148z M54.879,63.677h13.824v19.961H54.879V63.677z"/>
			<rect x="54.879" y="63.677" style="fill:#C1371F;" width="13.824" height="19.961"/>
			<polygon style="fill:#901D22;" points="70.25,60.804 100.794,60.835 100.816,60.835 100.962,59.477 100.963,59.465 70.25,59.45 
				70.25,59.451 39.454,59.451 39.455,59.462 39.601,60.821 39.622,60.821 70.25,60.805 			"/>
			<polygon style="fill:#C79664;" points="25.364,45.158 29.163,46.872 70.141,46.872 70.141,46.886 111.253,46.886 115.052,45.172 
				111.045,46.136 70.25,46.222 70.25,46.208 29.371,46.122 			"/>
			<polygon style="fill:#913523;" points="70.25,28.641 70.25,28.639 70.276,28.639 70.276,28.639 92.544,28.655 92.544,28.205 
				84.862,28.205 84.256,28.205 70.25,28.189 70.25,28.19 56.161,28.19 55.555,28.19 47.873,28.19 47.873,28.641 53.148,28.641 			
				"/>
			<polygon style="fill:#CDE9EE;" points="48.883,20.197 48.078,19.98 47.873,25.642 48.101,25.642 			"/>
			<path style="fill:#C13432;" d="M38.523,84.349l-0.254-2.755l-2.744-29.753l-0.007-0.078l-7.143-0.057l4.21,0.066
				c0,0-0.683,10.152-0.724,13.723c-0.045,4.099-0.335,16.104-0.356,17.001l0.025,0.243l6.795-0.539L38.523,84.349z"/>
			<path style="fill:#F0EB4D;" d="M38.764,86.956L38.759,86.9h0l0,0l-0.236-2.55l-0.198-2.148c0,0-3.394,1.906-4.25,2.963
				c-0.995,1.227-1.771,5.176-1.771,5.176h6.774L38.764,86.956z"/>
			<path style="fill:#F5C51D;" d="M38.325,82.201L31.53,82.74l-0.007,0l0.78,7.6c0,0,0.777-3.949,1.771-5.176
				C34.931,84.107,38.325,82.201,38.325,82.201z"/>
			<path style="fill:#E83A37;" d="M32.585,51.772l-4.21-0.066l0.013,0.125l3.115,30.726c0,0,0-0.024,0.001-0.059
				c0.021-0.898,0.311-12.903,0.356-17.001C31.903,61.925,32.585,51.772,32.585,51.772z"/>
			<polygon style="fill:#69C2EE;" points="89.681,22.996 84.996,24.688 84.862,25.656 92.315,25.656 91.534,20.211 92.339,19.995 
				89.893,20.653 			"/>
			<path style="fill:#913523;" d="M70.25,48.948v0.001H26.725l1.539,2.881h0.125l-0.013-0.125l7.143,0.057l0.007,0.078l5.514,0.008
				l29.21,0.041v-0.001h0.026l0,0l29.101-0.025l5.514-0.008l0.007-0.078l7.143-0.057l-0.013,0.125h0.125l1.539-2.881L70.25,48.948z
				 M111.571,51.335L70.25,51.319v0.001H28.845l-1.042-2H70.25v-0.001l42.363,0.016L111.571,51.335z"/>
			<polygon style="fill:#086291;" points="84.996,24.688 89.681,22.996 89.893,20.653 92.339,19.995 92.315,19.336 89.26,20.179 
				88.84,22.496 84.466,24.339 84.256,25.656 84.862,25.656 			"/>
			<path style="fill:#956432;" d="M115.525,44.809l-4.726,1.005l-0.122,0.026L70.25,45.843v0.001l-40.511-0.019l-0.122-0.026
				l-4.726-1.005l1.761,4.155h0.072H70.25v-0.001l43.442,0.016h0.072L115.525,44.809z M70.25,46.208v0.014l40.795-0.085l4.007-0.964
				l-3.799,1.714H70.141v-0.014H29.163l-3.799-1.714l4.007,0.964L70.25,46.208z"/>
			<polygon style="fill:#EC651A;" points="100.816,45.839 88.298,30.332 96.621,45.839 			"/>
			
				<linearGradient id="SVGID_13_" gradientUnits="userSpaceOnUse" x1="-2.731" y1="44.6763" x2="5.3262" y2="33.2196" gradientTransform="matrix(-1 0 0 1 95.1689 0)">
				<stop  offset="0" style="stop-color:#EA5514"/>
				<stop  offset="1" style="stop-color:#F8B62D"/>
			</linearGradient>
			<polygon style="fill:url(#SVGID_13_);" points="100.816,45.839 88.298,30.332 96.621,45.839 			"/>
			<polygon style="fill:#EC651A;" points="88.298,45.839 80.795,29.733 84.546,45.839 			"/>
			
				<linearGradient id="SVGID_14_" gradientUnits="userSpaceOnUse" x1="9.0967" y1="44.9902" x2="13.8214" y2="33.5436" gradientTransform="matrix(-1 0 0 1 95.1689 0)">
				<stop  offset="0" style="stop-color:#EA5514"/>
				<stop  offset="1" style="stop-color:#F8B62D"/>
			</linearGradient>
			<polygon style="fill:url(#SVGID_14_);" points="88.298,45.839 80.795,29.733 84.546,45.839 			"/>
			<polygon style="fill:#EC651A;" points="78.277,45.839 72.871,30.316 75.221,45.839 			"/>
			
				<linearGradient id="SVGID_15_" gradientUnits="userSpaceOnUse" x1="18.6235" y1="44.7139" x2="20.7552" y2="32.95" gradientTransform="matrix(-1 0 0 1 95.1689 0)">
				<stop  offset="0.1304" style="stop-color:#EA5514"/>
				<stop  offset="1" style="stop-color:#F8B62D"/>
			</linearGradient>
			<polygon style="fill:url(#SVGID_15_);" points="78.277,45.839 72.871,30.316 75.221,45.839 			"/>
			<polygon style="fill:#C13432;" points="100.963,59.465 100.962,59.477 100.963,59.465 70.25,59.45 			"/>
			<rect x="91.953" y="53.081" style="fill:#086291;" width="7.814" height="4.766"/>
			<rect x="81.631" y="53.081" style="fill:#086291;" width="7.815" height="4.766"/>
			<polygon style="fill:#086291;" points="71.332,57.831 79.037,57.847 79.037,53.081 71.332,53.065 			"/>
			<polygon style="fill:#999899;" points="70.25,86.819 70.25,86.821 38.872,86.899 38.764,86.956 39.077,90.34 70.25,90.34 
				70.25,90.339 101.34,90.352 101.652,86.97 101.545,86.914 			"/>
			<polygon style="fill:#CCCCCC;" points="101.34,90.352 70.25,90.339 70.25,90.34 39.077,90.34 32.303,90.34 33.231,95.548 
				70.276,95.463 70.276,95.461 107.185,95.563 108.114,90.354 101.34,90.354 			"/>
			<path style="fill:#901D22;" d="M70.25,62.327v0.001H52.878v22.651H70.25v-0.001l17.288,0.01V62.342L70.25,62.327z M69.194,84.148
				H54.399V63.107h14.795V84.148z M71.332,84.147V63.106l14.686,0.016v21.041L71.332,84.147z"/>
			<path style="fill:#310204;" d="M71.332,63.106v21.041l14.686,0.016V63.122L71.332,63.106z M85.538,83.652l-13.715-0.016V63.676
				l13.715,0.016V83.652z"/>
			<polygon style="fill:#C1371F;" points="71.823,83.637 85.538,83.652 85.538,63.691 71.823,63.676 			"/>
			<polygon style="fill:#633319;" points="70.25,49.319 70.25,49.321 27.803,49.321 28.845,51.321 70.25,51.321 70.25,51.319 
				111.571,51.335 112.613,49.335 			"/>
			<polygon style="fill:#CDE9EE;" points="92.315,25.656 92.544,25.656 92.339,19.995 91.534,20.211 			"/>
			<path style="fill:#C13432;" d="M107.831,51.787l4.21-0.066l-7.143,0.057l-0.007,0.078l-2.744,29.753l-0.254,2.755l0.198-2.148
				l6.795,0.539l0.025-0.243c-0.021-0.898-0.311-12.903-0.356-17.001C108.514,61.939,107.831,51.787,107.831,51.787z"/>
			<path style="fill:#F0EB4D;" d="M102.092,82.215l-0.198,2.148l-0.236,2.551h0h0l-0.005,0.056l-0.313,3.381v0.003h6.774
				c0,0-0.777-3.949-1.771-5.176C105.485,84.121,102.092,82.215,102.092,82.215z"/>
			<path style="fill:#F5C51D;" d="M106.342,85.179c0.995,1.227,1.771,5.176,1.771,5.176l0.78-7.6l-0.007,0l-6.795-0.539
				C102.092,82.215,105.485,84.121,106.342,85.179z"/>
			<path style="fill:#E83A37;" d="M107.831,51.787c0,0,0.683,10.152,0.724,13.723c0.045,4.099,0.335,16.104,0.356,17.001
				c0.001,0.035,0.001,0.059,0.001,0.059l3.115-30.726l0.013-0.125L107.831,51.787z"/>
			<polygon style="fill:#666666;" points="97.818,84.994 87.538,84.988 70.25,84.978 70.25,84.979 52.878,84.979 42.598,84.979 
				42.538,84.979 38.759,86.899 38.758,86.9 38.759,86.9 38.872,86.899 70.25,86.821 70.25,86.819 101.545,86.914 101.658,86.914 
				101.658,86.914 101.658,86.914 97.879,84.994 			"/>
		</g>
		<rect x="56.458" y="64.917" style="fill:none;stroke:#F5C53A;stroke-miterlimit:10;" width="10.625" height="17.5"/>
		<rect x="73.362" y="64.917" style="fill:none;stroke:#F5C53A;stroke-miterlimit:10;" width="10.625" height="17.5"/>
	</g>
	<g id="&#x5716;&#x5C64;_20">
	</g>
</g>
<g id="&#x5716;&#x5C64;_8_&#x62F7;&#x8C9D;_2">
	<g id="&#x5716;&#x5C64;_7_&#x62F7;&#x8C9D;_2">
		<path style="fill:#C79664;" d="M268-7.25"/>
	</g>
	<g id="&#x5716;&#x5C64;_10_&#x62F7;&#x8C9D;_2">
	</g>
</g>
<g id="&#x5716;&#x5C64;_8_&#x62F7;&#x8C9D;">
	<g id="&#x5716;&#x5C64;_7_&#x62F7;&#x8C9D;">
	</g>
	<g id="&#x5716;&#x5C64;_10_&#x62F7;&#x8C9D;">
	</g>
</g>
<g id="&#x5716;&#x5C64;_9">
	<path style="fill:#42BFED;" d="M460.983,260.241c0,0-93.168,50.016-117.983,74.759c-15.714,15.669-48.037,44.266-38.726,67.5
		c2.224,5.551,16.355,27.574,17.982,33.328c4.614,16.312-19.359,54.515-29.401,68.172c-7.278,9.898-16.352,25.057-15.855,37.333
		c0.35,8.663,13.973,23.871,15.855,32.334c4.624,20.781-23.153,75.545-23.153,75.545s6.436,7.781,6.308,5.491
		c-1.081-19.426,29.632-59.629,28.263-79.036c-0.653-9.26-22.673-26.49-21.274-35.667c4.489-29.435,52.319-75.786,43.333-104.173
		c-1.717-5.425-17.142-32.559-18.667-38.041c-5.074-18.247,24.027-43.519,36.833-57.473c25.09-27.34,127.356-76.252,127.356-76.252
		L460.983,260.241z"/>
</g>
<g id="&#x5716;&#x5C64;_2">
	<linearGradient id="SVGID_16_" gradientUnits="userSpaceOnUse" x1="185.041" y1="44.022" x2="213.7163" y2="44.022">
		<stop  offset="0.1572" style="stop-color:#E8426A"/>
		<stop  offset="0.8729" style="stop-color:#F5B5C7"/>
	</linearGradient>
	<ellipse style="fill:url(#SVGID_16_);" cx="199.379" cy="44.022" rx="14.338" ry="4.178"/>
	<linearGradient id="SVGID_17_" gradientUnits="userSpaceOnUse" x1="196.9448" y1="68.8501" x2="180.2608" y2="78.611">
		<stop  offset="0.1547" style="stop-color:#9AC717"/>
		<stop  offset="0.4415" style="stop-color:#76BC29"/>
		<stop  offset="0.6995" style="stop-color:#59B431"/>
		<stop  offset="0.8729" style="stop-color:#4CB234"/>
	</linearGradient>
	<rect x="183.35" y="48.92" style="fill:url(#SVGID_17_);" width="1.935" height="54.637"/>
	<linearGradient id="SVGID_18_" gradientUnits="userSpaceOnUse" x1="185.3262" y1="44.001" x2="156.6514" y2="44.0432">
		<stop  offset="0.1572" style="stop-color:#E8426A"/>
		<stop  offset="0.8729" style="stop-color:#F5B5C7"/>
	</linearGradient>
	<ellipse style="fill:url(#SVGID_18_);" cx="170.703" cy="44.022" rx="14.338" ry="4.178"/>
	
		<linearGradient id="SVGID_19_" gradientUnits="userSpaceOnUse" x1="489.9727" y1="46.3604" x2="518.6475" y2="46.3604" gradientTransform="matrix(0.5568 -0.8307 0.8307 0.5568 -126.2871 425.229)">
		<stop  offset="0.1572" style="stop-color:#E8426A"/>
		<stop  offset="0.8729" style="stop-color:#F5B5C7"/>
	</linearGradient>
	<path style="fill:url(#SVGID_19_);" d="M201.007,20.202c-1.917-1.285-7.044,3.006-11.454,9.584
		c-4.409,6.577-6.429,12.951-4.513,14.236c1.917,1.285,7.044-3.006,11.454-9.583C200.903,27.861,202.924,21.487,201.007,20.202z"/>
	
		<linearGradient id="SVGID_20_" gradientUnits="userSpaceOnUse" x1="488.9658" y1="45.8301" x2="460.3346" y2="46.9675" gradientTransform="matrix(0.5568 -0.8307 0.8307 0.5568 -126.2871 425.229)">
		<stop  offset="0.1572" style="stop-color:#E8426A"/>
		<stop  offset="0.8729" style="stop-color:#F5B5C7"/>
	</linearGradient>
	<path style="fill:url(#SVGID_20_);" d="M185.041,44.022c-1.917-1.285-7.044,3.006-11.453,9.583
		c-4.409,6.577-6.43,12.951-4.513,14.236c1.917,1.285,7.044-3.006,11.453-9.583C184.937,51.68,186.958,45.307,185.041,44.022z"/>
	
		<linearGradient id="SVGID_21_" gradientUnits="userSpaceOnUse" x1="11.5381" y1="340.8042" x2="40.2148" y2="340.8042" gradientTransform="matrix(0.4389 0.8985 -0.8985 0.4389 486.1902 -115.9971)">
		<stop  offset="0.1572" style="stop-color:#E8426A"/>
		<stop  offset="0.8729" style="stop-color:#F5B5C7"/>
	</linearGradient>
	<path style="fill:url(#SVGID_21_);" d="M197.627,69.714c2.073-1.013,0.937-7.602-2.539-14.717
		c-3.475-7.115-7.973-12.062-10.046-11.049c-2.074,1.013-0.937,7.601,2.539,14.717C191.056,65.78,195.554,70.728,197.627,69.714z"/>
	
		<linearGradient id="SVGID_22_" gradientUnits="userSpaceOnUse" x1="11.5381" y1="340.8003" x2="-17.1377" y2="340.8094" gradientTransform="matrix(0.4389 0.8985 -0.8985 0.4389 486.1902 -115.9971)">
		<stop  offset="0.1572" style="stop-color:#E8426A"/>
		<stop  offset="0.8729" style="stop-color:#F5B5C7"/>
	</linearGradient>
	<path style="fill:url(#SVGID_22_);" d="M185.042,43.948c2.073-1.013,0.937-7.602-2.539-14.717
		c-3.475-7.115-7.974-12.062-10.046-11.049c-2.074,1.012-0.937,7.601,2.539,14.716C178.47,40.014,182.968,44.961,185.042,43.948z"/>
	<circle style="fill:#F29518;" cx="185.041" cy="43.592" r="4.247"/>
	<linearGradient id="SVGID_23_" gradientUnits="userSpaceOnUse" x1="212.4902" y1="85.6431" x2="185.7359" y2="101.2956">
		<stop  offset="0.1547" style="stop-color:#9AC717"/>
		<stop  offset="0.4415" style="stop-color:#76BC29"/>
		<stop  offset="0.6995" style="stop-color:#59B431"/>
		<stop  offset="0.8729" style="stop-color:#4CB234"/>
	</linearGradient>
	<path style="fill:url(#SVGID_23_);" d="M185.28,103.557c0,0-1.342-14.027,10.943-18.464s27.416,4.437,27.416,4.437
		s-21.09-0.155-26.212,3.149C194.593,94.506,185.28,103.557,185.28,103.557z"/>
	
		<linearGradient id="SVGID_24_" gradientUnits="userSpaceOnUse" x1="710.7598" y1="85.6436" x2="684.0052" y2="101.2962" gradientTransform="matrix(-1 0 0 1 866.8555 0)">
		<stop  offset="0.1547" style="stop-color:#9AC717"/>
		<stop  offset="0.4415" style="stop-color:#76BC29"/>
		<stop  offset="0.6995" style="stop-color:#59B431"/>
		<stop  offset="0.8729" style="stop-color:#4CB234"/>
	</linearGradient>
	<path style="fill:url(#SVGID_24_);" d="M183.307,103.557c0,0,1.342-14.027-10.943-18.464s-27.416,4.437-27.416,4.437
		s21.089-0.155,26.212,3.149C173.994,94.506,183.307,103.557,183.307,103.557z"/>
	<path style="fill:#CDE9EE;" d="M60.5,200.047c0,0-23.316-17-23.315-40.25c0-12.712,10.815-29.25,29.065-29.25
		c23.75,0,30.757,18.245,30.761,27.98c0.009,21.77-23.511,41.52-23.511,41.52H60.5z"/>
	<path style="fill:#946525;stroke:#040000;stroke-miterlimit:10;" d="M74.098,216.915c0,2.571-1.511,4.655-3.374,4.655h-7.253
		c-1.863,0-3.374-2.084-3.374-4.655v-2.561c0-2.571,1.51-4.655,3.374-4.655h7.253c1.863,0,3.374,2.084,3.374,4.655V216.915z"/>
	<line style="fill:none;stroke:#040000;stroke-miterlimit:10;" x1="60.56" y1="199.75" x2="62.656" y2="209.82"/>
	<line style="fill:none;stroke:#040000;stroke-miterlimit:10;" x1="73.389" y1="199.75" x2="71.48" y2="209.82"/>
	<path style="fill:#F6F29B;" d="M55.625,133.078l5.083,66.427c0,0-17.285-26.551-18.488-38.583
		c-0.404-4.043-1.824-13.607,0.717-17.625c0.83-1.311,3.299-4.402,5.813-6.188C51.898,134.873,55.625,133.078,55.625,133.078z"/>
	<path style="fill:#F6F29B;" d="M78.966,133.13l-5.664,66.375c0,0,17.173-25.238,18.376-37.27
		c0.404-4.043,1.353-16.519-1.188-20.536c-0.872-1.379-3.042-4.009-5.99-5.819C81.566,134.079,78.966,133.13,78.966,133.13z"/>
</g>
</svg>
