<svg xmlns="http://www.w3.org/2000/svg" width="127.822" height="127.823" viewBox="0 0 127.822 127.823">
  <g id="Group_583" data-name="Group 583" transform="translate(-500.375 -23.14)">
    <g id="icon" transform="translate(500.375 23.14)">
      <path id="Path_1979" data-name="Path 1979" d="M568.361,32.286A58.773,58.773,0,1,1,526.808,49.5,58.773,58.773,0,0,1,568.361,32.286Zm39.772,19.035A56.272,56.272,0,1,0,624.6,91.092,56.273,56.273,0,0,0,608.133,51.321Z" transform="translate(-504.487 -27.22)" fill="#7ed5ea"/>
      <path id="Path_1980" data-name="Path 1980" d="M564.249,23.14a63.911,63.911,0,1,1-45.154,18.719A63.912,63.912,0,0,1,564.249,23.14Zm43.373,20.5a61.338,61.338,0,1,0,17.966,43.373A61.338,61.338,0,0,0,607.622,43.64Z" transform="translate(-500.375 -23.14)" fill="#ac5454"/>
    </g>
    <circle id="Ellipse_128" data-name="Ellipse 128" cx="62.587" cy="62.587" r="62.587" transform="translate(501.275 24.724)" fill="#fff"/>
    <g id="icon-3" transform="translate(500.375 23.14)">
      <path id="Path_1979-3" data-name="Path 1979-3" d="M568.361,32.286A58.773,58.773,0,1,1,526.808,49.5,58.773,58.773,0,0,1,568.361,32.286Zm39.772,19.035A56.272,56.272,0,1,0,624.6,91.092,56.273,56.273,0,0,0,608.133,51.321Z" transform="translate(-504.487 -27.22)" fill="#7ed5ea"/>
      <path id="Path_1980-3" data-name="Path 1980-3" d="M564.249,23.14a63.911,63.911,0,1,1-45.154,18.719A63.912,63.912,0,0,1,564.249,23.14Zm43.373,20.5a61.338,61.338,0,1,0,17.966,43.373A61.338,61.338,0,0,0,607.622,43.64Z" transform="translate(-500.375 -23.14)" fill="#ac5454"/>
    </g>
    <path id="Path_2051" data-name="Path 2051" d="M625.608,120.394a9.824,9.824,0,0,1,6.955,2.9l.1.1A9.837,9.837,0,0,1,618.653,137.2a9.682,9.682,0,0,1-.675-.772,36.766,36.766,0,0,1-9.515,18.3,34.225,34.225,0,0,1-11.2,7.823h9.08a1.377,1.377,0,0,1,0,2.754h-45.35a1.394,1.394,0,0,1-1.353-1.4,1.352,1.352,0,0,1,1.353-1.353h9.755a34.765,34.765,0,0,1-11.2-7.823A36.406,36.406,0,0,1,549.4,129.378V117.014a1.392,1.392,0,0,1,1.4-1.353h66.457a1.393,1.393,0,0,1,1.4,1.353v6.278h0a9.821,9.821,0,0,1,6.955-2.9Zm-6.955,8.646v.338c0,.627-.048,1.208-.048,1.787a6.9,6.9,0,0,0,1.98,4.057,7.052,7.052,0,0,0,12.075-4.975,6.888,6.888,0,0,0-1.98-4.926l-.048-.1a7.11,7.11,0,0,0-10.047,0,6.891,6.891,0,0,0-1.932,3.816Z" transform="translate(-21.87 -41.276)" fill="#552614" fill-rule="evenodd"/>
    <g id="Group_582" data-name="Group 582" transform="translate(547.521 46.325)">
      <path id="Path_2052" data-name="Path 2052" d="M612.141,70.6a1.322,1.322,0,0,1-1.353,1.353,1.362,1.362,0,0,1-1.4-1.353V66.4a1.4,1.4,0,0,1,1.4-1.4,1.362,1.362,0,0,1,1.353,1.4Z" transform="translate(-596.154 -65)" fill="#552614"/>
      <path id="Path_2053" data-name="Path 2053" d="M636.121,94.921a1.376,1.376,0,0,1-2.752,0V81.4a1.376,1.376,0,1,1,2.752,0Z" transform="translate(-606.853 -71.69)" fill="#552614"/>
      <path id="Path_2054" data-name="Path 2054" d="M612.141,96.4a1.321,1.321,0,0,1-1.353,1.351,1.36,1.36,0,0,1-1.4-1.351V84.663a1.362,1.362,0,0,1,1.4-1.353,1.322,1.322,0,0,1,1.353,1.353Z" transform="translate(-596.154 -73.169)" fill="#552614"/>
      <path id="Path_2055" data-name="Path 2055" d="M588.248,94.921a1.36,1.36,0,0,1-1.4,1.351,1.319,1.319,0,0,1-1.351-1.351V81.4a1.361,1.361,0,0,1,1.351-1.4,1.4,1.4,0,0,1,1.4,1.4Z" transform="translate(-585.496 -71.69)" fill="#552614"/>
    </g>
    <path id="Path_2056" data-name="Path 2056" d="M618.019,133.479c0-.338-.046-.675-.046-1.015a13.961,13.961,0,0,1,.1-1.448V120.633H554.364V131.6c0,17.725,13.814,33.179,31.877,33.179a31.093,31.093,0,0,0,22.457-9.707,33.617,33.617,0,0,0,9.321-21.589Z" transform="translate(-24.086 -43.494)" fill="#552614"/>
    <path id="Path_2057" data-name="Path 2057" d="M618.019,133.479c0-.338-.046-.675-.046-1.015a13.961,13.961,0,0,1,.1-1.448V120.633H554.364V131.6c0,17.725,13.814,33.179,31.877,33.179a31.093,31.093,0,0,0,22.457-9.707,33.617,33.617,0,0,0,9.321-21.589Z" transform="translate(-24.086 -43.494)" fill="#ded0c4" fill-rule="evenodd"/>
    <path id="Path_2058" data-name="Path 2058" d="M561.126,131.6V120.633h-6.762V131.6c0,17.725,13.814,33.179,31.877,33.179,1.109,0,2.269-.1,3.333-.193-16.324-1.787-28.447-16.421-28.447-32.986Z" transform="translate(-24.086 -43.494)" fill="#fff8ed" fill-rule="evenodd"/>
    <path id="Path_2059" data-name="Path 2059" d="M646.53,127.67a1.557,1.557,0,0,1,1.546-1.546,1.526,1.526,0,0,1,1.544,1.546s.147,1.256.243,2.754a1.555,1.555,0,0,1-1.5,1.594,1.514,1.514,0,0,1-1.594-1.449c-.1-1.546-.241-2.9-.241-2.9Zm.145,8.114a1.564,1.564,0,0,1,1.69-1.4,1.634,1.634,0,0,1,1.4,1.69,31.249,31.249,0,0,1-4.348,13.378,24.553,24.553,0,0,1-9.755,8.79,1.531,1.531,0,0,1-2.076-.676,1.571,1.571,0,0,1,.676-2.076,21.219,21.219,0,0,0,8.548-7.681,27.137,27.137,0,0,0,3.864-12.025Z" transform="translate(-59.357 -45.944)" fill="#552614"/>
  </g>
</svg>
