<svg xmlns="http://www.w3.org/2000/svg" width="127.433" height="127.433" viewBox="0 0 127.433 127.433">
  <g id="Group_579" data-name="Group 579" transform="translate(-406.375 -26.221)">
    <circle id="Ellipse_127" data-name="Ellipse 127" cx="62.397" cy="62.397" r="62.397" transform="translate(407.272 27.203)" fill="#fff"/>
    <g id="icon-2" transform="translate(406.375 26.221)">
      <path id="Path_1979-2" data-name="Path 1979-2" d="M474.182,35.366a58.594,58.594,0,1,1-41.426,17.161A58.594,58.594,0,0,1,474.182,35.366Zm39.651,18.977a56.1,56.1,0,1,0,16.413,39.65A56.1,56.1,0,0,0,513.833,54.343Z" transform="translate(-410.503 -30.316)" fill="#7ed5ea"/>
      <path id="Path_1980-2" data-name="Path 1980-2" d="M470.054,26.221a63.717,63.717,0,1,1-45.017,18.662A63.716,63.716,0,0,1,470.054,26.221ZM513.3,46.658A61.152,61.152,0,1,0,531.206,89.9,61.151,61.151,0,0,0,513.3,46.658Z" transform="translate(-406.375 -26.221)" fill="#ac5454"/>
    </g>
    <path id="Path_2041" data-name="Path 2041" d="M497.593,157.554c2.5-3.029,4.95-5.7,7.038-8.619a4.933,4.933,0,0,1,4.84-2.421c3.745.219,7.512.057,11.27.061a4.938,4.938,0,0,1,5.219,3.9c.34,1.128.662,2.262,1.022,3.493-1.943.449-3.828.891-5.717,1.32-13.459,3.056-26.922,6.09-40.371,9.192a2.842,2.842,0,0,1-3.086-.845c-2.965-3.015-6.051-5.912-9.113-8.83a1.041,1.041,0,0,1-.316-1.236c.375-1.151.694-2.321,1.056-3.477a4.824,4.824,0,0,1,4.7-3.509q7.013-.031,14.025.019a1.6,1.6,0,0,1,1.052.576C491.962,150.539,494.676,153.93,497.593,157.554Z" transform="translate(-27.73 -53.863)" fill="#7aea7a"/>
    <path id="Path_2042" data-name="Path 2042" d="M492.993,179.833c5.66-1.284,11.191-2.537,16.722-3.794,2.737-.622,5.468-1.268,8.214-1.849a1.554,1.554,0,0,1,1.238.263q7.31,7.493,14.552,15.052c.121.126.224.27.409.5a6.886,6.886,0,0,1-.723.082q-14.6,0-29.194-.014a1.732,1.732,0,0,1-1.1-.378c-3.3-3.142-6.563-6.315-9.835-9.483A3.68,3.68,0,0,1,492.993,179.833Z" transform="translate(-38.789 -66.25)" fill="#7ecff2"/>
    <g id="Group_577" data-name="Group 577" transform="translate(435.199 103.151)">
      <path id="Path_2043" data-name="Path 2043" d="M483.213,186.784h-.961q-9.226,0-18.452,0a4.915,4.915,0,0,1-4.953-6.654c1.3-4.387,2.611-8.773,3.97-13.34l20.5,19.785Z" transform="translate(-458.576 -166.1)" fill="#f2c070"/>
      <path id="Path_2044" data-name="Path 2044" d="M546.316,169.29l16.516-3.749c.654,2.195,1.286,4.313,1.916,6.43.784,2.633,1.6,5.259,2.341,7.9a4.863,4.863,0,0,1-3.768,6.246,1.49,1.49,0,0,1-1.163-.322q-7.8-8.018-15.534-16.091C546.545,169.625,546.487,169.523,546.316,169.29Z" transform="translate(-497.867 -165.541)" fill="#f2c070"/>
    </g>
    <path id="Path_2045" data-name="Path 2045" d="M523.576,178.183l-63.031,0a5.93,5.93,0,0,1-5.15-7.6l.02-.084,6.652-22.715a5.557,5.557,0,0,1,5.187-3.282h49.765l.068.012c.157.025,3.857.672,4.532,3.377.542,2.166,6.556,22.4,6.617,22.6l.023.1c.027.16.631,3.935-1.212,6.109A4.32,4.32,0,0,1,523.576,178.183Zm-62.9-1.657h62.9a2.709,2.709,0,0,0,2.2-.893c1.258-1.481.907-4.33.85-4.724-.42-1.412-6.078-20.454-6.619-22.619-.333-1.334-2.317-1.978-3.136-2.134H467.253a3.921,3.921,0,0,0-3.637,2.214l-6.6,22.548a4.934,4.934,0,0,0,.646,3.924A4.834,4.834,0,0,0,460.679,176.527Z" transform="translate(-21.88 -52.967)" fill="#552614"/>
    <g id="Group_578" data-name="Group 578" transform="translate(450.896 49.811)">
      <path id="Path_2046" data-name="Path 2046" d="M506.782,119.905c-2.437-3.145-4.863-6.125-7.121-9.228a83.275,83.275,0,0,1-7.875-12.633,23.555,23.555,0,0,1-2.773-9.473c-.214-7.13,3.22-12.224,9.377-15.464a18.4,18.4,0,0,1,24.289,6.743,15.683,15.683,0,0,1,1.353,13.006,45.812,45.812,0,0,1-5.607,11.519,116.649,116.649,0,0,1-10.857,14.679C507.375,119.273,507.172,119.483,506.782,119.905Zm.039-20.419A10.576,10.576,0,1,0,496.31,88.875,10.577,10.577,0,0,0,506.821,99.486Z" transform="translate(-487.898 -69.863)" fill="#e2400e"/>
      <path id="Path_2047" data-name="Path 2047" d="M505.811,120.69l-.8-1.03c-.754-.973-1.507-1.93-2.254-2.88-1.706-2.169-3.317-4.218-4.887-6.374A84.709,84.709,0,0,1,489.9,97.6a24.715,24.715,0,0,1-2.882-9.921c-.22-7.335,3.133-12.877,9.966-16.474a19.388,19.388,0,0,1,25.753,7.156,16.841,16.841,0,0,1,1.462,13.882,46.963,46.963,0,0,1-5.733,11.8,117.578,117.578,0,0,1-10.96,14.818c-.129.145-.262.288-.448.486Zm.164-49.48a17.077,17.077,0,0,0-7.967,1.953c-6.024,3.17-8.981,8.033-8.787,14.453a22.7,22.7,0,0,0,2.663,9.024,82.754,82.754,0,0,0,7.773,12.465c1.547,2.123,3.145,4.156,4.838,6.308q.727.925,1.461,1.861A115.785,115.785,0,0,0,516.6,102.86a44.945,44.945,0,0,0,5.479-11.24,14.531,14.531,0,0,0-1.243-12.128A17.266,17.266,0,0,0,505.975,71.21ZM506,99.669h-.078a11.632,11.632,0,0,1-8.267-3.511,11.487,11.487,0,0,1-3.341-8.217A11.693,11.693,0,0,1,514.337,79.8a11.538,11.538,0,0,1,3.374,8.252A11.733,11.733,0,0,1,506,99.669Zm-.064-2.209a9.51,9.51,0,0,0,9.57-9.428,9.513,9.513,0,0,0-9.408-9.516h-.077a9.538,9.538,0,0,0-9.5,9.449,9.294,9.294,0,0,0,2.707,6.646,9.437,9.437,0,0,0,6.707,2.85Z" transform="translate(-487.003 -68.941)" fill="#552614"/>
    </g>
    <path id="Path_2048" data-name="Path 2048" d="M489.267,185.8a.825.825,0,0,1-.582-.239l-22.939-22.64a.828.828,0,1,1,1.164-1.178l22.938,22.64a.828.828,0,0,1-.581,1.417Z" transform="translate(-26.477 -60.58)" fill="#552615"/>
    <path id="Path_2049" data-name="Path 2049" d="M487.1,174.252a.828.828,0,0,1-.191-1.634l48.995-11.6a.829.829,0,0,1,.382,1.612l-48.995,11.6A.851.851,0,0,1,487.1,174.252Z" transform="translate(-35.779 -60.356)" fill="#552615"/>
    <path id="Path_2050" data-name="Path 2050" d="M557.038,189.376a.825.825,0,0,1-.6-.262L539.34,170.889a.829.829,0,0,1,1.209-1.134l17.093,18.226a.829.829,0,0,1-.6,1.395Z" transform="translate(-59.443 -64.16)" fill="#552615"/>
  </g>
</svg>
