<svg xmlns="http://www.w3.org/2000/svg" width="471.852" height="98.721" viewBox="0 0 471.852 98.721">
  <path id="雲" d="M985.425,453.2s-17.388,4.251-33.23.387-17.775,1.159-42.891,1.159-47.528-1.932-47.528-1.932-6.183-5.023,8.887-6.182,26.276-7.342,34.391-16.616,34.39-1.545,44.05-4.637,19.707-19.707,37.481-18.547,12.365,9.661,23.184,1.546S1024.839,382.3,1040.3,385s11.592-11.013,32.458-16.229,32.458,26.468,32.458,26.468,12.172-17.195,28.98-15.456,34.2,19.9,34.2,19.9,8.694-10.627,17.968-2.512,8.694,19.9,8.694,19.9,3.939-8.681,10.625-7.535c13.525,2.318,15.167,16.519,15.167,16.519s2.994-8.6,21.542-5.12,14.1,11.012,19.9,12.751,20.866-3.284,26.082,4.83,1.159,6.955,12.752,6.955,35.742,7.148,30.526,10.046-32.844,3.285-45.016,4.444-43.471,3.478-64.336,2.318-13.331-7.535-41.152-4.637-28.691,16.615-49.846,4.057c-8.113-4.816-31.3-5.8-39.993-2.9s-29.947,10.433-45.6.58-19.319-1.159-36.708,1.159S985.425,453.2,985.425,453.2Z" transform="translate(-860.52 -368.196)" fill="#fff"/>
</svg>
