<svg xmlns="http://www.w3.org/2000/svg" width="1920.024" height="266.118" viewBox="0 0 1920.024 266.118">
  <g id="Group_431" data-name="Group 431" transform="translate(0 -814.008)">
    <g id="雲朵" transform="translate(837.895 752.008)">
      <path id="Path_802" data-name="Path 802" d="M993.523,795.788s8.954-82.809,86.8-91.1,79.4,18.644,79.4,18.644,7-113.943,78.625-99.443,66.168,60.081,66.168,60.081,21.8-120.16,76.291-111.873,91.86,76.652,91.86,76.652,13.234-96.336,91.471-114.98S1688.6,566.6,1688.6,566.6l0,229Z" transform="translate(-606.523 -467.704)" fill="#fff" opacity="0.38"/>
      <path id="Path_803" data-name="Path 803" d="M1598.169,602.828s-54.538-47.609-125.289-34.626-82.542,59.151-82.542,59.151,13.476-25.968-40.432-24.525-52.22,21.639-52.22,21.639-13.476-56.265-50.536-49.051-33.691,53.38-33.691,53.38-89.282-7.214-109.5,20.2,11.447,26.984,11.447,26.984l482.712-.058Z" transform="translate(-516.04 -347.963)" fill="#fff" opacity="0.76"/>
    </g>
    <g id="雲朵-2" data-name="雲朵" transform="translate(418 772.427)">
      <path id="Path_804" data-name="Path 804" d="M554.364,503S643.823,470.688,690.5,517.3s44.34,72.711,44.34,72.711,82.456-54.69,175.026-26.1c43.805,13.528,70.788,74.576,70.788,74.576s57.565-24.237,97.237-1.864,23.337,39.152,51.341,31.695,65.343-12.119,70.01,6.525,30.338,30.763,37.339,30.763,49.248,23.191,49.248,23.191l-731.8-.153Z" transform="translate(-971.714 -421.095)" fill="#fff" opacity="0.49"/>
      <path id="Path_805" data-name="Path 805" d="M554.064,537.555s10.411-16.392,39.309-5.205S617.3,591.7,617.3,591.7s54.068-23.3,68.051,13.051,9.322,47.542,9.322,47.542,16.78-51.737,56.864-35.89S779.5,661.615,779.5,661.615s30.762-43.813,65.254-26.1,28.9,39.152,28.9,39.152,32.627-20.508,49.407-7.458,21.325,29.657,21.325,29.657l-390.362.356Z" transform="translate(-972.023 -389.676)" fill="#fff"/>
      <path id="雲朵-3" data-name="雲朵" d="M1218.69,463.009s-57.083,10.536-48.93,37.931S1281.9,488.294,1312.477,490.4s87.671,21.072,120.288,0,173.3,44.253,205.922,10.536,95.823-6.323,152.913,2.109,89.705-35.827,89.705-42.143,8.924-19.785-46.895-14.756-53.518-14.22-67.283-36.344-47.4-60.055-85.629-41.092c0,0-4.589-71.119-68.812-75.861s-76.452,45.834-76.452,45.834-45.87-41.092-114.682-25.285-79.512,69.538-79.512,69.538-12.235,9.478-48.935,14.22S1203.906,430.878,1218.69,463.009Z" transform="translate(-1320.111 -203.54)" fill="#fff" opacity="0.544"/>
      <path id="雲朵-4" data-name="雲朵" d="M1218.69,463.009s-57.083,10.536-48.93,37.931S1281.9,488.294,1312.477,490.4s87.671,21.072,120.288,0,173.3,44.253,205.922,10.536,95.823-6.323,152.913,2.109,89.705-35.827,89.705-42.143,8.924-19.785-46.895-14.756-53.518-14.22-67.283-36.344-47.4-60.055-85.629-41.092c0,0-4.589-71.119-68.812-75.861s-76.452,45.834-76.452,45.834-45.87-41.092-114.682-25.285-79.512,69.538-79.512,69.538-12.235,9.478-48.935,14.22S1203.906,430.878,1218.69,463.009Z" transform="translate(-855.111 -203.54)" fill="#fff" opacity="0.544"/>
    </g>
  </g>
</svg>
