<svg xmlns="http://www.w3.org/2000/svg" width="295.078" height="207.937" viewBox="0 0 295.078 207.937">
  <g id="Group_429" data-name="Group 429" transform="translate(-14.537 33.701) rotate(-8)">
    <g id="Group_417" data-name="Group 417" transform="translate(4.412 16.926)">
      <path id="Path_3475" data-name="Path 3475" d="M183.87,62.092l8.45,97.409,2.328,1.969,102.419-58.749s5.033-2.573,2.854-7.716L216.931,19.322Z" transform="translate(-14.994 -17.694)" fill="#4a0004" stroke="#5a5858" stroke-width="0.3"/>
      <path id="Path_3476" data-name="Path 3476" d="M184.585,60.362l7.357,97.434,1.5,1.635,103.612-58.846s4.74-2.628,2.6-6.308L217.646,17.592Z" transform="translate(-15.036 -17.592)" fill="#7c0e1d" stroke="#5a5858" stroke-width="0.3"/>
      <path id="Path_3477" data-name="Path 3477" d="M300.218,98.973l-1.867-1.745a7.653,7.653,0,0,1,.2,4.325c-.651,2.158-2.493,3.245-4.45,4.113-2.391,1.062-100.1,58.46-100.1,58.46L297.613,105.28S302.353,102.652,300.218,98.973Z" transform="translate(-15.591 -22.288)" fill="#7c0e1d" stroke="#5a5858" stroke-width="0.3" style="mix-blend-mode: screen;isolation: isolate"/>
      <path id="Path_3478" data-name="Path 3478" d="M121.171,86.81l62.9,78.152L75.411,180.636a5.561,5.561,0,0,1-5.044-2.756L5.083,82.268s-2.606-2.79,2.452-3.731Z" transform="translate(-4.412 -21.186)" fill="#912131" stroke="#5a5858" stroke-width="0.3"/>
      <path id="Path_3479" data-name="Path 3479" d="M81.864,180.857a7.406,7.406,0,0,1-4.44-.42c-1.87-1.508-2.894-3.667-4.462-5.428-6.855-7.7-13.211-15.855-19.668-23.884l20.421,29.907c2.474,2.533,4.725,1.954,4.725,1.954L185.7,167.3Z" transform="translate(-7.294 -25.466)" fill="#7c0e1d" stroke="#5a5858" stroke-width="0.3" style="mix-blend-mode: screen;isolation: isolate"/>
      <path id="Path_3480" data-name="Path 3480" d="M75.737,175.266c4.039-.961,27.571-5.931,106.547-13.069L121.7,85.612,8.066,77.34a5.291,5.291,0,0,0-2.559,1.017c1.562,2.492,34.071,50.282,40.118,58.677,5.762,8,11.65,15.9,17.483,23.852,3.6,4.906,7.128,9.875,10.4,15.009Q74.606,175.533,75.737,175.266Z" transform="translate(-4.476 -21.115)" fill="#b62436" stroke="#5a5858" stroke-width="0.3" style="mix-blend-mode: multiply;isolation: isolate"/>
    </g>
    <path id="Path_3481" data-name="Path 3481" d="M181.7,161.576S114.334,166.24,72.71,175.06L6.909,77.945l13.117-.507Z" transform="translate(-0.147 -4.195)" fill="#edc49c" stroke="#5a5858" stroke-width="0.3"/>
    <path id="Path_3482" data-name="Path 3482" d="M181.7,161.576S100.235,163.439,72.71,175.06L6.909,77.945l13.117-.507Z" transform="translate(-0.147 -4.195)" fill="#edc49c" stroke="#5a5858" stroke-width="0.3" opacity="0.5" style="mix-blend-mode: multiply;isolation: isolate"/>
    <path id="Path_3483" data-name="Path 3483" d="M181.744,161.576s-81.2-.862-108.222,12.448L7.7,77.477l12.371-.039Z" transform="translate(-0.194 -4.195)" fill="#edc49c" stroke="#5a5858" stroke-width="0.3"/>
    <path id="Path_3484" data-name="Path 3484" d="M181.9,161.576s-73.764-7.487-106.964,10.39L10.287,77.473l9.938-.035Z" transform="translate(-0.346 -4.195)" fill="#edc49c" stroke="#5a5858" stroke-width="0.3" opacity="0.5" style="mix-blend-mode: multiply;isolation: isolate"/>
    <g id="Group_419" data-name="Group 419" transform="translate(9.806 6.304)">
      <path id="Path_3485" data-name="Path 3485" d="M278.665,91.729l7.557,7.411a1046.688,1046.688,0,0,0-104.333,61.867C152.434,159.238,120.1,153.62,75,168.45,32.768,111.531,10.144,74.157,10.144,74.157L22.3,67.8l61.543,79.319s32.975-25.307,88.291-4.8C189.407,95.984,232.628,77.981,278.665,91.729Z" transform="translate(-10.144 -9.93)" fill="#edc49c" stroke="#5a5858" stroke-width="0.3"/>
      <path id="Path_3486" data-name="Path 3486" d="M198.2,149.019q6.119-4.444,12.393-8.667c8.36-5.633,16.9-11,25.534-16.2q6.478-3.894,13.018-7.682c4.294-2.49,8.556-5.091,12.963-7.373,7.639-3.956,15.845-6.681,23.53-10.536l-6.971-6.835c-46.037-13.748-89.258,4.254-106.528,50.59-55.317-20.511-88.291,4.8-88.291,4.8L22.3,67.8l-12.159,6.36S32.768,111.531,75,168.45c45.1-14.83,77.437-9.212,106.891-7.443q2.888-1.966,5.77-3.889C190.977,154.191,194.624,151.615,198.2,149.019Z" transform="translate(-10.144 -9.93)" fill="#edc49c" stroke="#5a5858" stroke-width="0.3" opacity="0.5" style="mix-blend-mode: multiply;isolation: isolate"/>
      <path id="Path_3487" data-name="Path 3487" d="M279.158,89.039l7.228,7.67s-54.58,22.152-104.5,64.3C152.434,159.238,120.1,153.62,75,168.45,32.768,111.531,10.144,74.157,10.144,74.157L22.3,67.8l61.543,79.319s32.975-25.307,88.291-4.8C189.407,95.984,233.121,75.291,279.158,89.039Z" transform="translate(-10.144 -9.93)" fill="#edc49c" stroke="#5a5858" stroke-width="0.3"/>
      <path id="Path_3488" data-name="Path 3488" d="M279.158,89.039l7.228,7.67s-48.332,14.353-104.5,64.3C152.434,159.238,120.1,153.62,75,168.45,32.768,111.531,10.144,74.157,10.144,74.157L22.3,67.8l61.543,79.319s32.975-25.307,88.291-4.8C189.407,95.984,233.121,75.291,279.158,89.039Z" transform="translate(-10.144 -9.93)" fill="#edc49c" stroke="#5a5858" stroke-width="0.3" opacity="0.5" style="mix-blend-mode: multiply;isolation: isolate"/>
      <path id="Path_3489" data-name="Path 3489" d="M279.158,89.039l5.56,6.981s-51.528,16.171-102.829,64.988C152.434,159.238,120.1,153.62,75,168.45,32.768,111.531,10.144,74.157,10.144,74.157L22.3,67.8l61.543,79.319s32.975-25.307,88.291-4.8C189.407,95.984,233.121,75.291,279.158,89.039Z" transform="translate(-10.144 -9.93)" fill="#edc49c" stroke="#5a5858" stroke-width="0.3"/>
      <path id="Path_3490" data-name="Path 3490" d="M278.84,90.159l5.432,4.152s-49.658,11.085-102.238,66.7c-23.916-4.84-74.261-7.027-104.008,4.092-41.382-53.925-65.4-92.98-65.4-92.98L22.449,67.8l61.543,79.319s32.975-25.307,88.291-4.8C189.553,95.984,232.8,76.411,278.84,90.159Z" transform="translate(-10.29 -9.93)" fill="#edc49c" stroke="#5a5858" stroke-width="0.3" opacity="0.5" style="mix-blend-mode: multiply;isolation: isolate"/>
      <path id="Path_3491" data-name="Path 3491" d="M279.019,90.159c-46.037-13.748-89.287,5.825-106.557,52.16-55.317-20.511-88.291,4.8-88.291,4.8L22.628,67.8l-6.975,3.067c2.459,3.671,4.783,7.429,7.067,11.211,2.594,4.3,55.229,77.766,57.316,80.384,38.468-11.813,79.183-6.106,102.176-1.452.125-.133.25-.262.375-.393a53.879,53.879,0,0,1,5.771-6.733c3.055-3.086,6.346-5.922,9.417-8.987q5.361-5.347,10.957-10.451a165.642,165.642,0,0,1,23-17.527,202.406,202.406,0,0,1,25.518-13.581,145.26,145.26,0,0,1,13.816-5.37c4.189-1.378,8.217-3.475,12.574-4.274Z" transform="translate(-10.469 -9.93)" fill="#edc49c" stroke="#5a5858" stroke-width="0.3" opacity="0.5" style="mix-blend-mode: multiply;isolation: isolate"/>
      <path id="Path_3492" data-name="Path 3492" d="M280.789,88.456l4.3,3.945s-54.575,8.7-102.911,68.326c-36.4-11.524-73.174-8.6-102.35.079C44.258,114.559,15,68.081,15,68.081a32.08,32.08,0,0,1,13.343-5.044l54.761,80.324s49.221-16.952,95.491,8.148C196.106,109.138,236.91,85.07,280.789,88.456Z" transform="translate(-10.43 -9.649)" fill="#edc49c" stroke="#5a5858" stroke-width="0.3"/>
      <path id="Path_3493" data-name="Path 3493" d="M280.965,88.456c-43.879-3.386-84.684,20.682-102.192,63.053-46.271-25.1-95.491-8.148-95.491-8.148L28.521,63.037a30.746,30.746,0,0,0-10.54,3.384c2.6,4.01,61.6,90.051,62.089,90.725,4.309-1.329,10.122-3.764,14.577-4.545,4.992-.875,29.582-8.087,74.87,3.2a125.663,125.663,0,0,1,12.722,3.7c.284.1.57.211.855.319q1.083-1.321,2.169-2.613a123.559,123.559,0,0,1,7.6-10.609c2.846-3.7,5.7-7.378,8.849-10.827A127.686,127.686,0,0,1,212.1,125.642a124.364,124.364,0,0,1,22.6-15.373,251.016,251.016,0,0,1,24.8-11.642c7.854-3.2,16.011-6.1,24.419-7.46Z" transform="translate(-10.606 -9.649)" fill="#edc49c" stroke="#5a5858" stroke-width="0.3" opacity="0.5" style="mix-blend-mode: multiply;isolation: isolate"/>
      <g id="Group_418" data-name="Group 418" transform="translate(7.493)">
        <path id="Path_3494" data-name="Path 3494" d="M18.106,62.686c25.8,39.567,63,91.514,63,91.514s54.12-19.361,101.25,6.21L121.579,83.582C96.043,63.648,51.581,49.782,18.106,62.686Z" transform="translate(-18.106 -9.334)" fill="#f6e1cc" stroke="#5a5858" stroke-width="0.3"/>
        <path id="Path_3495" data-name="Path 3495" d="M107.005,72.792a34.949,34.949,0,0,1,6,3.466,67.5,67.5,0,0,1,5.194,4.385c7,6.464,12.794,14.027,18.686,21.478,6.434,8.136,13.007,16.16,19.4,24.325,3.18,4.059,6.256,8.195,9.445,12.243,3.072,3.9,6.1,7.869,9.328,11.636,2.386,2.78,4.869,5.508,7.277,8.3q2.315,1.107,4.61,2.35L126.165,84.142A123.259,123.259,0,0,0,95.884,67.176C99.343,69.508,103.247,71,107.005,72.792Z" transform="translate(-22.692 -9.893)" fill="#edc49c" stroke="#5a5858" stroke-width="0.3" opacity="0.5" style="mix-blend-mode: multiply;isolation: isolate"/>
        <path id="Path_3496" data-name="Path 3496" d="M162.746,149.954a89.585,89.585,0,0,0-11.312-4.3,90.632,90.632,0,0,0-11.278-2.8c-10.283-1.742-20.681-.922-31.047-1.05-2.564-.031-5.13-.115-7.685-.326a18.07,18.07,0,0,1-5.032-1,21.137,21.137,0,0,1-7.616-5.283C84.1,130.315,42.137,68.392,42.3,66.729c.166-1.685,3.1-4.117,4.5-4.972,3.236-1.974,7.314-2.36,11.025-2.416a78.084,78.084,0,0,1,10.4.494c-17.095-3.352-34.766-3.069-50.123,2.851,25.8,39.567,63,91.514,63,91.514s47.682-17.057,92.51,2A67.717,67.717,0,0,0,162.746,149.954Z" transform="translate(-18.106 -9.334)" fill="#f6e1cc" stroke="#5a5858" stroke-width="0.3" opacity="0.4" style="mix-blend-mode: color-dodge;isolation: isolate"/>
        <path id="Path_3497" data-name="Path 3497" d="M292.81,86.5C243.447,37.953,208.471,6.3,208.471,6.3s-44.439,12.179-80.408,74.248l60.778,76.829C201.114,132.131,234.267,98.456,292.81,86.5Z" transform="translate(-24.59 -6.304)" fill="#f6e1cc" stroke="#5a5858" stroke-width="0.3"/>
        <path id="Path_3498" data-name="Path 3498" d="M279.121,87.026c-4.687,1.457-9.26,3.3-13.846,5.046q-6.7,2.542-13.16,5.666a198.48,198.48,0,0,0-24.245,14.11c-6.959,4.692-14.177,10.816-23.138,9.652-4.218-.548-8.074-2.645-11.5-5.069a102.794,102.794,0,0,1-10.142-8.219,144.487,144.487,0,0,1-18.3-20.738c-2.684-3.641-5.241-7.376-7.635-11.211-2.226-3.562-4.6-7.167-5.825-11.222A20.766,20.766,0,0,1,151.5,52.5a35.969,35.969,0,0,1,2.056-4.845,209.3,209.3,0,0,0-25.489,35.333l60.778,76.829c12.273-25.25,45.426-58.925,103.969-70.885q-2.057-2.023-4.075-4A57.025,57.025,0,0,0,279.121,87.026Z" transform="translate(-24.59 -8.743)" fill="#edc49c" stroke="#5a5858" stroke-width="0.3" opacity="0.6"/>
        <path id="Path_3499" data-name="Path 3499" d="M206.59,134.862a50.183,50.183,0,0,0-7.876,8.371c-1.824,2.513-3.8,5.528-6.729,6.856-3.014,1.368-5.964-1.23-7.913-3.283-1.152-1.209-2.154-2.53-3.237-3.8-1.695-1.977-3.366-3.974-5.042-5.966-6.485-7.7-13.255-15.14-19.465-23.075-3.023-3.862-5.957-7.795-8.76-11.819-2.323-3.335-4.939-6.477-7.147-9.891A23.622,23.622,0,0,1,136.4,81.675a32.664,32.664,0,0,1,1.045-10.39q.378-1.6.857-3.173c-3.458,4.951-6.886,10.3-10.24,16.085l60.778,76.829c4.5-9.252,11.8-19.637,22.13-29.671Q208.713,133.023,206.59,134.862Z" transform="translate(-24.59 -9.949)" fill="#edc49c" stroke="#5a5858" stroke-width="0.3" opacity="0.9" style="mix-blend-mode: multiply;isolation: isolate"/>
      </g>
    </g>
  </g>
</svg>
