<svg xmlns="http://www.w3.org/2000/svg" width="539.2" height="391.345" viewBox="0 0 539.2 391.345">
  <g id="Group_170" data-name="Group 170" transform="matrix(0.996, -0.087, 0.087, 0.996, 0, 44.519)">
    <path id="Path_732" data-name="Path 732" d="M257.861,1124.831c.341-.085.588.064.666.464C258.88,1127.148,256.418,1125.289,257.861,1124.831Z" transform="translate(107.443 -1040.348)" fill="#e96514" fill-rule="evenodd"/>
    <path id="Path_733" data-name="Path 733" d="M385.648,1230.966a1.322,1.322,0,0,1,1.178.213,2.225,2.225,0,0,1,.826,2.088c-.069.82-.581,1.177-1.18,1a2.044,2.044,0,0,1-1.458-2.248C385.18,1231.717,385.325,1231.141,385.648,1230.966Z" transform="translate(-127.656 -1052.929)" fill="#e96514" fill-rule="evenodd"/>
    <path id="Path_734" data-name="Path 734" d="M86.933,1287.53h0c3.193,0,6.388.053,9.581-.011,10.814-.229,21.574.793,32.328,1.571,12.438.9,24.85,2.217,37.244,3.586,6.7.746,13.33,2.062,20.08,2.333,8.474.341,16.678,2.264,24.936,3.91,1.646.331,3.325.531,5,.713,7.372.783,14.744,1.588,22.126,2.28,3.028.282,5.052,2.247,4.954,5.145a6.805,6.805,0,0,0,.115,2.934c1.94,4.954,3.71,9.978,5.775,14.877a28.434,28.434,0,0,0,5.524,7.7,257.047,257.047,0,0,0,23.011,22.409,58.7,58.7,0,0,0,28.508,13.167,94.485,94.485,0,0,0,44.969-2.818,68.37,68.37,0,0,0,12.076-5.055,37.593,37.593,0,0,0,12.283-10.2c2.126-2.785,4.177-5.63,6.248-8.453a32.05,32.05,0,0,0,6.138-19.154c.042-5.322.209-10.611,1.656-15.792a7.144,7.144,0,0,0-.415-4.368c-.847-2.423.262-3.441,2.81-2.658,10.315,3.17,20.9,5.236,31.449,7.415,9.571,1.97,19.271,3.244,28.966,4.491a128.077,128.077,0,0,0,13.605,1.076,43.081,43.081,0,0,0,18.251-3.4,294.439,294.439,0,0,0,30.8-15.021c14.934-8.693,23.772-21.743,27.959-38.062a48.5,48.5,0,0,0,1.389-8.342c.874-11.782,1.081-23.6-1.019-35.261-1.579-8.762-5.693-16.326-13.175-21.706a84.387,84.387,0,0,0-28.252-12.975c-6.672-1.741-13.44-1.113-20.067.278-5.759,1.215-11.412,2.908-17.108,4.42-1.137.3-2.25.692-3.353,1.1-8.549,3.212-13.093,9.461-14.474,18.238a10.784,10.784,0,0,0,.88,6.28c2.15,4.879,5.771,8.549,10.07,11.59a42.274,42.274,0,0,0,13.7,6.222,12.967,12.967,0,0,0,13.005-3.361,45.117,45.117,0,0,0,7.656-9.865c.69-1.141,1.407-2.259,2.136-3.377a.48.48,0,0,1,.462-.069c.2.2.507.526.447.681-2.176,5.385-3.84,10.977-6.667,16.1a20.656,20.656,0,0,1-6.333,7.01,12.124,12.124,0,0,1-9.582,2.007c-8.522-1.539-24.215-10.989-29.466-19.792-3.25-5.445-4.546-11-2.913-17.135.255-.964.628-1.891.867-2.86,2.6-10.446,9.5-16.98,19.547-20.443a136.317,136.317,0,0,1,26.954-6.52,41.774,41.774,0,0,1,19.423,2.125,98.812,98.812,0,0,1,23.065,11.2c.834.569,1.651,1.155,2.5,1.694,1.186.74,1.782.606,2.528-.427,4.417-6.1,5.83-12.942,5.1-20.293a37.975,37.975,0,0,0-2.668-11.1c-1.029-2.449-2.123-4.879-3.113-7.351a32.186,32.186,0,0,0-15.825-16.831A63.416,63.416,0,0,0,487.494,1120a80.415,80.415,0,0,0-20.313,3.8,4.636,4.636,0,0,0-3.442,3.253c-2.768,8.689-8.737,15.228-15.133,21.435a19.734,19.734,0,0,1-4.432,3.286c-8.793,4.66-17.774,9.027-28,9.374-11.7.394-22.928-1.512-32.438-8.879a49.544,49.544,0,0,1-16.192-22.462c-2.79-7.563-1.159-14.791,3.162-21.391a48.717,48.717,0,0,1,15.918-15.069c7.967-4.788,15.851-5.113,23.51.714.135.1.282.182.42.283,2.236,1.549,4.389,3.095,4.313,6.263-.079,3.308-.911,6.237-3.621,8.389a14.947,14.947,0,0,1-2.516,1.646,1.637,1.637,0,0,1-1.379-.042c-.8-.532-.322-1.167.172-1.608a10.92,10.92,0,0,0,3.48-4.8c.747-2.424.112-3.6-2.341-4.551a21.4,21.4,0,0,0-18.524,1.264,38.042,38.042,0,0,0-14.329,13.753,13.672,13.672,0,0,0-1.057,13.768,50.367,50.367,0,0,0,11.853,16.587c3.58,3.254,8.124,4.72,12.738,5.757,11.836,2.669,23.267,1.972,34.553-3.131a44.65,44.65,0,0,0,17.84-14.148,34.451,34.451,0,0,0,6.985-18.846c.986-13.433-3-25.225-11.285-35.735-2.685-3.408-5.5-6.738-8.448-9.918-11.075-11.931-25.112-18.828-40.81-22.648-9.319-2.269-18.754-4.085-28.118-6.184a61.573,61.573,0,0,0-19.633-.746,116.966,116.966,0,0,0-11.963,1.955,35.939,35.939,0,0,0-12.553,5.093c-4.917,3.211-9.767,6.53-14.764,9.614-5.906,3.648-14.411,16.134-14.987,22.962-.267,3.207-2.074,5.928-3.07,8.907a1.316,1.316,0,0,1-2.379.361c-.529-.638-.927-1.389-1.493-1.992a25.9,25.9,0,0,0-13.205-7.75,92.419,92.419,0,0,0-36.133-1.363c-7.494,1.134-14.2,3.926-19.7,9.337a119.265,119.265,0,0,0-18,22.089c-6.949,11.213-9.982,23.469-10.41,36.47a73.8,73.8,0,0,0,2.144,19.25,142.219,142.219,0,0,0,9.414,28.336c6.861,14.627,16.86,26.745,30.844,35.427,1.569.974,3.173,1.9,4.734,2.875a65.229,65.229,0,0,0,32.421,10.014c11.236.49,22.245-.395,32.837-4.335,2.988-1.114,5.873-2.5,8.744-3.894a17.164,17.164,0,0,0,9.477-11.709c3.73-15.068,1.115-28.991-8.513-41.423a25.492,25.492,0,0,0-14.127-9.1c-6.95-1.821-13.919-2.567-20.987-.8-7.459,1.864-11.825,6.8-13.576,13.961-1.352,5.533.494,10.253,5.093,13.635a94.071,94.071,0,0,0,9.86,6.066,6.137,6.137,0,0,0,4.832.959c.617-.186.944.043.976.592a1.038,1.038,0,0,1-.394.841c-4.152,2.222-8.6,3.372-13.068,1.507a25.351,25.351,0,0,1-10.492-7.59c-4.1-5.241-5.028-11.148-3.845-17.449,2.418-12.885,12.383-21.29,25.121-22.147,18.282-1.23,32.246,6.008,41.012,21.865,7.5,13.572,8.784,28.032,4.469,42.942a25.426,25.426,0,0,1-12.181,15.261,69.041,69.041,0,0,1-20.187,7.723,85.164,85.164,0,0,1-40.057-.373,54.312,54.312,0,0,1-11.291-4.292,157.692,157.692,0,0,1-21.341-13.317,67.206,67.206,0,0,1-14.33-13.976,13.157,13.157,0,0,0-6.892-4.693A32.962,32.962,0,0,0,188,1209.79a103.528,103.528,0,0,0-22.171,4.836c-7.3,2.631-13.557,6.673-18.126,12.98a23.877,23.877,0,0,0-3.68,22.221,37.73,37.73,0,0,0,6.793,12.709c2.108,2.583,4.349,5.076,6.627,7.521a6.892,6.892,0,0,1,2.106,4.39,4.227,4.227,0,0,1-4,4.772c-.5.048-1.012.026-1.52.032-8.966.08-17.789,1.571-26.659,2.6q-15.068,1.774-30.13,3.532c-3.492.415-6.977.879-10.462,1.32C86.828,1286.98,86.88,1287.252,86.933,1287.53Z" transform="translate(-40.566 -1030.171)" fill="#f2e9e1" fill-rule="evenodd"/>
    <path id="Path_735" data-name="Path 735" d="M86.936,1292.516h0c3.193,0,6.388.053,9.577-.011,10.817-.229,21.58.793,32.331,1.571,12.438.9,24.852,2.217,37.242,3.592,6.7.74,13.335,2.056,20.085,2.327,8.469.341,16.675,2.264,24.936,3.91,1.644.331,3.323.531,4.994.713,7.372.783,14.744,1.588,22.126,2.28,3.028.282,5.052,2.247,4.954,5.145a6.808,6.808,0,0,0,.115,2.934c1.94,4.954,3.71,9.978,5.777,14.872a28.316,28.316,0,0,0,5.521,7.707,256.719,256.719,0,0,0,23.011,22.409,58.655,58.655,0,0,0,28.51,13.161,94.407,94.407,0,0,0,44.966-2.812,68.079,68.079,0,0,0,12.076-5.06,37.454,37.454,0,0,0,12.281-10.2c2.131-2.785,4.179-5.631,6.25-8.453a32.034,32.034,0,0,0,6.138-19.154c.042-5.322.209-10.611,1.656-15.792a7.162,7.162,0,0,0-.415-4.368c-.847-2.423.26-3.441,2.81-2.658,10.315,3.17,20.9,5.236,31.449,7.415,9.568,1.97,19.271,3.244,28.966,4.491a128.076,128.076,0,0,0,13.605,1.076,43.161,43.161,0,0,0,18.251-3.4,294.167,294.167,0,0,0,30.8-15.021c14.936-8.693,23.772-21.743,27.959-38.062a48.515,48.515,0,0,0,1.391-8.342c.874-11.782,1.081-23.6-1.019-35.266-1.579-8.757-5.693-16.321-13.172-21.7a84.408,84.408,0,0,0-28.257-12.975c-6.67-1.737-13.438-1.113-20.064.277-5.758,1.215-11.414,2.908-17.108,4.42-1.134.3-2.253.688-3.353,1.1a26.127,26.127,0,0,0-4.174,1.993l-4.829,3.941a23.307,23.307,0,0,0-5.473,12.3,10.8,10.8,0,0,0,.882,6.28c2.15,4.88,5.771,8.549,10.07,11.59a39.959,39.959,0,0,0,9.895,5.049c-7.39-6.344-13.987-17.187-9.378-26.914,7.4-15.622,35.769-21.348,50.961-15.271s39.725,31.464,11.868,84.121S365.1,1278.9,365.1,1278.9s.947,9.658,7.911,13.7c0,0,8.863,46.111-30.07,65.739s-99.385-19.622-95.587-69.163c0,0-30.639,6.013-65.513-4.049-33.357-9.619-32.138-88.616,31.184-59.752-1.286-1.422-2.508-2.9-3.658-4.441a13.164,13.164,0,0,0-6.894-4.693A33.036,33.036,0,0,0,188,1214.777a103.539,103.539,0,0,0-22.168,4.836c-7.3,2.631-13.557,6.673-18.129,12.975a23.884,23.884,0,0,0-3.677,22.227,37.679,37.679,0,0,0,6.793,12.709c2.111,2.583,4.349,5.081,6.627,7.521a6.892,6.892,0,0,1,2.106,4.39,4.227,4.227,0,0,1-4,4.772c-.505.048-1.012.026-1.52.032-8.966.08-17.791,1.571-26.662,2.6q-15.064,1.774-30.128,3.532c-3.492.415-6.977.879-10.464,1.32.055.272.1.544.157.822Zm295.12-180.684a43.5,43.5,0,0,0-6.24,7.819,13.672,13.672,0,0,0-1.057,13.769,50.371,50.371,0,0,0,11.853,16.592c3.58,3.249,8.124,4.715,12.738,5.752,11.836,2.669,23.267,1.972,34.553-3.131a44.64,44.64,0,0,0,17.84-14.148,34.418,34.418,0,0,0,6.981-18.845c.99-13.433-2.99-25.225-11.281-35.735q-1.031-1.309-2.081-2.593c6.693,13.47,11.694,34.136-5.228,53.168-28.178,31.7-67.417-2.61-58.078-22.647ZM495.2,1214.979c6.023,7.733,1.731,40.4-24.384,36.033-21.527-3.6-26.061-22.963-26.988-29.659,5.808,8.491,20.6,17.263,28.789,18.744a12.126,12.126,0,0,0,9.582-2.007,20.65,20.65,0,0,0,6.331-7.005c2.83-5.129,4.493-10.721,6.67-16.106Zm18.741-36.875c18.926-18.738-2.694-42.632-12.738-51.944a68.5,68.5,0,0,1,17.422,6.206,32.177,32.177,0,0,1,15.825,16.836c.99,2.467,2.083,4.9,3.115,7.346a38.129,38.129,0,0,1,2.666,11.1c.727,7.351-.687,14.189-5.1,20.293-.747,1.034-1.342,1.167-2.528.427-.852-.539-1.668-1.125-2.5-1.694a90.43,90.43,0,0,0-16.158-8.571Zm-237.924-94.545c-82.765-1.7-78.147,120.011-23.27,143.457,54.761,23.394,70.907-8.267,70.972-8.394a55.775,55.775,0,0,1-1.329,7.435,17.165,17.165,0,0,1-9.477,11.709c-2.871,1.39-5.756,2.78-8.744,3.894-10.594,3.94-21.6,4.825-32.837,4.335a65.239,65.239,0,0,1-32.421-10.014c-1.561-.98-3.162-1.9-4.732-2.875-13.986-8.683-23.985-20.8-30.844-35.427a142.116,142.116,0,0,1-9.415-28.336,73.8,73.8,0,0,1-2.144-19.25c.428-13,3.458-25.258,10.41-36.47a119.356,119.356,0,0,1,18-22.089c5.5-5.411,12.2-8.2,19.7-9.337A92.419,92.419,0,0,1,276.021,1083.559Z" transform="translate(-40.569 -1035.158)" fill="#d2b7a8" fill-rule="evenodd"/>
    <g id="Group_169" data-name="Group 169" transform="translate(0.001)">
      <g id="Group_165" data-name="Group 165">
        <g id="Group_164" data-name="Group 164">
          <path id="Path_736" data-name="Path 736" d="M78.051,1288.564a1.767,1.767,0,0,1,1-.979,112.387,112.387,0,0,1,27.735-8.061c13.179-1.911,26.423-3.36,39.644-4.969,12.395-1.507,24.8-2.951,37.188-4.491a12.137,12.137,0,0,0,5.055-1.171c-.609-.917-1.151-1.711-1.67-2.52-1.7-2.658-3.6-5.21-5.045-8-7.776-14.978-4.951-30.925,5.365-41.5a47.174,47.174,0,0,1,16.849-11.329A76.421,76.421,0,0,1,222,1200.87c5.6-.724,11.295-1.011,16.843.756.6.191,1.273.352,1.784-.271a3.2,3.2,0,0,0-.168-.954,129.3,129.3,0,0,1-9.431-24.607c-3.736-12.975-6.562-26.079-4.685-39.731,1.391-10.089,3.691-19.932,8.474-29.007a109.508,109.508,0,0,1,23.3-29.653c6.633-6.088,14.521-9.166,23.338-10.338a117.658,117.658,0,0,1,16.944-.991,40.868,40.868,0,0,1,27.064,9.885,15.511,15.511,0,0,0,1.932,1.572c.686.414,1.283.089,1.5-.666.234-.794.331-1.625.538-2.424,2.975-11.542,9.192-20.891,19.1-27.665,4.672-3.2,9.4-6.313,14.134-9.406a41.32,41.32,0,0,1,12.293-5.37,99.4,99.4,0,0,1,15.732-2.691,60.969,60.969,0,0,1,19.382,1.045c8.6,1.96,17.213,3.856,25.815,5.785a92.364,92.364,0,0,1,28.039,11.51,97.667,97.667,0,0,1,27.826,26.143,62.717,62.717,0,0,1,7.264,12.453,57.439,57.439,0,0,1,4.67,27.2c-.149,1.971.543,2.455,2.289,1.4,6.365-3.856,13.413-4.757,20.642-4.89,8.134-.154,15.8,2.093,23.345,4.773,8.336,2.967,15.158,8.245,21.312,14.434a18.218,18.218,0,0,1,2.788,3.5c6.439,10.914,10.786,22.425,10.033,35.384-.323,5.555-1.406,10.854-4.472,15.612-.538.835-.948,1.764-1.508,2.583a3.007,3.007,0,0,0,.252,4.038c5.315,6.514,7.868,14.115,8.951,22.349a142.606,142.606,0,0,1,.787,34.739,78.56,78.56,0,0,1-5.22,21.205c-6.037,14.69-16.185,25.736-30.015,33.525-9.291,5.235-18.947,9.714-28.682,14.036a49.164,49.164,0,0,1-22.4,4.09c-6.335-.271-12.587-1.225-18.863-2.04-11.732-1.529-23.332-3.724-34.85-6.381a48.136,48.136,0,0,1-13.569-4.9,6.846,6.846,0,0,0-1.663-.358c.2,1.673.338,3.138.545,4.6,1,7,.183,13.9-1.14,20.762a23.151,23.151,0,0,1-1.756,5.684c-5.371,11.063-12.288,20.879-22.85,27.729a69.239,69.239,0,0,1-16.278,7.478c-11.884,3.9-24.1,4.848-36.513,4.118a65.326,65.326,0,0,1-20.88-4.544,80.376,80.376,0,0,1-23.456-14.957q-9.851-8.829-18.816-18.578c-2.137-2.311-4.078-4.821-5.978-7.34a27.687,27.687,0,0,1-5.469-14.238c-.2-1.976-.59-3.937-.876-5.907a1.873,1.873,0,0,0-1.621-1.63,16.382,16.382,0,0,0-1.956-.383c-4.8-.554-9.59-1.082-14.388-1.625a92.19,92.19,0,0,1-9.417-1.124c-8.627-1.88-17.26-3.617-26.117-4.032-6.163-.287-12.209-1.609-18.326-2.274-12.58-1.364-25.172-2.637-37.789-3.607-10.287-.788-20.58-1.742-30.932-1.523-3.328.075-6.663.027-9.994.011a69.56,69.56,0,0,1-9.961-.672,227.446,227.446,0,0,0-27.8-2.972c-1.827-.048-3.651-.261-5.481-.346a22.652,22.652,0,0,1-6.321-1.4c-.56-.19-1.386-.383-1.226-1.2Zm51.338-2.22h0c3.153,0,6.308.053,9.462-.011,10.68-.229,21.306.8,31.926,1.571,12.283.9,24.541,2.217,36.782,3.586,6.612.746,13.164,2.062,19.83,2.333,8.368.346,16.471,2.264,24.627,3.91,1.626.324,3.284.531,4.934.713,7.281.783,14.561,1.588,21.851,2.28,2.99.282,4.989,2.247,4.892,5.145a6.887,6.887,0,0,0,.113,2.934c1.916,4.954,3.664,9.978,5.7,14.872a28.373,28.373,0,0,0,5.455,7.707,255.343,255.343,0,0,0,22.725,22.409,57.652,57.652,0,0,0,28.156,13.167,92.192,92.192,0,0,0,44.408-2.818,67.141,67.141,0,0,0,11.926-5.055,37.206,37.206,0,0,0,12.128-10.2c2.1-2.785,4.127-5.631,6.173-8.453a32.326,32.326,0,0,0,6.062-19.154c.042-5.322.207-10.611,1.635-15.792a7.227,7.227,0,0,0-.41-4.368c-.836-2.423.259-3.441,2.775-2.658,10.187,3.17,20.643,5.236,31.058,7.415,9.452,1.97,19.032,3.244,28.606,4.491a124.947,124.947,0,0,0,13.436,1.076,42,42,0,0,0,18.024-3.4,289.281,289.281,0,0,0,30.416-15.021c14.748-8.693,23.477-21.743,27.612-38.062a49.062,49.062,0,0,0,1.372-8.342c.863-11.782,1.068-23.6-1.007-35.261-1.56-8.762-5.622-16.326-13.011-21.706a82.861,82.861,0,0,0-27.9-12.975c-6.589-1.741-13.273-1.113-19.817.278-5.687,1.215-11.27,2.908-16.9,4.42-1.123.3-2.223.692-3.311,1.1-8.443,3.212-12.93,9.461-14.294,18.238a10.906,10.906,0,0,0,.869,6.28,28.215,28.215,0,0,0,9.945,11.59,41.5,41.5,0,0,0,13.527,6.222,12.7,12.7,0,0,0,12.844-3.361,45.05,45.05,0,0,0,7.561-9.865c.681-1.141,1.39-2.259,2.11-3.377a.469.469,0,0,1,.456-.069c.2.2.5.526.442.681-2.149,5.385-3.789,10.977-6.584,16.1a20.586,20.586,0,0,1-6.252,7.01,11.863,11.863,0,0,1-9.466,2.007c-8.416-1.539-23.915-10.989-29.1-19.787-3.21-5.45-4.49-11-2.877-17.141.252-.964.62-1.891.857-2.86,2.563-10.446,9.384-16.98,19.3-20.443a133.287,133.287,0,0,1,26.62-6.52,40.854,40.854,0,0,1,19.182,2.125,97.143,97.143,0,0,1,22.781,11.2c.821.569,1.628,1.155,2.469,1.694,1.172.74,1.76.606,2.5-.427,4.362-6.1,5.758-12.942,5.04-20.293a38.446,38.446,0,0,0-2.632-11.1c-1.019-2.449-2.1-4.879-3.077-7.351a32.014,32.014,0,0,0-15.629-16.831c-9.56-4.932-19.852-7.746-30.745-7.382a78.28,78.28,0,0,0-20.061,3.813,4.6,4.6,0,0,0-3.4,3.248c-2.73,8.689-8.621,15.228-14.942,21.435a19.45,19.45,0,0,1-4.377,3.286c-8.684,4.66-17.553,9.027-27.648,9.374-11.556.394-22.643-1.512-32.036-8.879a49.527,49.527,0,0,1-15.991-22.462c-2.756-7.563-1.145-14.791,3.123-21.391a48.372,48.372,0,0,1,15.72-15.069c7.868-4.788,15.654-5.113,23.218.714.133.1.278.182.415.283,2.208,1.55,4.334,3.095,4.26,6.263-.078,3.308-.9,6.237-3.576,8.389a14.737,14.737,0,0,1-2.485,1.646,1.6,1.6,0,0,1-1.362-.042c-.787-.532-.318-1.167.17-1.609a10.914,10.914,0,0,0,3.437-4.8c.741-2.424.111-3.6-2.312-4.551a20.906,20.906,0,0,0-18.294,1.264,37.76,37.76,0,0,0-14.151,13.753,13.812,13.812,0,0,0-1.043,13.769,50.323,50.323,0,0,0,11.706,16.586c3.535,3.254,8.023,4.72,12.58,5.757,11.689,2.669,22.978,1.972,34.124-3.131a44.219,44.219,0,0,0,17.621-14.148,34.731,34.731,0,0,0,6.9-18.846c.974-13.433-2.956-25.225-11.144-35.735-2.652-3.408-5.427-6.737-8.343-9.918-10.937-11.931-24.8-18.828-40.3-22.648-9.205-2.269-18.521-4.085-27.769-6.179a59.913,59.913,0,0,0-19.389-.751,114.16,114.16,0,0,0-11.815,1.955,35.3,35.3,0,0,0-12.4,5.093c-4.856,3.211-9.644,6.53-14.578,9.614-5.832,3.648-14.233,16.134-14.8,22.962-.264,3.207-2.048,5.928-3.032,8.907a1.3,1.3,0,0,1-2.349.367c-.523-.643-.915-1.394-1.475-2a25.513,25.513,0,0,0-13.041-7.75,90.164,90.164,0,0,0-35.684-1.363c-7.4,1.134-14.02,3.926-19.452,9.337a118.976,118.976,0,0,0-17.779,22.089c-6.863,11.212-9.858,23.468-10.281,36.47a74.681,74.681,0,0,0,2.117,19.25,143.467,143.467,0,0,0,9.3,28.336c6.776,14.627,16.65,26.745,30.46,35.427,1.55.974,3.134,1.9,4.675,2.875a63.854,63.854,0,0,0,32.018,10.014c11.1.49,21.969-.395,32.429-4.335,2.951-1.114,5.8-2.5,8.635-3.894a17.123,17.123,0,0,0,9.36-11.709c3.684-15.068,1.1-29-8.408-41.423a25.139,25.139,0,0,0-13.952-9.1c-6.864-1.821-13.747-2.567-20.726-.8-7.366,1.864-11.678,6.8-13.408,13.961-1.335,5.533.488,10.253,5.03,13.635a92.455,92.455,0,0,0,9.738,6.066,6.023,6.023,0,0,0,4.772.964c.609-.191.932.038.964.587a1.051,1.051,0,0,1-.39.841c-4.1,2.222-8.494,3.372-12.906,1.507a25.028,25.028,0,0,1-10.359-7.59c-4.048-5.241-4.968-11.148-3.8-17.449,2.388-12.884,12.226-21.29,24.809-22.147,18.052-1.225,31.845,6.008,40.5,21.865,7.406,13.572,8.675,28.032,4.413,42.942A25.371,25.371,0,0,1,356.173,1239a67.672,67.672,0,0,1-19.937,7.723,83.083,83.083,0,0,1-39.557-.373,53.2,53.2,0,0,1-11.153-4.292,155.436,155.436,0,0,1-21.076-13.317,66.7,66.7,0,0,1-14.149-13.976,13.006,13.006,0,0,0-6.809-4.693A32.171,32.171,0,0,0,229.2,1208.6a101.154,101.154,0,0,0-21.9,4.836c-7.206,2.631-13.389,6.673-17.9,12.981a24.117,24.117,0,0,0-3.634,22.221,37.847,37.847,0,0,0,6.711,12.709c2.082,2.583,4.292,5.076,6.543,7.521a6.927,6.927,0,0,1,2.08,4.39,4.212,4.212,0,0,1-3.947,4.772c-.5.048-1,.026-1.5.032-8.854.08-17.568,1.571-26.328,2.6q-14.881,1.774-29.756,3.532c-3.449.415-6.891.879-10.332,1.32C129.285,1285.795,129.335,1286.066,129.389,1286.344Z" transform="translate(-78.031 -1028.985)" fill="#d2b7a8" fill-rule="evenodd"/>
        </g>
      </g>
    </g>
  </g>
</svg>
