<svg xmlns="http://www.w3.org/2000/svg" width="170.672" height="203.186" viewBox="0 0 170.672 203.186">
  <g id="Group_428" data-name="Group 428" transform="translate(-706.029 -125.514)">
    <path id="Path_3469" data-name="Path 3469" d="M873.728,128.338l3.312-.066.766,23.95a2.5,2.5,0,0,1,.021.317,3.105,3.105,0,0,1-3.326,2.823H766.229a3.072,3.072,0,0,1-3.234-2.9h.012l.765-23.961q-.005-.082-.005-.163a3.1,3.1,0,0,1,3.325-2.824H873.713a3.126,3.126,0,0,1,3.339,2.747Z" transform="translate(-29.045 0)" fill="#b7804d"/>
    <path id="Path_3470" data-name="Path 3470" d="M727.454,151.745l18.671-23.981,6.077,28.744-20.293-1.354Z" transform="translate(-10.924 -1.147)" fill="#805e3e"/>
    <path id="Path_3471" data-name="Path 3471" d="M966.237,155.154l-21.25-1.443,7.034-25.947,18.671,23.981Z" transform="translate(-104.492 -1.147)" fill="#805e3e"/>
    <path id="Path_3472" data-name="Path 3472" d="M876.676,350.23,865.663,177.918l.005-.01a3.18,3.18,0,0,0-3.136-3.017H720.2a3.187,3.187,0,0,0-3.143,3.216L707.6,326.048l-1.558,24.388h-.006a3.2,3.2,0,0,0,2.93,3.434c.069,0,.138.007.206.007H873.559a3.187,3.187,0,0,0,3.143-3.23A3.382,3.382,0,0,0,876.676,350.23Z" transform="translate(0 -25.176)" fill="#eab685" fill-rule="evenodd"/>
    <circle id="Ellipse_46" data-name="Ellipse 46" cx="5.628" cy="5.628" r="5.628" transform="translate(747.215 183.672)" fill="#805e3e"/>
    <path id="Path_3473" data-name="Path 3473" d="M926.634,241.515a5.628,5.628,0,1,0-5.628-5.628A5.639,5.639,0,0,0,926.634,241.515Z" transform="translate(-96.746 -46.587)" fill="#805e3e" fill-rule="evenodd"/>
    <path id="Path_3474" data-name="Path 3474" d="M860.946,239.584v18.348a37.255,37.255,0,0,1-37.154,37.153h0a37.255,37.255,0,0,1-37.154-37.153V239.584c2.086-3.06,3.928-2.455,5.646,0v18.348a31.608,31.608,0,0,0,31.508,31.507h0A31.608,31.608,0,0,0,855.3,257.932V239.584C856.943,236.892,858.813,236.762,860.946,239.584Z" transform="translate(-32.427 -47.068)" fill="#805e3e"/>
  </g>
</svg>
