<svg xmlns="http://www.w3.org/2000/svg" width="311.929" height="316.786" viewBox="0 0 311.929 316.786">
  <g id="紅線" transform="translate(-7.628 127.532) rotate(-30)">
    <g id="Group_410" data-name="Group 410" transform="translate(0 1.184)" opacity="0.2" style="mix-blend-mode: multiply;isolation: isolate">
      <path id="Path_3432" data-name="Path 3432" d="M3.273,198.587c-10.706-19.228,4.581-53.132,49.79-50.4,28.693,1.733,56.681,16.983,85.392,10.973,21.292-4.456,31.54-19.4,30.178-32.929-1.868-18.562-24.938-31.576-43.043-47.96-58.712-53.137,3.784-98.446,37.583-68.955C171.36,16.46,173,24.9,171.755,38.76A29.183,29.183,0,0,1,194.5,13.267c27.9-5.534,48.012,28.907,21.76,57.861-20.94,23.1-57.793,28.13-73.894,55.655-24.816,42.423,22.349,75.416,60.43,59.464,31.606-13.241,34.107-45.34,24.559-60.864-12.788-20.794-46.486-15.872-47.192,8.571-.5,17.429,17.3,20.479,21.783,11.382,2.522-5.116-2.5-12.467-8.01-11" transform="translate(0 16.828)" fill="none" stroke="#fff" stroke-linecap="round" stroke-linejoin="round" stroke-width="1.988"/>
      <path id="Path_3433" data-name="Path 3433" d="M3.274,198.586c-10.706-19.228,4.58-53.131,49.789-50.4,28.693,1.734,56.682,16.983,85.392,10.974,21.292-4.456,31.54-19.4,30.178-32.93-1.868-18.561-24.937-31.574-43.042-47.96-58.713-53.137,3.783-98.445,37.582-68.954,8.186,7.143,9.829,15.587,8.58,29.442A29.182,29.182,0,0,1,194.5,13.267c27.9-5.535,48.012,28.907,21.761,57.86-20.942,23.1-57.794,28.131-73.9,55.657-24.816,42.423,22.35,75.416,60.43,59.462,31.606-13.24,34.107-45.339,24.56-60.863-12.789-20.794-46.486-15.872-47.192,8.571-.5,17.429,17.3,20.479,21.783,11.381,2.521-5.115-2.5-12.466-8.011-11" transform="translate(0.543 16.285)" fill="none" stroke="#fff8f8" stroke-linecap="round" stroke-linejoin="round" stroke-width="1.988"/>
      <path id="Path_3434" data-name="Path 3434" d="M3.273,198.586c-10.706-19.228,4.581-53.132,49.79-50.4,28.693,1.734,56.681,16.983,85.392,10.974,21.292-4.457,31.54-19.4,30.178-32.93-1.868-18.56-24.938-31.574-43.043-47.96-58.712-53.137,3.784-98.446,37.582-68.954,8.186,7.142,9.83,15.587,8.58,29.442A29.187,29.187,0,0,1,194.5,13.266c27.9-5.534,48.013,28.907,21.761,57.861-20.94,23.1-57.794,28.13-73.9,55.657-24.815,42.423,22.35,75.414,60.431,59.462,31.606-13.241,34.106-45.34,24.559-60.864-12.789-20.794-46.486-15.873-47.192,8.571-.5,17.429,17.3,20.48,21.783,11.382,2.521-5.116-2.5-12.467-8.011-11" transform="translate(1.086 15.742)" fill="none" stroke="#fff2f1" stroke-linecap="round" stroke-linejoin="round" stroke-width="1.988"/>
      <path id="Path_3435" data-name="Path 3435" d="M3.274,198.587c-10.707-19.228,4.58-53.132,49.789-50.4,28.693,1.734,56.682,16.985,85.392,10.974,21.292-4.456,31.54-19.4,30.178-32.93-1.868-18.561-24.938-31.574-43.042-47.96-58.713-53.136,3.783-98.445,37.582-68.954,8.186,7.143,9.829,15.587,8.58,29.442A29.182,29.182,0,0,1,194.5,13.267c27.9-5.535,48.012,28.907,21.76,57.861-20.94,23.1-57.793,28.13-73.894,55.655-24.816,42.423,22.349,75.416,60.43,59.462,31.606-13.24,34.107-45.339,24.559-60.863-12.788-20.794-46.486-15.873-47.192,8.571-.5,17.429,17.3,20.479,21.784,11.382,2.521-5.116-2.5-12.467-8.011-11" transform="translate(1.629 15.199)" fill="none" stroke="#ffebea" stroke-linecap="round" stroke-linejoin="round" stroke-width="1.988"/>
      <path id="Path_3436" data-name="Path 3436" d="M3.273,198.586c-10.706-19.228,4.581-53.131,49.789-50.4,28.694,1.734,56.682,16.983,85.392,10.974,21.292-4.457,31.54-19.4,30.179-32.93-1.869-18.561-24.938-31.574-43.043-47.96-58.712-53.137,3.783-98.445,37.582-68.954,8.186,7.142,9.83,15.587,8.58,29.442A29.184,29.184,0,0,1,194.5,13.266c27.9-5.534,48.012,28.907,21.761,57.861-20.942,23.1-57.794,28.13-73.9,55.657-24.815,42.423,22.35,75.415,60.43,59.462,31.607-13.24,34.107-45.34,24.56-60.863-12.789-20.794-46.486-15.874-47.192,8.571-.5,17.429,17.3,20.479,21.783,11.381,2.521-5.115-2.5-12.466-8.011-11" transform="translate(2.172 14.657)" fill="none" stroke="#ffe4e4" stroke-linecap="round" stroke-linejoin="round" stroke-width="1.988"/>
      <path id="Path_3437" data-name="Path 3437" d="M3.273,198.587c-10.706-19.228,4.581-53.132,49.79-50.4,28.693,1.733,56.681,16.983,85.392,10.974,21.292-4.457,31.54-19.4,30.178-32.93-1.868-18.562-24.938-31.576-43.043-47.96-58.712-53.137,3.784-98.446,37.583-68.955C171.36,16.46,173,24.9,171.755,38.76A29.183,29.183,0,0,1,194.5,13.267c27.9-5.534,48.012,28.907,21.76,57.861-20.94,23.1-57.793,28.13-73.894,55.655-24.816,42.423,22.349,75.416,60.43,59.464,31.606-13.241,34.107-45.34,24.559-60.864-12.787-20.794-46.486-15.873-47.192,8.571-.5,17.429,17.3,20.479,21.783,11.382,2.522-5.116-2.5-12.467-8.01-11" transform="translate(2.714 14.113)" fill="none" stroke="#fdd" stroke-linecap="round" stroke-linejoin="round" stroke-width="1.988"/>
      <path id="Path_3438" data-name="Path 3438" d="M3.274,198.586c-10.706-19.228,4.58-53.131,49.789-50.4,28.693,1.734,56.682,16.983,85.392,10.974,21.292-4.456,31.54-19.4,30.178-32.93-1.868-18.561-24.937-31.574-43.042-47.96-58.713-53.137,3.783-98.445,37.582-68.954,8.186,7.143,9.829,15.587,8.58,29.442A29.182,29.182,0,0,1,194.5,13.267c27.9-5.535,48.012,28.907,21.761,57.86-20.942,23.1-57.794,28.131-73.9,55.657-24.816,42.423,22.35,75.416,60.43,59.462,31.606-13.24,34.107-45.339,24.56-60.863-12.789-20.794-46.486-15.872-47.192,8.571-.5,17.429,17.3,20.479,21.783,11.381,2.521-5.115-2.5-12.466-8.011-11" transform="translate(3.258 13.571)" fill="none" stroke="#ffd7d6" stroke-linecap="round" stroke-linejoin="round" stroke-width="1.988"/>
      <path id="Path_3439" data-name="Path 3439" d="M3.273,198.587c-10.706-19.228,4.581-53.132,49.79-50.4,28.693,1.734,56.681,16.983,85.392,10.974,21.292-4.457,31.54-19.4,30.178-32.93-1.868-18.561-24.938-31.574-43.043-47.96-58.712-53.137,3.784-98.446,37.582-68.954,8.186,7.142,9.83,15.587,8.58,29.442A29.187,29.187,0,0,1,194.5,13.266c27.9-5.534,48.013,28.907,21.761,57.861-20.94,23.1-57.794,28.13-73.9,55.657-24.814,42.423,22.35,75.415,60.431,59.462,31.606-13.241,34.106-45.34,24.559-60.864-12.789-20.794-46.486-15.872-47.192,8.571-.5,17.429,17.3,20.48,21.783,11.382,2.521-5.116-2.5-12.467-8.011-11" transform="translate(3.8 13.028)" fill="none" stroke="#ffd0cf" stroke-linecap="round" stroke-linejoin="round" stroke-width="1.988"/>
      <path id="Path_3440" data-name="Path 3440" d="M3.274,198.587c-10.707-19.228,4.58-53.132,49.789-50.4,28.693,1.734,56.682,16.985,85.392,10.974,21.292-4.456,31.54-19.4,30.178-32.93-1.868-18.561-24.938-31.574-43.042-47.96-58.713-53.136,3.783-98.445,37.582-68.954,8.186,7.143,9.829,15.587,8.58,29.442A29.182,29.182,0,0,1,194.5,13.267c27.9-5.535,48.012,28.907,21.76,57.861-20.94,23.1-57.793,28.13-73.894,55.655-24.816,42.423,22.349,75.416,60.43,59.462,31.606-13.24,34.107-45.339,24.559-60.863-12.788-20.794-46.486-15.872-47.192,8.571-.5,17.429,17.3,20.479,21.784,11.382,2.521-5.116-2.5-12.467-8.011-11" transform="translate(4.343 12.485)" fill="none" stroke="#ffc9c8" stroke-linecap="round" stroke-linejoin="round" stroke-width="1.988"/>
      <path id="Path_3441" data-name="Path 3441" d="M3.273,198.586c-10.706-19.228,4.581-53.131,49.789-50.4,28.694,1.734,56.682,16.983,85.392,10.974,21.292-4.457,31.54-19.4,30.178-32.93-1.868-18.561-24.937-31.574-43.042-47.96-58.712-53.137,3.783-98.445,37.582-68.954,8.186,7.142,9.83,15.587,8.58,29.442A29.184,29.184,0,0,1,194.5,13.266c27.9-5.534,48.012,28.907,21.761,57.861-20.942,23.1-57.794,28.13-73.9,55.657-24.814,42.423,22.35,75.415,60.43,59.462,31.607-13.24,34.107-45.34,24.56-60.863-12.789-20.794-46.486-15.874-47.192,8.571-.5,17.429,17.3,20.479,21.783,11.381,2.521-5.115-2.5-12.466-8.011-11" transform="translate(4.886 11.943)" fill="none" stroke="#ffc2c1" stroke-linecap="round" stroke-linejoin="round" stroke-width="1.988"/>
      <path id="Path_3442" data-name="Path 3442" d="M3.273,198.587c-10.706-19.228,4.581-53.132,49.79-50.4,28.693,1.733,56.681,16.983,85.392,10.974,21.292-4.457,31.54-19.4,30.178-32.93-1.868-18.562-24.938-31.576-43.043-47.96-58.712-53.137,3.784-98.446,37.583-68.955C171.36,16.46,173,24.9,171.755,38.76A29.183,29.183,0,0,1,194.5,13.267c27.9-5.534,48.012,28.907,21.76,57.861-20.94,23.1-57.793,28.13-73.894,55.656-24.816,42.423,22.349,75.416,60.43,59.464,31.606-13.241,34.107-45.34,24.559-60.864-12.788-20.794-46.486-15.872-47.192,8.571-.5,17.429,17.3,20.479,21.783,11.382,2.522-5.116-2.5-12.467-8.01-11" transform="translate(5.428 11.399)" fill="none" stroke="#ffbcba" stroke-linecap="round" stroke-linejoin="round" stroke-width="1.988"/>
      <path id="Path_3443" data-name="Path 3443" d="M3.274,198.586c-10.706-19.228,4.58-53.131,49.789-50.4,28.693,1.734,56.682,16.983,85.392,10.974,21.292-4.456,31.54-19.4,30.178-32.93-1.868-18.561-24.937-31.574-43.042-47.96-58.713-53.137,3.783-98.445,37.582-68.954,8.186,7.143,9.829,15.587,8.58,29.442A29.182,29.182,0,0,1,194.5,13.267c27.9-5.535,48.012,28.907,21.761,57.86-20.942,23.1-57.794,28.131-73.9,55.657-24.816,42.423,22.35,75.416,60.43,59.462,31.606-13.24,34.107-45.339,24.56-60.863-12.789-20.794-46.486-15.873-47.192,8.571-.5,17.429,17.3,20.479,21.783,11.381,2.521-5.115-2.5-12.466-8.011-11" transform="translate(5.972 10.857)" fill="none" stroke="#ffb5b3" stroke-linecap="round" stroke-linejoin="round" stroke-width="1.988"/>
      <path id="Path_3444" data-name="Path 3444" d="M3.273,198.587c-10.706-19.228,4.581-53.132,49.789-50.4,28.694,1.734,56.682,16.983,85.394,10.974,21.291-4.457,31.54-19.4,30.178-32.93-1.869-18.56-24.938-31.574-43.043-47.96-58.712-53.137,3.783-98.446,37.582-68.954,8.186,7.142,9.83,15.587,8.58,29.442A29.186,29.186,0,0,1,194.5,13.266c27.9-5.534,48.013,28.907,21.761,57.861-20.942,23.1-57.794,28.13-73.9,55.657-24.814,42.423,22.35,75.415,60.43,59.462,31.607-13.241,34.107-45.34,24.56-60.864-12.789-20.794-46.486-15.873-47.192,8.571-.5,17.429,17.3,20.48,21.783,11.382,2.521-5.116-2.5-12.467-8.011-11" transform="translate(6.514 10.314)" fill="none" stroke="#ffaead" stroke-linecap="round" stroke-linejoin="round" stroke-width="1.988"/>
      <path id="Path_3445" data-name="Path 3445" d="M3.273,198.587c-10.706-19.228,4.581-53.132,49.79-50.4,28.693,1.734,56.682,16.985,85.392,10.974,21.292-4.456,31.54-19.4,30.178-32.93-1.868-18.561-24.938-31.574-43.043-47.96-58.712-53.136,3.784-98.445,37.583-68.954C171.36,16.46,173,24.9,171.755,38.759A29.182,29.182,0,0,1,194.5,13.267c27.9-5.535,48.012,28.907,21.76,57.861-20.94,23.1-57.793,28.13-73.894,55.656-24.816,42.423,22.349,75.416,60.43,59.462,31.606-13.24,34.107-45.339,24.559-60.863-12.788-20.794-46.486-15.872-47.192,8.571-.5,17.429,17.3,20.479,21.783,11.382,2.522-5.116-2.5-12.467-8.01-11" transform="translate(7.057 9.771)" fill="none" stroke="#ffa7a6" stroke-linecap="round" stroke-linejoin="round" stroke-width="1.988"/>
      <path id="Path_3446" data-name="Path 3446" d="M3.273,198.586c-10.706-19.228,4.581-53.131,49.789-50.4,28.694,1.734,56.682,16.983,85.392,10.974,21.292-4.457,31.54-19.4,30.178-32.93-1.868-18.561-24.937-31.574-43.042-47.96-58.712-53.137,3.783-98.445,37.582-68.954,8.186,7.142,9.829,15.587,8.58,29.442A29.184,29.184,0,0,1,194.5,13.266c27.9-5.534,48.012,28.907,21.761,57.861-20.942,23.1-57.794,28.13-73.9,55.657-24.816,42.423,22.35,75.415,60.43,59.462,31.606-13.24,34.107-45.34,24.56-60.863-12.789-20.794-46.486-15.874-47.192,8.571-.5,17.429,17.3,20.479,21.783,11.381,2.521-5.115-2.5-12.466-8.011-11" transform="translate(7.6 9.228)" fill="none" stroke="#ffa19f" stroke-linecap="round" stroke-linejoin="round" stroke-width="1.988"/>
      <path id="Path_3447" data-name="Path 3447" d="M3.273,198.587c-10.706-19.228,4.581-53.132,49.79-50.4,28.693,1.734,56.681,16.983,85.392,10.974,21.292-4.457,31.54-19.4,30.178-32.93-1.868-18.562-24.938-31.576-43.043-47.96-58.712-53.137,3.784-98.446,37.582-68.955C171.36,16.46,173,24.9,171.753,38.76A29.186,29.186,0,0,1,194.5,13.267c27.9-5.534,48.013,28.907,21.761,57.861-20.94,23.1-57.794,28.13-73.894,55.656-24.816,42.423,22.349,75.416,60.43,59.464,31.606-13.241,34.106-45.34,24.559-60.864-12.788-20.794-46.486-15.872-47.192,8.571-.5,17.429,17.3,20.479,21.783,11.382,2.521-5.116-2.5-12.467-8.011-11" transform="translate(8.143 8.685)" fill="none" stroke="#ff9a98" stroke-linecap="round" stroke-linejoin="round" stroke-width="1.988"/>
      <path id="Path_3448" data-name="Path 3448" d="M3.274,198.586c-10.706-19.227,4.58-53.131,49.789-50.4,28.693,1.734,56.682,16.985,85.392,10.974,21.292-4.456,31.54-19.4,30.178-32.93-1.868-18.56-24.937-31.574-43.042-47.96-58.713-53.136,3.783-98.445,37.582-68.954,8.186,7.143,9.829,15.587,8.58,29.442A29.182,29.182,0,0,1,194.5,13.267c27.9-5.535,48.012,28.907,21.76,57.861-20.94,23.1-57.793,28.13-73.894,55.656-24.816,42.423,22.349,75.416,60.43,59.462,31.606-13.24,34.107-45.339,24.559-60.863-12.788-20.794-46.486-15.872-47.192,8.571-.5,17.429,17.3,20.479,21.784,11.381,2.521-5.115-2.5-12.466-8.011-11" transform="translate(8.686 8.143)" fill="none" stroke="#ff9391" stroke-linecap="round" stroke-linejoin="round" stroke-width="1.988"/>
      <path id="Path_3449" data-name="Path 3449" d="M3.273,198.586c-10.706-19.228,4.581-53.131,49.789-50.4,28.694,1.734,56.682,16.983,85.394,10.974,21.291-4.457,31.54-19.4,30.178-32.93-1.869-18.561-24.938-31.574-43.043-47.96-58.712-53.137,3.783-98.445,37.582-68.954,8.186,7.142,9.83,15.587,8.58,29.442A29.186,29.186,0,0,1,194.5,13.266c27.9-5.534,48.013,28.907,21.761,57.861-20.942,23.1-57.794,28.13-73.9,55.657-24.814,42.423,22.35,75.415,60.43,59.462,31.607-13.24,34.107-45.34,24.56-60.864-12.789-20.794-46.486-15.873-47.192,8.572-.5,17.429,17.3,20.479,21.783,11.381,2.521-5.116-2.5-12.466-8.011-11" transform="translate(9.229 7.6)" fill="none" stroke="#ff8c8a" stroke-linecap="round" stroke-linejoin="round" stroke-width="1.988"/>
      <path id="Path_3450" data-name="Path 3450" d="M3.273,198.587c-10.706-19.228,4.581-53.132,49.79-50.4,28.693,1.733,56.682,16.983,85.392,10.973,21.292-4.456,31.54-19.4,30.178-32.929-1.868-18.562-24.938-31.576-43.043-47.96-58.712-53.137,3.784-98.446,37.583-68.955C171.36,16.46,173,24.9,171.755,38.759A29.182,29.182,0,0,1,194.5,13.267c27.9-5.535,48.012,28.907,21.76,57.861-20.94,23.1-57.793,28.13-73.894,55.656-24.816,42.423,22.349,75.416,60.43,59.464,31.606-13.241,34.107-45.34,24.559-60.865-12.788-20.794-46.486-15.872-47.192,8.571-.5,17.429,17.3,20.479,21.783,11.382,2.522-5.116-2.5-12.467-8.01-11" transform="translate(9.771 7.057)" fill="none" stroke="#ff8683" stroke-linecap="round" stroke-linejoin="round" stroke-width="1.988"/>
      <path id="Path_3451" data-name="Path 3451" d="M3.273,198.586c-10.706-19.228,4.581-53.131,49.789-50.4,28.694,1.734,56.682,16.983,85.392,10.974,21.292-4.457,31.54-19.4,30.178-32.93-1.868-18.561-24.937-31.574-43.042-47.96-58.712-53.137,3.783-98.445,37.582-68.954,8.186,7.142,9.829,15.587,8.58,29.442A29.184,29.184,0,0,1,194.5,13.266c27.9-5.534,48.012,28.908,21.761,57.861-20.942,23.1-57.794,28.13-73.9,55.657-24.816,42.423,22.35,75.416,60.43,59.462,31.606-13.24,34.107-45.339,24.56-60.863-12.789-20.794-46.486-15.874-47.192,8.571-.5,17.429,17.3,20.479,21.783,11.381,2.521-5.115-2.5-12.466-8.011-11" transform="translate(10.314 6.514)" fill="none" stroke="#ff7f7c" stroke-linecap="round" stroke-linejoin="round" stroke-width="1.988"/>
      <path id="Path_3452" data-name="Path 3452" d="M3.273,198.587c-10.706-19.228,4.581-53.132,49.79-50.4,28.693,1.734,56.681,16.983,85.392,10.974,21.292-4.457,31.54-19.4,30.178-32.93-1.868-18.561-24.938-31.574-43.043-47.96-58.712-53.137,3.784-98.446,37.582-68.955,8.186,7.143,9.83,15.588,8.58,29.444A29.186,29.186,0,0,1,194.5,13.267c27.9-5.534,48.013,28.907,21.761,57.861-20.94,23.1-57.794,28.13-73.894,55.655-24.816,42.423,22.349,75.416,60.43,59.464,31.606-13.241,34.106-45.34,24.559-60.864-12.788-20.794-46.486-15.872-47.192,8.571-.5,17.429,17.3,20.479,21.783,11.382,2.521-5.116-2.5-12.467-8.011-11" transform="translate(10.857 5.971)" fill="none" stroke="#ff7876" stroke-linecap="round" stroke-linejoin="round" stroke-width="1.988"/>
      <path id="Path_3453" data-name="Path 3453" d="M3.274,198.587c-10.707-19.228,4.58-53.132,49.789-50.4,28.693,1.734,56.682,16.985,85.392,10.974,21.292-4.456,31.54-19.4,30.178-32.93-1.868-18.561-24.937-31.574-43.042-47.96-58.713-53.136,3.783-98.445,37.582-68.954,8.186,7.143,9.829,15.587,8.58,29.442A29.182,29.182,0,0,1,194.5,13.267c27.9-5.535,48.012,28.907,21.76,57.861-20.94,23.1-57.793,28.13-73.894,55.655-24.816,42.423,22.349,75.416,60.43,59.462,31.606-13.24,34.107-45.339,24.559-60.863-12.788-20.794-46.486-15.872-47.192,8.571-.5,17.429,17.3,20.479,21.784,11.381,2.521-5.115-2.5-12.466-8.011-11" transform="translate(11.4 5.428)" fill="none" stroke="#ff716f" stroke-linecap="round" stroke-linejoin="round" stroke-width="1.988"/>
      <path id="Path_3454" data-name="Path 3454" d="M3.273,198.586c-10.706-19.228,4.581-53.131,49.789-50.4,28.694,1.734,56.682,16.983,85.394,10.974,21.291-4.457,31.54-19.4,30.178-32.93-1.869-18.561-24.938-31.574-43.043-47.96-58.712-53.137,3.783-98.445,37.582-68.954,8.186,7.142,9.83,15.587,8.58,29.442A29.184,29.184,0,0,1,194.5,13.266c27.9-5.534,48.013,28.907,21.761,57.861-20.942,23.1-57.794,28.13-73.9,55.657-24.814,42.423,22.35,75.414,60.43,59.462,31.607-13.24,34.107-45.34,24.56-60.865-12.789-20.794-46.486-15.872-47.192,8.572-.5,17.429,17.3,20.479,21.783,11.381,2.521-5.116-2.5-12.466-8.011-11" transform="translate(11.943 4.886)" fill="none" stroke="#ff6b68" stroke-linecap="round" stroke-linejoin="round" stroke-width="1.988"/>
      <path id="Path_3455" data-name="Path 3455" d="M3.273,198.587c-10.706-19.228,4.581-53.132,49.79-50.4,28.693,1.733,56.682,16.983,85.392,10.973,21.292-4.456,31.54-19.4,30.178-32.929-1.868-18.562-24.938-31.576-43.043-47.96-58.712-53.137,3.784-98.446,37.583-68.955C171.36,16.46,173,24.9,171.755,38.759A29.182,29.182,0,0,1,194.5,13.267c27.9-5.535,48.012,28.907,21.76,57.861-20.94,23.1-57.793,28.13-73.894,55.655-24.816,42.423,22.349,75.416,60.43,59.464,31.606-13.241,34.107-45.34,24.559-60.864-12.788-20.794-46.486-15.872-47.192,8.571-.5,17.429,17.3,20.479,21.783,11.382,2.522-5.116-2.5-12.467-8.01-11" transform="translate(12.485 4.343)" fill="none" stroke="#ff6461" stroke-linecap="round" stroke-linejoin="round" stroke-width="1.988"/>
      <path id="Path_3456" data-name="Path 3456" d="M3.273,198.586c-10.706-19.228,4.581-53.131,49.789-50.4,28.694,1.734,56.682,16.983,85.392,10.974,21.292-4.456,31.54-19.4,30.178-32.93-1.868-18.561-24.937-31.574-43.042-47.96-58.712-53.137,3.783-98.445,37.582-68.954,8.186,7.142,9.829,15.587,8.58,29.442A29.182,29.182,0,0,1,194.5,13.267c27.9-5.535,48.012,28.907,21.761,57.86-20.942,23.1-57.794,28.13-73.9,55.657-24.816,42.423,22.35,75.416,60.43,59.462,31.606-13.24,34.107-45.339,24.56-60.863-12.789-20.794-46.486-15.872-47.192,8.571-.5,17.429,17.3,20.479,21.783,11.381,2.521-5.115-2.5-12.466-8.011-11" transform="translate(13.029 3.8)" fill="none" stroke="#ff5d5a" stroke-linecap="round" stroke-linejoin="round" stroke-width="1.988"/>
      <path id="Path_3457" data-name="Path 3457" d="M3.273,198.587c-10.706-19.228,4.581-53.132,49.79-50.4,28.693,1.734,56.681,16.983,85.392,10.974,21.292-4.457,31.54-19.4,30.178-32.93-1.868-18.56-24.938-31.574-43.043-47.96-58.712-53.137,3.784-98.446,37.582-68.955,8.186,7.143,9.83,15.588,8.58,29.444A29.186,29.186,0,0,1,194.5,13.267c27.9-5.534,48.013,28.907,21.761,57.861-20.94,23.1-57.794,28.13-73.894,55.656-24.816,42.423,22.349,75.416,60.43,59.464,31.606-13.241,34.106-45.34,24.559-60.864-12.788-20.794-46.486-15.873-47.192,8.571-.5,17.429,17.3,20.479,21.783,11.382,2.521-5.116-2.5-12.467-8.011-11" transform="translate(13.571 3.257)" fill="none" stroke="#ff5653" stroke-linecap="round" stroke-linejoin="round" stroke-width="1.988"/>
      <path id="Path_3458" data-name="Path 3458" d="M3.274,198.587c-10.707-19.228,4.58-53.132,49.789-50.4,28.693,1.734,56.682,16.985,85.392,10.974,21.292-4.456,31.54-19.4,30.178-32.93-1.868-18.561-24.937-31.574-43.042-47.96-58.713-53.136,3.783-98.445,37.582-68.954,8.186,7.143,9.829,15.587,8.58,29.442A29.182,29.182,0,0,1,194.5,13.267c27.9-5.535,48.012,28.907,21.76,57.861-20.94,23.1-57.793,28.13-73.894,55.655-24.816,42.423,22.349,75.416,60.43,59.462,31.606-13.24,34.107-45.339,24.559-60.863-12.788-20.794-46.486-15.872-47.192,8.571-.5,17.429,17.3,20.479,21.784,11.381,2.521-5.115-2.5-12.466-8.011-11" transform="translate(14.114 2.714)" fill="none" stroke="#ff504c" stroke-linecap="round" stroke-linejoin="round" stroke-width="1.988"/>
      <path id="Path_3459" data-name="Path 3459" d="M3.273,198.586c-10.706-19.228,4.581-53.131,49.789-50.4,28.694,1.734,56.682,16.983,85.394,10.974,21.291-4.457,31.54-19.4,30.178-32.93-1.869-18.561-24.938-31.574-43.043-47.96-58.712-53.137,3.783-98.445,37.582-68.954,8.186,7.142,9.83,15.587,8.58,29.442A29.184,29.184,0,0,1,194.5,13.266c27.9-5.534,48.013,28.907,21.761,57.861-20.942,23.1-57.794,28.13-73.9,55.657-24.814,42.423,22.35,75.414,60.43,59.462,31.607-13.24,34.107-45.34,24.56-60.864-12.789-20.794-46.486-15.873-47.192,8.572-.5,17.429,17.3,20.479,21.783,11.381,2.521-5.116-2.5-12.466-8.011-11" transform="translate(14.657 2.172)" fill="none" stroke="#ff4945" stroke-linecap="round" stroke-linejoin="round" stroke-width="1.988"/>
      <path id="Path_3460" data-name="Path 3460" d="M3.273,198.587c-10.706-19.228,4.581-53.132,49.79-50.4,28.693,1.733,56.681,16.983,85.392,10.973,21.292-4.456,31.54-19.4,30.178-32.929-1.868-18.562-24.938-31.576-43.043-47.96-58.712-53.137,3.784-98.446,37.583-68.955C171.36,16.46,173,24.9,171.755,38.759A29.182,29.182,0,0,1,194.5,13.267c27.9-5.535,48.012,28.907,21.76,57.861-20.94,23.1-57.793,28.13-73.894,55.655-24.816,42.423,22.349,75.416,60.43,59.464,31.606-13.241,34.107-45.34,24.559-60.864-12.788-20.794-46.486-15.872-47.192,8.571-.5,17.429,17.3,20.479,21.783,11.382,2.522-5.116-2.5-12.467-8.01-11" transform="translate(15.199 1.628)" fill="none" stroke="#ff423f" stroke-linecap="round" stroke-linejoin="round" stroke-width="1.988"/>
      <path id="Path_3461" data-name="Path 3461" d="M3.274,198.586c-10.706-19.228,4.58-53.131,49.789-50.4,28.693,1.734,56.682,16.983,85.392,10.974,21.292-4.456,31.54-19.4,30.178-32.93-1.868-18.561-24.937-31.574-43.042-47.96-58.713-53.137,3.783-98.445,37.582-68.954,8.186,7.142,9.829,15.587,8.58,29.442A29.182,29.182,0,0,1,194.5,13.267c27.9-5.535,48.012,28.907,21.761,57.86-20.942,23.1-57.794,28.13-73.9,55.657-24.816,42.423,22.35,75.416,60.43,59.462,31.606-13.24,34.107-45.339,24.56-60.863-12.789-20.794-46.486-15.872-47.192,8.571-.5,17.429,17.3,20.479,21.783,11.381,2.521-5.115-2.5-12.466-8.011-11" transform="translate(15.743 1.086)" fill="none" stroke="#ff3b38" stroke-linecap="round" stroke-linejoin="round" stroke-width="1.988"/>
      <path id="Path_3462" data-name="Path 3462" d="M3.273,198.587c-10.706-19.228,4.581-53.132,49.79-50.4,28.693,1.734,56.681,16.983,85.392,10.974,21.292-4.457,31.54-19.4,30.178-32.93-1.868-18.561-24.938-31.574-43.043-47.96-58.712-53.137,3.784-98.446,37.582-68.955,8.186,7.143,9.83,15.588,8.58,29.444A29.186,29.186,0,0,1,194.5,13.267c27.9-5.534,48.013,28.907,21.761,57.861-20.94,23.1-57.794,28.13-73.9,55.656-24.814,42.423,22.35,75.416,60.431,59.464,31.606-13.241,34.106-45.34,24.559-60.864-12.789-20.794-46.486-15.872-47.192,8.571-.5,17.429,17.3,20.479,21.783,11.382,2.521-5.116-2.5-12.467-8.011-11" transform="translate(16.285 0.542)" fill="none" stroke="#ff3531" stroke-linecap="round" stroke-linejoin="round" stroke-width="1.988"/>
      <path id="Path_3463" data-name="Path 3463" d="M3.274,198.587c-10.707-19.228,4.58-53.132,49.789-50.4,28.693,1.734,56.682,16.985,85.392,10.974,21.292-4.456,31.54-19.4,30.178-32.93-1.868-18.561-24.938-31.574-43.042-47.96-58.713-53.136,3.783-98.445,37.582-68.954,8.186,7.143,9.829,15.587,8.58,29.442A29.182,29.182,0,0,1,194.5,13.267c27.9-5.535,48.012,28.907,21.76,57.861-20.94,23.1-57.793,28.13-73.894,55.655-24.816,42.423,22.349,75.416,60.43,59.462,31.606-13.24,34.107-45.339,24.559-60.863-12.788-20.794-46.486-15.872-47.192,8.571-.5,17.429,17.3,20.479,21.784,11.382,2.521-5.116-2.5-12.467-8.011-11" transform="translate(16.828 0)" fill="none" stroke="#ff2e2a" stroke-linecap="round" stroke-linejoin="round" stroke-width="1.988"/>
    </g>
    <g id="Group_411" data-name="Group 411" transform="translate(15.673 0)">
      <path id="Path_3464" data-name="Path 3464" d="M4.429,200.9a1.13,1.13,0,0,1-.988-.581c-5.212-9.362-4.46-21.521,1.966-31.732,8.973-14.265,26.8-21.675,48.88-20.345,11.286.681,22.585,3.465,33.513,6.157,15.913,3.921,32.342,7.963,48.644,5.377-2.39-10.131-.376-21.309,6.1-32.379a62.213,62.213,0,0,1,16.768-18.2C154.02,103.306,147.06,97.7,139.9,91.938c-4.638-3.734-9.435-7.6-13.909-11.644C95.1,52.343,97.566,27.233,110.167,13.054c12.351-13.9,36.855-19.154,54.9-3.4,6.6,5.755,8.959,12.419,9.3,20.624,3.956-8.443,11.89-15.113,21.062-16.931A28.821,28.821,0,0,1,226.61,27.506c6.123,10.817,7.142,28.467-8.36,45.566-9.379,10.344-22,17.164-34.2,23.76-7.537,4.074-14.874,8.04-21.445,12.713,4.54,5.469,7.653,11.263,8.306,17.757,1.313,13.04-7.85,29.288-31.072,34.149l-.546.111a35.993,35.993,0,0,0,7.416,13.046c13.2,15.08,37.09,20.036,56.8,11.78,17-7.122,23.912-19,26.713-27.7,3.486-10.834,2.434-23.208-2.68-31.523-7.075-11.5-20.179-14.093-29.365-11.64-9.572,2.56-15.454,9.906-15.735,19.651-.265,9.19,4.694,13.72,9.423,14.895,4.318,1.072,8.516-.591,10.217-4.045,1.222-2.477.261-5.426-1.233-7.25a5.354,5.354,0,0,0-5.474-2.159,1.131,1.131,0,0,1-.58-2.185,7.558,7.558,0,0,1,7.8,2.913,9.224,9.224,0,0,1,1.512,9.681c-2.176,4.414-7.44,6.57-12.789,5.239-5.329-1.322-11.444-6.61-11.138-17.152.306-10.64,6.977-18.981,17.409-21.771,9.971-2.668,24.2.154,31.875,12.639,5.53,8.991,6.643,21.79,2.906,33.4-2.947,9.159-10.2,21.643-27.991,29.1-20.58,8.619-45.549,3.415-59.374-12.377a38.319,38.319,0,0,1-7.977-14.124c-16.822,2.737-33.563-1.384-49.777-5.377-10.83-2.668-22.029-5.426-33.107-6.1-21.247-1.287-38.312,5.749-46.833,19.292C1.335,179.3.6,190.582,5.416,199.222a1.131,1.131,0,0,1-.987,1.679Zm156.343-90.018a59.722,59.722,0,0,0-16.278,17.655c-6.181,10.567-8.1,21.218-5.8,30.838q.343-.067.683-.139c21.855-4.573,30.5-19.644,29.285-31.71C168.06,121.526,165.1,116.078,160.772,110.884ZM139.716,2.261a37.8,37.8,0,0,0-27.86,12.294c-11.881,13.371-14.01,37.221,15.649,64.062,4.424,4.006,9.2,7.847,13.81,11.561,7.3,5.879,14.4,11.595,19.831,17.674,6.853-4.909,14.4-8.991,21.832-13.006,12.035-6.506,24.479-13.233,33.6-23.292,14.692-16.206,13.8-32.8,8.066-42.934-5.89-10.408-16.908-15.409-28.769-13.06-11.386,2.258-20.706,12.611-21.81,24.157-.01.11-.019.219-.028.329a1.148,1.148,0,0,1-1.224,1.026,1.13,1.13,0,0,1-1.029-1.219c.009-.111.019-.223.028-.335,1.257-14.389-.911-21.781-8.226-28.163A35.872,35.872,0,0,0,139.716,2.261Z" transform="translate(0 0)" fill="#ff2e2a" stroke="#ff2e2a" stroke-miterlimit="10" stroke-width="3.5"/>
    </g>
  </g>
</svg>
