<svg xmlns="http://www.w3.org/2000/svg" width="494.116" height="446.498" viewBox="0 0 494.116 446.498">
  <g id="Group_434" data-name="Group 434" transform="translate(-1449.942 -504.93)">
    <path id="Path_734" data-name="Path 734" d="M367.166,69.342h0c-2.546.127-5.092.2-7.64.391-8.631.649-17.176.1-25.724-.221-9.887-.364-19.739-1.137-29.576-1.956-5.313-.448-10.559-1.445-15.932-1.438-6.745.01-13.221-1.507-19.751-2.755a36.526,36.526,0,0,0-3.96-.485c-5.852-.457-11.7-.935-17.565-1.306-2.4-.15-3.952-1.951-3.775-4.73a7.758,7.758,0,0,0,.008-2.806c-1.379-4.668-2.618-9.408-4.1-14.018a24.766,24.766,0,0,0-4.142-7.156,201.341,201.341,0,0,0-17.586-20.547A39.47,39.47,0,0,0,195.142.837,64.8,64.8,0,0,0,159.188,5.32a55.448,55.448,0,0,0-9.8,5.32A36.3,36.3,0,0,0,139.245,20.9c-1.79,2.752-3.522,5.558-5.27,8.343a37.4,37.4,0,0,0-5.546,18.587A70.111,70.111,0,0,1,126.57,63.02a8,8,0,0,0,.182,4.167c.593,2.287-.326,3.306-2.331,2.657-8.117-2.626-16.489-4.185-24.824-5.853-7.565-1.507-15.256-2.342-22.944-3.151a83.8,83.8,0,0,0-10.812-.491,31.116,31.116,0,0,0-14.669,3.984A247.262,247.262,0,0,0,26.1,79.94c-12.2,8.917-19.7,21.766-23.59,37.56a57.2,57.2,0,0,0-1.392,8.044c-1.1,11.318-1.666,22.64-.388,33.728.961,8.328,3.984,15.409,9.766,20.264a56.475,56.475,0,0,0,22.086,11.3c5.261,1.4,10.679.533,16.01-1.062,4.633-1.392,9.2-3.238,13.792-4.912a28.643,28.643,0,0,0,2.711-1.189c6.926-3.415,10.762-9.58,12.163-18.04a11.9,11.9,0,0,0-.488-5.979,23.329,23.329,0,0,0-7.635-10.7,28.251,28.251,0,0,0-10.71-5.415c-4.008-1.094-7.423.284-10.485,3.735A48.444,48.444,0,0,0,41.5,157.03c-.589,1.12-1.2,2.219-1.818,3.319-.049.09-.319.149-.371.084-.151-.179-.386-.484-.333-.634,1.919-5.243,3.435-10.665,5.864-15.685a21.426,21.426,0,0,1,5.289-6.964,8.925,8.925,0,0,1,7.709-2.3c6.743,1.136,18.935,9.563,22.822,17.785A23.192,23.192,0,0,1,82.4,168.926c-.237.933-.565,1.835-.789,2.773-2.425,10.107-8.155,16.639-16.283,20.353a100.938,100.938,0,0,1-21.715,7.313A27.364,27.364,0,0,1,28.2,198.1a66.455,66.455,0,0,1-18.011-9.813c-.646-.512-1.277-1.04-1.938-1.523-.921-.661-1.4-.51-2.031.51A33.354,33.354,0,0,0,1.46,206.912,40.6,40.6,0,0,0,3.21,217.436c.737,2.3,1.527,4.588,2.232,6.916a25.939,25.939,0,0,0,12.046,15.49c7.551,4.339,15.766,6.62,24.573,5.83a57.98,57.98,0,0,0,16.327-4.448,4.58,4.58,0,0,0,2.855-3.252c2.5-8.431,7.485-14.93,12.8-21.128a18.492,18.492,0,0,1,3.646-3.323c7.17-4.811,14.48-9.351,22.643-10.088,9.344-.842,18.231.538,25.564,7.215,5.861,5.34,9.833,12.475,12.147,20.869,1.967,7.132.421,14.119-3.25,20.611a48.664,48.664,0,0,1-13.206,15.062c-6.516,4.9-12.813,5.526-18.722.249-.1-.092-.219-.163-.325-.254-1.73-1.4-3.394-2.79-3.226-5.827.176-3.171.939-6.009,3.173-8.178a13.538,13.538,0,0,1,2.062-1.676,1.1,1.1,0,0,1,1.1-.014c.617.478.217,1.1-.192,1.547a11.835,11.835,0,0,0-2.938,4.734c-.678,2.351-.212,3.453,1.711,4.265,5.01,2.107,9.929,1.328,14.814-1.946,4.99-3.344,8.811-8.121,11.894-13.739a15.643,15.643,0,0,0,1.311-13.228,43.906,43.906,0,0,0-8.887-15.414c-2.744-2.974-6.317-4.2-9.961-5.008a36.883,36.883,0,0,0-27.659,4.369,42.55,42.55,0,0,0-14.707,14.257,40.041,40.041,0,0,0-6.211,18.325c-1.244,12.9,1.53,24.039,7.782,33.775,2.025,3.158,4.153,6.234,6.4,9.163,8.425,10.986,19.383,17.034,31.77,20.07,7.353,1.8,14.815,3.168,22.211,4.807a40.787,40.787,0,0,0,15.63-.065,83.346,83.346,0,0,0,9.606-2.347A28.974,28.974,0,0,0,168.4,309.68c4.03-3.27,8.011-6.642,12.1-9.792,4.833-3.728,12.041-16.023,12.732-22.585.322-3.081,1.855-5.76,2.751-8.651.346-1.112,1.344-1.283,1.909-.441.4.59.692,1.294,1.123,1.848a18.052,18.052,0,0,0,10.266,6.9,61.309,61.309,0,0,0,28.766-.129,28.744,28.744,0,0,0,16.024-9.723,126.849,126.849,0,0,0,15.107-21.868c5.923-11.014,8.758-22.871,9.542-35.339a82.619,82.619,0,0,0-1.054-18.35,146.473,146.473,0,0,0-6.542-26.763c-4.973-13.736-12.533-24.943-23.388-32.7-1.218-.871-2.466-1.689-3.677-2.566a42.648,42.648,0,0,0-25.511-8.3c-8.943-.024-17.751,1.261-26.331,5.454-2.42,1.186-4.769,2.631-7.1,4.076a18.073,18.073,0,0,0-7.956,11.589c-3.488,14.578-1.876,27.808,5.378,39.332a18.112,18.112,0,0,0,10.955,8.158c5.48,1.468,11.012,1.906,16.707-.063,6.011-2.081,9.661-6.978,11.3-13.909,1.266-5.353-.045-9.8-3.6-12.856a65.654,65.654,0,0,0-7.656-5.418,4.043,4.043,0,0,0-3.82-.727c-.5.2-.751,0-.758-.528a1.176,1.176,0,0,1,.343-.821c3.386-2.293,6.973-3.571,10.472-1.962a18.4,18.4,0,0,1,8.108,6.852c3.088,4.857,3.63,10.477,2.471,16.558-2.367,12.435-10.6,20.88-20.785,22.207-14.619,1.9-25.508-4.474-31.958-19.312-5.517-12.7-6.049-26.5-2.1-40.947a26.923,26.923,0,0,1,10.232-15.1,54.993,54.993,0,0,1,16.36-8.2c10.76-3.372,21.419-3.963,31.928-1.232a35.644,35.644,0,0,1,8.857,3.663,110.373,110.373,0,0,1,16.564,11.907,52.689,52.689,0,0,1,10.95,12.815,9.446,9.446,0,0,0,5.336,4.221,21.6,21.6,0,0,0,11.492.829,75.75,75.75,0,0,0,17.843-5.511,34.322,34.322,0,0,0,14.9-13.15,27.622,27.622,0,0,0,3.691-21.427,35.487,35.487,0,0,0-4.984-11.9c-1.593-2.39-3.295-4.689-5.029-6.94a6.619,6.619,0,0,1-1.53-4.12c-.036-2.508,1.249-4.369,3.349-4.729a11.935,11.935,0,0,1,1.213-.09c7.152-.433,14.238-2.21,21.346-3.552q12.075-2.3,24.146-4.578c2.8-.536,5.593-1.119,8.387-1.68C367.231,69.864,367.2,69.606,367.166,69.342Z" transform="matrix(-0.946, 0.326, -0.326, -0.946, 1937.202, 813.772)" fill="#f2e9e1" fill-rule="evenodd"/>
    <g id="Group_242" data-name="Group 242" transform="translate(35)">
      <path id="Path_735" data-name="Path 735" d="M367.166,70.922h0c-2.546.13-5.092.207-7.637.4-8.634.663-17.18.1-25.727-.226-9.887-.372-19.741-1.163-29.574-2.007-5.317-.452-10.563-1.473-15.936-1.464-6.741.01-13.22-1.541-19.751-2.818a35.579,35.579,0,0,0-3.958-.5c-5.852-.468-11.7-.957-17.565-1.336-2.4-.153-3.952-2-3.775-4.838a8.117,8.117,0,0,0,.008-2.869c-1.379-4.774-2.618-9.623-4.1-14.333a25.384,25.384,0,0,0-4.14-7.325,204.518,204.518,0,0,0-17.586-21.016A39.142,39.142,0,0,0,195.139.86a63.421,63.421,0,0,0-35.951,4.58,54.862,54.862,0,0,0-9.8,5.447,36.6,36.6,0,0,0-10.14,10.489c-1.794,2.815-3.524,5.685-5.272,8.533a38.864,38.864,0,0,0-5.546,19.011,73.264,73.264,0,0,1-1.858,15.536,8.377,8.377,0,0,0,.182,4.262c.593,2.339-.324,3.381-2.331,2.718-8.117-2.686-16.489-4.28-24.824-5.986-7.563-1.541-15.256-2.4-22.944-3.223a81.977,81.977,0,0,0-10.812-.5A30.644,30.644,0,0,0,51.171,65.8,246.192,246.192,0,0,0,26.1,81.762c-12.206,9.12-19.7,22.262-23.59,38.417a59.727,59.727,0,0,0-1.394,8.227c-1.1,11.576-1.666,23.157-.388,34.5.961,8.513,3.984,15.756,9.764,20.721a56.043,56.043,0,0,0,22.09,11.562c5.259,1.43,10.677.545,16.008-1.086,4.633-1.423,9.2-3.312,13.792-5.024a27.317,27.317,0,0,0,2.711-1.216,21.769,21.769,0,0,0,3.4-2.121l3.985-4.056a27.755,27.755,0,0,0,4.783-12.274,12.456,12.456,0,0,0-.49-6.116,23.853,23.853,0,0,0-7.635-10.944,26.922,26.922,0,0,0-7.718-4.544c5.676,5.914,10.567,16.268,6.562,25.982-6.432,15.6-29.248,22.362-41.156,17.026s-30.6-29.207-6.6-81.916S144.9,95.553,144.9,95.553s-.426-9.421-5.842-13.1c0,0-5.5-44.807,26.216-65.612s78.58,15.186,73.865,63.866a100.313,100.313,0,0,1,52.1,1.307c26.271,8.068,22.61,85.5-26.9,59.793.977,1.34,1.9,2.736,2.765,4.2a9.487,9.487,0,0,0,5.338,4.317,21.2,21.2,0,0,0,11.494.847,74.53,74.53,0,0,0,17.841-5.637,34.612,34.612,0,0,0,14.9-13.445,28.8,28.8,0,0,0,3.689-21.92A36.7,36.7,0,0,0,315.378,98c-1.6-2.445-3.295-4.8-5.029-7.1a6.861,6.861,0,0,1-1.53-4.214c-.036-2.565,1.249-4.468,3.349-4.837a11.716,11.716,0,0,1,1.213-.093c7.152-.443,14.24-2.26,21.348-3.633,8.048-1.566,16.1-3.111,24.144-4.682,2.8-.549,5.593-1.144,8.389-1.718-.034-.264-.065-.528-.1-.8ZM125.689,259.881a47.6,47.6,0,0,0,5.242-7.912,16.321,16.321,0,0,0,1.311-13.529,45.173,45.173,0,0,0-8.887-15.771c-2.744-3.037-6.317-4.288-9.961-5.117a36.179,36.179,0,0,0-27.659,4.469A42.992,42.992,0,0,0,71.028,236.6a41.541,41.541,0,0,0-6.208,18.743c-1.246,13.2,1.525,24.587,7.779,34.545q.777,1.24,1.571,2.456c-4.878-12.922-8.162-32.962,5.979-52.291,23.548-32.192,53.668-.18,45.54,19.826ZM38.979,163.44c-4.539-7.33,0-39.5,20.67-36.284,17.043,2.648,20,21.434,20.51,27.956-4.342-8.081-15.842-16.073-22.318-17.192a8.794,8.794,0,0,0-7.709,2.355,21.862,21.862,0,0,0-5.286,7.119c-2.431,5.139-3.948,10.684-5.867,16.047Zm-16.2,36.881c-15.729,19.122.7,41.649,8.389,50.362a44.2,44.2,0,0,1-13.681-5.372A26.437,26.437,0,0,1,5.442,229.462c-.705-2.376-1.495-4.711-2.234-7.069A42.57,42.57,0,0,1,1.46,211.629a34.733,34.733,0,0,1,4.761-20.084c.631-1.043,1.11-1.2,2.031-.522.661.494,1.292,1.034,1.936,1.558a61.276,61.276,0,0,0,12.592,7.739Zm186.5,82.951c65.938-1.7,66.4-120.723,23.44-141.462-42.869-20.692-56.821,10.975-56.878,11.1a68.728,68.728,0,0,1,1.313-7.336,18.492,18.492,0,0,1,7.956-11.853c2.336-1.478,4.684-2.956,7.1-4.169,8.582-4.289,17.389-5.6,26.331-5.579a42.018,42.018,0,0,1,25.511,8.493c1.211.9,2.457,1.734,3.675,2.624,10.857,7.937,18.417,19.4,23.389,33.45a152.532,152.532,0,0,1,6.543,27.373,86.4,86.4,0,0,1,1.054,18.769c-.784,12.753-3.618,24.881-9.542,36.145A129.97,129.97,0,0,1,254.067,273.2a28.672,28.672,0,0,1-16.024,9.945A59.976,59.976,0,0,1,209.277,283.272Z" transform="matrix(-0.946, 0.326, -0.326, -0.946, 1902.202, 813.77)" fill="#d2b7a8" fill-rule="evenodd"/>
      <g id="右雲朵">
        <g id="Group_165" data-name="Group 165" transform="matrix(-0.946, 0.326, -0.326, -0.946, 1909.057, 818.463)">
          <g id="Group_164" data-name="Group 164">
            <path id="Path_736" data-name="Path 736" d="M408.385,72.76a1.761,1.761,0,0,1-.83.968,85.591,85.591,0,0,1-22.341,8.745c-10.552,2.336-21.139,4.236-31.714,6.287-9.914,1.922-19.831,3.784-29.744,5.737a8.974,8.974,0,0,0-4.062,1.311c.454.845.859,1.576,1.244,2.323,1.264,2.452,2.687,4.8,3.746,7.384a39.178,39.178,0,0,1-5.662,39.554,42.859,42.859,0,0,1-13.788,11.41,57.387,57.387,0,0,1-14.341,5.143c-4.483.909-9.022,1.408-13.377-.047a1.084,1.084,0,0,0-1.429.328,3.441,3.441,0,0,0,.1.9,128.1,128.1,0,0,1,6.679,22.953c2.537,12.152,4.347,24.462,2.4,37.479-1.446,9.619-3.606,19.043-7.717,27.836A116.013,116.013,0,0,1,258.012,280.1a34.028,34.028,0,0,1-18.918,10.729,80.642,80.642,0,0,1-13.517,1.613,27.17,27.17,0,0,1-21.2-8.295,11.5,11.5,0,0,0-1.485-1.414c-.532-.365-1.018-.033-1.218.691-.213.762-.318,1.554-.509,2.319-2.755,11.06-8.016,20.171-16.124,26.986-3.825,3.222-7.689,6.358-11.563,9.48a33.852,33.852,0,0,1-9.963,5.579A71.413,71.413,0,0,1,150.9,330.97a40.469,40.469,0,0,1-15.388-.22c-6.776-1.516-13.568-2.971-20.349-4.457a61.188,61.188,0,0,1-21.926-9.8c-8.609-5.982-15.518-14.089-21.265-23.677A56.968,56.968,0,0,1,66.611,281.3a61.737,61.737,0,0,1-2.8-25.6c.184-1.874-.35-2.305-1.775-1.232-5.194,3.909-10.834,5.043-16.59,5.457-6.478.47-12.506-1.356-18.417-3.6-6.534-2.481-11.786-7.213-16.475-12.836a15.225,15.225,0,0,1-2.1-3.212c-4.758-10.091-7.831-20.83-6.8-33.145.444-5.279,1.483-10.346,4.082-14.978.456-.813.814-1.71,1.287-2.509a3.232,3.232,0,0,0-.065-3.818C2.947,179.874,1.171,172.77.585,165.006a160.644,160.644,0,0,1,.539-32.9,91.1,91.1,0,0,1,4.865-20.31C11.287,97.629,19.733,86.753,31,78.819c7.569-5.332,15.4-9.963,23.3-14.447A35.617,35.617,0,0,1,72.254,59.6,143.862,143.862,0,0,1,87.2,60.788a236.785,236.785,0,0,1,27.518,4.663,31.607,31.607,0,0,1,10.634,4.105,4.448,4.448,0,0,0,1.312.273c-.1-1.578-.164-2.961-.28-4.337-.564-6.595.321-13.171,1.6-19.727a26.789,26.789,0,0,1,1.588-5.459c4.645-10.7,10.479-20.282,19.113-27.2a57.333,57.333,0,0,1,13.2-7.736A68.333,68.333,0,0,1,191.083.018,42.484,42.484,0,0,1,207.546,3.5,56.457,56.457,0,0,1,225.71,16.742a217.362,217.362,0,0,1,14.35,16.864,78.892,78.892,0,0,1,4.511,6.72,27.332,27.332,0,0,1,3.874,13.281c.089,1.865.338,3.708.5,5.565a1.486,1.486,0,0,0,1.235,1.481,10.653,10.653,0,0,0,1.544.285c3.8.335,7.595.644,11.4.968a60.308,60.308,0,0,1,7.456.691c6.8,1.439,13.613,2.743,20.647,2.784,4.895.028,9.662,1.039,14.506,1.427,9.965.792,19.942,1.5,29.95,1.916,8.16.338,16.318.833,24.564.214,2.651-.2,5.3-.291,7.953-.409a45.948,45.948,0,0,1,7.9.24,148.963,148.963,0,0,0,22.019,1.712c1.452-.027,2.9.1,4.35.11a14.72,14.72,0,0,1,4.983,1.077c.439.158,1.09.307.936,1.092Zm-40.927,4.147h0c-2.509.125-5.018.2-7.529.387-8.506.642-16.928.09-25.353-.219-9.745-.361-19.454-1.126-29.149-1.936-5.237-.444-10.407-1.43-15.7-1.423-6.648,0-13.031-1.492-19.466-2.727a37.417,37.417,0,0,0-3.9-.479c-5.767-.453-11.534-.926-17.312-1.293-2.37-.148-3.894-1.931-3.721-4.683a7.713,7.713,0,0,0,.008-2.777c-1.359-4.621-2.581-9.313-4.039-13.872a24.506,24.506,0,0,0-4.082-7.089,199.1,199.1,0,0,0-17.332-20.34A38.842,38.842,0,0,0,197.915,9.093a63.6,63.6,0,0,0-35.433,4.438,54.64,54.64,0,0,0-9.66,5.266,35.826,35.826,0,0,0-9.994,10.157c-1.766,2.724-3.473,5.5-5.2,8.259a37.137,37.137,0,0,0-5.466,18.4,69.7,69.7,0,0,1-1.831,15.036,7.947,7.947,0,0,0,.18,4.125c.584,2.264-.321,3.272-2.3,2.63-8-2.6-16.251-4.142-24.466-5.794-7.455-1.492-15.036-2.319-22.613-3.12A82.26,82.26,0,0,0,70.483,68a30.51,30.51,0,0,0-14.457,3.944A243.519,243.519,0,0,0,31.317,87.4C19.289,96.225,11.906,108.944,8.068,124.58A56.848,56.848,0,0,0,6.7,132.542c-1.082,11.2-1.642,22.412-.382,33.388.947,8.245,3.926,15.254,9.625,20.06A55.569,55.569,0,0,0,37.706,197.18c5.185,1.388,10.525.528,15.779-1.051,4.566-1.378,9.066-3.205,13.593-4.862a28.163,28.163,0,0,0,2.672-1.177c6.826-3.381,10.607-9.483,11.987-17.858a11.829,11.829,0,0,0-.481-5.919,23.092,23.092,0,0,0-7.525-10.592,27.8,27.8,0,0,0-10.555-5.36c-3.95-1.083-7.316.281-10.333,3.7A47.985,47.985,0,0,0,46.5,163.71c-.58,1.108-1.182,2.2-1.792,3.285-.049.089-.315.148-.365.083-.149-.177-.381-.479-.329-.628,1.891-5.19,3.384-10.557,5.78-15.526A21.223,21.223,0,0,1,55,144.029a8.775,8.775,0,0,1,7.6-2.279c6.645,1.124,18.662,9.466,22.493,17.6a23.068,23.068,0,0,1,1.714,16.135c-.233.924-.557,1.817-.778,2.746-2.39,10-8.037,16.471-16.048,20.148a99.216,99.216,0,0,1-21.4,7.24,26.91,26.91,0,0,1-15.193-1.252,65.45,65.45,0,0,1-17.753-9.713c-.635-.507-1.257-1.03-1.908-1.508-.908-.655-1.38-.5-2,.5a33.134,33.134,0,0,0-4.692,19.438,40.439,40.439,0,0,0,1.722,10.419c.729,2.281,1.507,4.542,2.2,6.846a25.652,25.652,0,0,0,11.872,15.334c7.442,4.3,15.538,6.553,24.218,5.775a56.776,56.776,0,0,0,16.091-4.413,4.518,4.518,0,0,0,2.816-3.215c2.464-8.346,7.372-14.779,12.61-20.915a18.2,18.2,0,0,1,3.594-3.289c7.066-4.763,14.271-9.256,22.316-9.986,9.209-.833,17.968.533,25.195,7.143,5.776,5.287,9.691,12.349,11.971,20.658,1.939,7.06.415,13.976-3.2,20.4A48.113,48.113,0,0,1,125.42,272.76c-6.422,4.852-12.628,5.47-18.452.246-.1-.091-.215-.161-.321-.252-1.7-1.381-3.345-2.762-3.18-5.768.173-3.139.925-5.949,3.127-8.1a13.334,13.334,0,0,1,2.032-1.659,1.085,1.085,0,0,1,1.082-.014c.609.473.214,1.094-.189,1.532a11.721,11.721,0,0,0-2.9,4.686c-.671,2.327-.209,3.419,1.687,4.222,4.937,2.085,9.785,1.314,14.6-1.926,4.921-3.31,8.684-8.039,11.722-13.6a15.538,15.538,0,0,0,1.292-13.094,43.479,43.479,0,0,0-8.759-15.258c-2.7-2.944-6.226-4.156-9.817-4.958a36.215,36.215,0,0,0-27.26,4.325,42.045,42.045,0,0,0-14.5,14.113,39.774,39.774,0,0,0-6.119,18.14c-1.226,12.773,1.506,23.8,7.669,33.434,2,3.126,4.093,6.171,6.306,9.07,8.3,10.875,19.1,16.863,31.311,19.867,7.249,1.785,14.6,3.137,21.89,4.753a39.915,39.915,0,0,0,15.4-.059,81.811,81.811,0,0,0,9.467-2.323,28.55,28.55,0,0,0,10.038-5.321c3.972-3.237,7.893-6.575,11.923-9.694,4.764-3.691,11.867-15.861,12.548-22.357.317-3.05,1.828-5.7,2.711-8.564.341-1.1,1.325-1.27,1.882-.441.394.589.682,1.286,1.106,1.835a17.79,17.79,0,0,0,10.118,6.829A60.167,60.167,0,0,0,240.2,282.3a28.315,28.315,0,0,0,15.793-9.625,125.582,125.582,0,0,0,14.889-21.648c5.837-10.9,8.632-22.64,9.4-34.983a82.143,82.143,0,0,0-1.039-18.165,145.516,145.516,0,0,0-6.447-26.493c-4.9-13.6-12.352-24.692-23.05-32.374-1.2-.862-2.43-1.672-3.624-2.54a41.908,41.908,0,0,0-25.143-8.22c-8.813-.023-17.5,1.248-25.951,5.4-2.386,1.174-4.7,2.6-7,4.035a17.891,17.891,0,0,0-7.841,11.472c-3.437,14.431-1.849,27.533,5.3,38.935a17.85,17.85,0,0,0,10.8,8.075c5.4,1.453,10.853,1.887,16.466-.062,5.924-2.06,9.521-6.908,11.138-13.768,1.248-5.3-.044-9.7-3.545-12.726a64.525,64.525,0,0,0-7.545-5.363,3.986,3.986,0,0,0-3.765-.724c-.491.205-.741,0-.748-.518a1.175,1.175,0,0,1,.338-.813c3.338-2.27,6.872-3.535,10.32-1.942a18.135,18.135,0,0,1,7.989,6.783c3.046,4.807,3.58,10.371,2.438,16.391a32.738,32.738,0,0,1-3.788,10.332,22.754,22.754,0,0,1-16.7,11.651c-14.406,1.88-25.14-4.429-31.5-19.117-5.438-12.572-5.962-26.23-2.071-40.533A26.654,26.654,0,0,1,185.4,130.813a54.107,54.107,0,0,1,16.124-8.115c10.6-3.338,21.11-3.923,31.465-1.22a35.032,35.032,0,0,1,8.731,3.626,108.8,108.8,0,0,1,16.325,11.787,52.043,52.043,0,0,1,10.79,12.686,9.327,9.327,0,0,0,5.261,4.178,21.2,21.2,0,0,0,11.326.82,74.417,74.417,0,0,0,17.586-5.456,33.874,33.874,0,0,0,14.68-13.018,27.441,27.441,0,0,0,3.638-21.211,35.173,35.173,0,0,0-4.914-11.781c-1.57-2.366-3.245-4.641-4.954-6.87a6.569,6.569,0,0,1-1.508-4.079c-.035-2.482,1.231-4.325,3.3-4.681a11.751,11.751,0,0,1,1.2-.09c7.049-.428,14.033-2.188,21.038-3.516,7.934-1.516,15.865-3.011,23.8-4.532,2.758-.531,5.513-1.107,8.266-1.663C367.522,77.424,367.492,77.168,367.458,76.907Z" transform="translate(0 0)" fill="#c9aca9" fill-rule="evenodd"/>
          </g>
        </g>
      </g>
    </g>
  </g>
</svg>
