<svg id="Group_435" data-name="Group 435" xmlns="http://www.w3.org/2000/svg" width="464.427" height="292.001" viewBox="0 0 464.427 292.001">
  <g id="Group_432" data-name="Group 432" transform="matrix(0.996, 0.087, -0.087, 0.996, 154.689, 0)">
    <path id="Path_3503" data-name="Path 3503" d="M.346.017C.6-.047.79.066.849.368,1.117,1.769-.745.364.346.017Z" transform="translate(200.592 63.845)" fill="#e96514" fill-rule="evenodd"/>
    <path id="Path_3502" data-name="Path 3502" d="M.48.051a1,1,0,0,1,.89.161,1.682,1.682,0,0,1,.624,1.578c-.052.62-.439.89-.892.757A1.545,1.545,0,0,1,0,.849C.126.619.236.184.48.051Z" transform="translate(119.339 134.53)" fill="#e96514" fill-rule="evenodd"/>
    <path id="Path_3501" data-name="Path 3501" d="M17.627,191.768c5.061.564,10.076,1.558,15.179,1.764,6.405.258,12.607,1.712,18.85,2.956,1.244.25,2.514.4,3.777.539,5.573.592,11.145,1.2,16.726,1.724,2.289.213,3.819,1.7,3.745,3.889a5.144,5.144,0,0,0,.087,2.218c1.467,3.745,2.8,7.542,4.365,11.246a21.494,21.494,0,0,0,4.175,5.822,194.307,194.307,0,0,0,17.394,16.939,44.375,44.375,0,0,0,21.55,9.953,71.423,71.423,0,0,0,33.993-2.13,51.682,51.682,0,0,0,9.128-3.821,28.417,28.417,0,0,0,9.285-7.714c1.607-2.105,3.157-4.256,4.723-6.39a24.228,24.228,0,0,0,4.64-14.479,45.2,45.2,0,0,1,1.252-11.938,5.4,5.4,0,0,0-.314-3.3c-.64-1.831.2-2.6,2.124-2.009,7.8,2.4,15.8,3.958,23.773,5.6,7.235,1.489,14.568,2.452,21.9,3.395a96.813,96.813,0,0,0,10.285.813,32.566,32.566,0,0,0,13.8-2.573,222.57,222.57,0,0,0,23.281-11.355c11.289-6.571,17.97-16.436,21.135-28.772a36.662,36.662,0,0,0,1.05-6.306c.661-8.906.817-17.837-.771-26.654a24.85,24.85,0,0,0-9.959-16.408,63.79,63.79,0,0,0-21.356-9.808c-5.044-1.316-10.16-.842-15.169.21-4.353.918-8.627,2.2-12.932,3.341-.859.23-1.7.523-2.534.834-6.462,2.428-9.9,7.152-10.941,13.787a8.152,8.152,0,0,0,.665,4.747,21.406,21.406,0,0,0,7.612,8.761,31.955,31.955,0,0,0,10.354,4.7,9.8,9.8,0,0,0,9.831-2.541,34.106,34.106,0,0,0,5.787-7.457c.521-.862,1.064-1.708,1.615-2.553a.363.363,0,0,1,.349-.052c.149.148.383.4.338.515-1.645,4.07-2.9,8.3-5.04,12.172a15.615,15.615,0,0,1-4.787,5.3,9.165,9.165,0,0,1-7.243,1.517c-6.442-1.163-18.3-8.306-22.274-14.961-2.457-4.116-3.437-8.314-2.2-12.953.193-.729.474-1.429.656-2.162,1.962-7.9,7.183-12.836,14.776-15.453A103.044,103.044,0,0,1,260.672,97.8,31.578,31.578,0,0,1,275.354,99.4a74.695,74.695,0,0,1,17.435,8.468c.631.43,1.248.873,1.892,1.281.9.559,1.347.458,1.911-.323a21.6,21.6,0,0,0,3.858-15.34,28.709,28.709,0,0,0-2.017-8.391c-.778-1.852-1.6-3.688-2.353-5.557a24.329,24.329,0,0,0-11.963-12.723,47.938,47.938,0,0,0-23.533-5.577,60.788,60.788,0,0,0-15.355,2.875,3.5,3.5,0,0,0-2.6,2.459c-2.092,6.568-6.6,11.511-11.44,16.2a14.917,14.917,0,0,1-3.35,2.484c-6.647,3.522-13.436,6.824-21.163,7.086-8.845.3-17.332-1.143-24.521-6.711a37.451,37.451,0,0,1-12.24-16.979c-2.109-5.717-.876-11.181,2.39-16.17A36.826,36.826,0,0,1,184.338,41.1c6.022-3.619,11.982-3.865,17.772.54.1.077.213.137.317.214,1.69,1.171,3.317,2.339,3.26,4.735-.06,2.5-.689,4.715-2.737,6.342a11.3,11.3,0,0,1-1.9,1.244,1.238,1.238,0,0,1-1.042-.032c-.6-.4-.244-.882.13-1.216a8.254,8.254,0,0,0,2.631-3.627c.565-1.832.085-2.722-1.769-3.44a16.18,16.18,0,0,0-14,.956,28.757,28.757,0,0,0-10.831,10.4,10.335,10.335,0,0,0-.8,10.408,38.073,38.073,0,0,0,8.96,12.538c2.706,2.46,6.141,3.568,9.629,4.352a40.042,40.042,0,0,0,26.119-2.367,33.752,33.752,0,0,0,13.486-10.694,26.042,26.042,0,0,0,5.28-14.246c.746-10.154-2.264-19.068-8.53-27.013-2.03-2.577-4.154-5.093-6.386-7.5-8.372-9.019-18.982-14.232-30.849-17.12C186.03,3.854,178.9,2.481,171.819.894A46.544,46.544,0,0,0,156.978.331a88.417,88.417,0,0,0-9.043,1.478,27.167,27.167,0,0,0-9.489,3.85c-3.717,2.427-7.383,4.936-11.16,7.267-4.464,2.758-10.894,12.2-11.329,17.357-.2,2.424-1.567,4.481-2.32,6.733a1,1,0,0,1-1.8.273c-.4-.482-.7-1.05-1.129-1.506a19.577,19.577,0,0,0-9.982-5.859,69.861,69.861,0,0,0-27.314-1.03,26.038,26.038,0,0,0-14.889,7.058,90.155,90.155,0,0,0-13.608,16.7c-5.253,8.476-7.545,17.74-7.869,27.569a55.783,55.783,0,0,0,1.621,14.551,107.505,107.505,0,0,0,7.116,21.42c5.187,11.057,12.744,20.217,23.315,26.78,1.186.736,2.4,1.433,3.579,2.174a49.308,49.308,0,0,0,24.508,7.569c8.493.371,16.816-.3,24.822-3.277,2.259-.842,4.44-1.893,6.61-2.944a12.975,12.975,0,0,0,7.164-8.851c2.82-11.39.842-21.915-6.435-31.312a19.27,19.27,0,0,0-10.679-6.881c-5.253-1.377-10.522-1.94-15.864-.608-5.639,1.409-8.939,5.138-10.263,10.553a9.334,9.334,0,0,0,3.85,10.307,71.108,71.108,0,0,0,7.453,4.585,4.639,4.639,0,0,0,3.652.725c.466-.141.714.033.738.448a.785.785,0,0,1-.3.636c-3.139,1.68-6.5,2.549-9.878,1.139a19.163,19.163,0,0,1-7.931-5.737,15.7,15.7,0,0,1-2.906-13.19c1.828-9.74,9.36-16.093,18.989-16.742,13.819-.93,24.375,4.541,31,16.528,5.668,10.259,6.64,21.19,3.378,32.46a19.22,19.22,0,0,1-9.208,11.536,52.189,52.189,0,0,1-15.26,5.838,64.377,64.377,0,0,1-30.28-.282,41.055,41.055,0,0,1-8.535-3.245,119.2,119.2,0,0,1-16.132-10.067,50.8,50.8,0,0,1-10.832-10.564,9.946,9.946,0,0,0-5.21-3.547,24.917,24.917,0,0,0-10.941-1.107,78.26,78.26,0,0,0-16.759,3.656,28.01,28.01,0,0,0-13.7,9.812,18.049,18.049,0,0,0-2.782,16.8,28.521,28.521,0,0,0,5.135,9.607c1.594,1.953,3.287,3.837,5.01,5.685a5.209,5.209,0,0,1,1.592,3.318A3.2,3.2,0,0,1,9.662,181.6c-.38.037-.765.02-1.149.024C1.736,181.682,8.257,190.733,17.627,191.768Z" transform="translate(2.053 6.663)" fill="#f2e9e1" fill-rule="evenodd"/>
    <path id="Path_3500" data-name="Path 3500" d="M20.495,169.772c5.065.559,7.212-4.465,12.314-4.26,6.4.258,12.605,1.712,18.85,2.956,1.242.25,2.512.4,3.775.539,5.573.592,11.145,1.2,16.726,1.724,2.289.213,3.819,1.7,3.745,3.889a5.146,5.146,0,0,0,.087,2.218c1.467,3.745,2.8,7.542,4.367,11.242a21.4,21.4,0,0,0,4.174,5.826,194.058,194.058,0,0,0,17.394,16.939,44.339,44.339,0,0,0,21.552,9.949,71.364,71.364,0,0,0,33.991-2.126,51.463,51.463,0,0,0,9.128-3.825,28.313,28.313,0,0,0,9.283-7.71c1.611-2.106,3.159-4.256,4.725-6.39a24.215,24.215,0,0,0,4.64-14.479,45.2,45.2,0,0,1,1.252-11.938,5.414,5.414,0,0,0-.314-3.3c-.64-1.832.2-2.6,2.124-2.01,7.8,2.4,15.8,3.958,23.773,5.6,7.233,1.489,14.568,2.452,21.9,3.395a96.813,96.813,0,0,0,10.285.814,32.627,32.627,0,0,0,13.8-2.573,222.367,222.367,0,0,0,23.28-11.355c11.291-6.571,17.97-16.436,21.135-28.772a36.672,36.672,0,0,0,1.052-6.306c.661-8.906.817-17.837-.771-26.658a24.855,24.855,0,0,0-9.957-16.4,63.806,63.806,0,0,0-21.36-9.808c-5.042-1.313-10.158-.842-15.167.21-4.353.918-8.628,2.2-12.932,3.341-.857.23-1.7.52-2.534.834a19.75,19.75,0,0,0-3.155,1.506L234,85.823a17.618,17.618,0,0,0-4.137,9.3,8.167,8.167,0,0,0,.667,4.747,21.405,21.405,0,0,0,7.612,8.761,30.206,30.206,0,0,0,7.48,3.816c-5.586-4.8-10.573-12.992-7.089-20.345,5.594-11.809,27.038-16.137,38.523-11.543s30.029,23.784,8.971,63.589-117.957,5.415-117.957,5.415.716,7.3,5.98,10.36c0,0,6.7,34.856-22.731,49.693s-75.127-14.833-72.256-52.281a116.573,116.573,0,0,1-49.523-3.061C4.321,147,5.242,87.289,53.109,109.107c-.972-1.075-1.9-2.19-2.765-3.357a9.951,9.951,0,0,0-5.212-3.547A24.973,24.973,0,0,0,34.189,101.1a78.267,78.267,0,0,0-16.757,3.656,28.04,28.04,0,0,0-13.7,9.808,18.054,18.054,0,0,0-2.78,16.8,28.482,28.482,0,0,0,5.135,9.607c1.6,1.953,3.287,3.841,5.01,5.685a5.21,5.21,0,0,1,1.592,3.318c.119,1.984-3.84-5-5.823-4.8-.382.037-.765.02-1.149.024C-1.064,145.257,6.886,168.623,20.495,169.772ZM180.882,23.278a32.88,32.88,0,0,0-4.717,5.911,10.335,10.335,0,0,0-.8,10.408,38.076,38.076,0,0,0,8.96,12.542c2.706,2.456,6.141,3.564,9.629,4.348a40.043,40.043,0,0,0,26.12-2.366A33.745,33.745,0,0,0,233.56,43.426a26.017,26.017,0,0,0,5.277-14.246c.748-10.154-2.26-19.068-8.528-27.013q-.779-.989-1.573-1.96c5.059,10.182,8.84,25.8-3.952,40.19-21.3,23.961-50.962-1.973-43.9-17.119Zm85.53,77.97c4.553,5.845,1.309,30.54-18.432,27.238-16.272-2.718-19.7-17.358-20.4-22.419,4.39,6.418,15.576,13.05,21.762,14.169a9.166,9.166,0,0,0,7.243-1.517,15.61,15.61,0,0,0,4.785-5.3c2.139-3.877,3.4-8.1,5.042-12.175Zm14.167-27.875c14.306-14.164-2.036-32.226-9.629-39.265A51.78,51.78,0,0,1,284.119,38.8a24.323,24.323,0,0,1,11.963,12.727c.748,1.865,1.575,3.7,2.355,5.553a28.822,28.822,0,0,1,2.015,8.391,21.6,21.6,0,0,1-3.858,15.34c-.564.782-1.014.882-1.911.323-.644-.408-1.261-.85-1.89-1.281a68.357,68.357,0,0,0-12.214-6.479ZM100.728,1.905C38.164.621,41.656,92.624,83.137,110.347c41.4,17.684,53.6-6.249,53.649-6.345a42.166,42.166,0,0,1-1,5.62,12.975,12.975,0,0,1-7.164,8.851c-2.17,1.051-4.351,2.1-6.61,2.944-8.008,2.978-16.329,3.647-24.822,3.277a49.315,49.315,0,0,1-24.508-7.57c-1.18-.741-2.391-1.437-3.577-2.174-10.573-6.563-18.13-15.723-23.316-26.78a107.427,107.427,0,0,1-7.117-21.419A55.784,55.784,0,0,1,37.048,52.2c.324-9.828,2.614-19.093,7.869-27.569a90.225,90.225,0,0,1,13.608-16.7A26.069,26.069,0,0,1,73.414.875,69.861,69.861,0,0,1,100.728,1.905Z" transform="translate(2.053 34.682)" fill="#d2b7a8" fill-rule="evenodd"/>
    <g id="Group_431" data-name="Group 431" transform="translate(0)">
      <g id="Group_165" data-name="Group 165">
        <g id="Group_164" data-name="Group 164">
          <path id="Path_736" data-name="Path 736" d="M8.436,181.352c-.46-.693-.87-1.293-1.262-1.9-1.285-2.009-2.719-3.938-3.814-6.048-5.878-11.322-3.743-23.377,4.056-31.37a35.66,35.66,0,0,1,12.736-8.564,57.768,57.768,0,0,1,13.474-3.535c4.235-.547,8.538-.764,12.732.572.454.145.962.266,1.349-.205a2.417,2.417,0,0,0-.127-.721,97.74,97.74,0,0,1-7.129-18.6c-2.824-9.808-4.961-19.714-3.542-30.033,1.052-7.626,2.79-15.067,6.406-21.927A82.779,82.779,0,0,1,60.927,36.6C65.941,32,71.9,29.671,78.569,28.785a88.941,88.941,0,0,1,12.808-.749,30.893,30.893,0,0,1,20.458,7.472A11.725,11.725,0,0,0,113.3,36.7c.518.313.97.067,1.136-.5.177-.6.25-1.229.407-1.832a35.046,35.046,0,0,1,14.435-20.912c3.532-2.421,7.1-4.772,10.684-7.111a31.234,31.234,0,0,1,9.293-4.059A75.142,75.142,0,0,1,161.142.245a46.088,46.088,0,0,1,14.651.79c6.5,1.482,13.011,2.915,19.514,4.373a69.819,69.819,0,0,1,21.195,8.7A73.828,73.828,0,0,1,237.536,33.87a47.408,47.408,0,0,1,5.491,9.413,43.419,43.419,0,0,1,3.53,20.559c-.112,1.49.41,1.855,1.731,1.055,4.811-2.915,10.139-3.6,15.6-3.7,6.149-.117,11.947,1.582,17.647,3.608,6.3,2.243,11.458,6.232,16.11,10.911a13.771,13.771,0,0,1,2.107,2.649c4.867,8.25,8.153,16.951,7.584,26.748a23.668,23.668,0,0,1-3.38,11.8c-.407.632-.717,1.333-1.14,1.953a2.273,2.273,0,0,0,.19,3.052c4.017,4.924,5.947,10.67,6.766,16.894a107.8,107.8,0,0,1,.6,26.26,59.385,59.385,0,0,1-3.946,16.029,50.489,50.489,0,0,1-22.689,25.342c-7.023,3.957-14.322,7.343-21.681,10.61a37.164,37.164,0,0,1-16.93,3.091c-4.789-.205-9.515-.926-14.259-1.542-8.868-1.156-17.637-2.815-26.344-4.824a36.387,36.387,0,0,1-10.257-3.7,5.175,5.175,0,0,0-1.257-.27c.149,1.265.256,2.372.412,3.475a47.064,47.064,0,0,1-.862,15.694,17.5,17.5,0,0,1-1.328,4.3c-4.06,8.362-9.289,15.783-17.273,20.961a52.338,52.338,0,0,1-12.3,5.653,73.6,73.6,0,0,1-27.6,3.113,49.382,49.382,0,0,1-15.783-3.435,60.757,60.757,0,0,1-17.731-11.306q-7.446-6.674-14.224-14.044c-1.615-1.747-3.083-3.645-4.519-5.548a20.929,20.929,0,0,1-4.134-10.763c-.148-1.494-.446-2.976-.662-4.465a1.416,1.416,0,0,0-1.225-1.232,12.387,12.387,0,0,0-1.479-.289c-3.626-.419-7.249-.818-10.876-1.229a69.688,69.688,0,0,1-7.118-.849,118.867,118.867,0,0,0-19.742-3.048c-4.659-.217-9.229-1.216-13.853-1.719C13.2,204.044,7.1,182.108,8.436,181.352Zm14.274,17.079c5,.564,9.951,1.558,14.99,1.764,6.326.262,12.45,1.712,18.616,2.956,1.229.245,2.482.4,3.73.539,5.5.592,11.007,1.2,16.518,1.724a3.715,3.715,0,0,1,3.7,3.889,5.206,5.206,0,0,0,.086,2.218c1.449,3.745,2.769,7.542,4.311,11.242a21.447,21.447,0,0,0,4.124,5.826,193.017,193.017,0,0,0,17.178,16.939,43.58,43.58,0,0,0,21.284,9.953,69.689,69.689,0,0,0,33.569-2.13,50.753,50.753,0,0,0,9.015-3.821A28.125,28.125,0,0,0,179,241.815c1.589-2.106,3.12-4.256,4.666-6.39a24.436,24.436,0,0,0,4.582-14.479,45.745,45.745,0,0,1,1.236-11.938,5.464,5.464,0,0,0-.31-3.3c-.632-1.831.2-2.6,2.1-2.009,7.7,2.4,15.6,3.958,23.477,5.6,7.145,1.489,14.387,2.452,21.624,3.395a94.451,94.451,0,0,0,10.157.814,31.752,31.752,0,0,0,13.625-2.573,218.673,218.673,0,0,0,22.992-11.355c11.149-6.571,17.747-16.436,20.872-28.772a37.085,37.085,0,0,0,1.037-6.306c.652-8.906.807-17.837-.761-26.654-1.179-6.623-4.25-12.341-9.835-16.408a62.636,62.636,0,0,0-21.091-9.808c-4.981-1.316-10.033-.842-14.98.21-4.3.918-8.519,2.2-12.771,3.341-.849.23-1.68.523-2.5.834-6.382,2.428-9.774,7.152-10.805,13.787a8.244,8.244,0,0,0,.657,4.747,21.328,21.328,0,0,0,7.518,8.761,31.374,31.374,0,0,0,10.225,4.7,9.6,9.6,0,0,0,9.709-2.541,34.054,34.054,0,0,0,5.715-7.457c.515-.862,1.051-1.708,1.595-2.552a.354.354,0,0,1,.345-.052c.147.148.378.4.334.515-1.625,4.07-2.865,8.3-4.977,12.172a15.561,15.561,0,0,1-4.726,5.3,8.967,8.967,0,0,1-7.155,1.517c-6.362-1.163-18.077-8.306-22-14.957-2.426-4.12-3.394-8.319-2.174-12.957.191-.729.468-1.429.647-2.162,1.937-7.9,7.094-12.836,14.593-15.453a100.754,100.754,0,0,1,20.122-4.928,30.882,30.882,0,0,1,14.5,1.606,73.431,73.431,0,0,1,17.221,8.468c.621.43,1.231.873,1.866,1.281.886.559,1.33.458,1.887-.323a21.8,21.8,0,0,0,3.81-15.34,29.062,29.062,0,0,0-1.99-8.391c-.77-1.852-1.587-3.688-2.326-5.557a24.2,24.2,0,0,0-11.814-12.723,46.9,46.9,0,0,0-23.24-5.58,59.172,59.172,0,0,0-15.164,2.882,3.475,3.475,0,0,0-2.572,2.455c-2.064,6.568-6.517,11.511-11.295,16.2a14.7,14.7,0,0,1-3.309,2.484c-6.564,3.523-13.269,6.824-20.9,7.086-8.735.3-17.116-1.143-24.216-6.711a37.438,37.438,0,0,1-12.088-16.979c-2.083-5.717-.865-11.181,2.361-16.17a36.566,36.566,0,0,1,11.883-11.391c5.947-3.619,11.833-3.865,17.551.54.1.077.21.137.314.214,1.669,1.171,3.276,2.339,3.22,4.735-.059,2.5-.68,4.715-2.7,6.342a11.138,11.138,0,0,1-1.878,1.244,1.208,1.208,0,0,1-1.03-.032c-.6-.4-.241-.882.128-1.216a8.25,8.25,0,0,0,2.6-3.627c.56-1.832.084-2.722-1.747-3.44a15.8,15.8,0,0,0-13.829.955,28.544,28.544,0,0,0-10.7,10.4,10.441,10.441,0,0,0-.789,10.408,38.04,38.04,0,0,0,8.849,12.538c2.673,2.46,6.065,3.568,9.509,4.352a39.093,39.093,0,0,0,25.8-2.367,33.426,33.426,0,0,0,13.32-10.694,26.254,26.254,0,0,0,5.212-14.246,38.074,38.074,0,0,0-8.424-27.013c-2-2.577-4.1-5.093-6.307-7.5-8.267-9.019-18.745-14.232-30.465-17.12-6.958-1.715-14-3.088-20.991-4.671a45.29,45.29,0,0,0-14.657-.567A86.291,86.291,0,0,0,151.4,8.472a26.683,26.683,0,0,0-9.373,3.85c-3.671,2.427-7.29,4.936-11.02,7.267-4.409,2.758-10.759,12.2-11.188,17.357-.2,2.424-1.548,4.481-2.292,6.733a.979.979,0,0,1-1.776.277c-.4-.486-.692-1.054-1.115-1.51a19.286,19.286,0,0,0-9.858-5.859A68.156,68.156,0,0,0,77.8,35.557a25.589,25.589,0,0,0-14.7,7.058,89.936,89.936,0,0,0-13.439,16.7c-5.188,8.476-7.452,17.74-7.771,27.568a56.453,56.453,0,0,0,1.6,14.551,108.451,108.451,0,0,0,7.028,21.419c5.122,11.057,12.586,20.217,23.026,26.78,1.172.736,2.369,1.433,3.534,2.174a48.268,48.268,0,0,0,24.2,7.57c8.388.37,16.607-.3,24.514-3.277,2.231-.842,4.385-1.893,6.528-2.944A12.943,12.943,0,0,0,139.4,144.3c2.785-11.39.832-21.919-6.355-31.312a19,19,0,0,0-10.546-6.881c-5.188-1.376-10.391-1.94-15.667-.608-5.568,1.409-8.828,5.138-10.135,10.553a9.392,9.392,0,0,0,3.8,10.307,69.887,69.887,0,0,0,7.361,4.585,4.553,4.553,0,0,0,3.607.729c.46-.145.7.029.729.444a.794.794,0,0,1-.294.636c-3.1,1.68-6.421,2.549-9.756,1.139a18.919,18.919,0,0,1-7.831-5.737c-3.06-3.962-3.756-8.427-2.872-13.19a19.914,19.914,0,0,1,18.753-16.741c13.646-.926,24.072,4.541,30.617,16.528,5.6,10.259,6.557,21.19,3.336,32.46a19.178,19.178,0,0,1-9.093,11.536,51.155,51.155,0,0,1-15.07,5.838,62.8,62.8,0,0,1-29.9-.282,40.211,40.211,0,0,1-8.431-3.245A117.5,117.5,0,0,1,65.716,151a50.417,50.417,0,0,1-10.7-10.564,9.831,9.831,0,0,0-5.147-3.547,24.319,24.319,0,0,0-10.806-1.107,76.465,76.465,0,0,0-16.551,3.656,27.675,27.675,0,0,0-13.532,9.812,18.231,18.231,0,0,0-2.747,16.8,28.609,28.609,0,0,0,5.073,9.607c1.574,1.953,3.245,3.837,4.946,5.685a5.236,5.236,0,0,1,1.572,3.318,3.184,3.184,0,0,1-2.984,3.607c-.375.037-.755.02-1.134.024C7.017,188.345,13.457,197.4,22.711,198.431Z" fill="#d2b7a8" fill-rule="evenodd"/>
        </g>
      </g>
    </g>
  </g>
  <g id="Group_433" data-name="Group 433" transform="translate(31.133 58.654) rotate(9)">
    <path id="Path_3503-2" data-name="Path 3503" d="M.262.013C.457-.035.6.05.642.278.845,1.338-.563.275.262.013Z" transform="translate(151.69 48.28)" fill="#e96514" fill-rule="evenodd"/>
    <path id="Path_3502-2" data-name="Path 3502" d="M.363.039a.756.756,0,0,1,.673.122,1.272,1.272,0,0,1,.472,1.194c-.04.469-.332.673-.674.572A1.168,1.168,0,0,1,0,.642C.1.468.179.139.363.039Z" transform="translate(90.246 101.733)" fill="#e96514" fill-rule="evenodd"/>
    <path id="Path_3501-2" data-name="Path 3501" d="M13.33,145.017c3.827.426,7.62,1.178,11.478,1.334,4.844.195,9.534,1.294,14.254,2.235.941.189,1.9.3,2.856.408,4.214.447,8.428.907,12.648,1.3a2.825,2.825,0,0,1,2.832,2.941,3.89,3.89,0,0,0,.066,1.677c1.109,2.832,2.121,5.7,3.3,8.5a16.254,16.254,0,0,0,3.158,4.4,146.938,146.938,0,0,0,13.154,12.81,33.557,33.557,0,0,0,16.3,7.526,54.011,54.011,0,0,0,25.706-1.611,39.084,39.084,0,0,0,6.9-2.89A21.49,21.49,0,0,0,133,177.825c1.215-1.592,2.388-3.219,3.572-4.832a18.321,18.321,0,0,0,3.509-10.949,34.182,34.182,0,0,1,.947-9.027,4.084,4.084,0,0,0-.237-2.5c-.484-1.385.15-1.967,1.606-1.52,5.9,1.812,11.949,2.993,17.977,4.238,5.471,1.126,11.016,1.855,16.558,2.567a73.211,73.211,0,0,0,7.777.615,24.627,24.627,0,0,0,10.433-1.946,168.316,168.316,0,0,0,17.606-8.587c8.537-4.969,13.589-12.429,15.982-21.758a27.727,27.727,0,0,0,.794-4.768,79.972,79.972,0,0,0-.583-20.156A18.792,18.792,0,0,0,221.413,86.8a48.239,48.239,0,0,0-16.15-7.417,24.838,24.838,0,0,0-11.471.159c-3.292.694-6.523,1.662-9.779,2.527-.65.174-1.286.4-1.916.63-4.887,1.836-7.484,5.408-8.274,10.426a6.165,6.165,0,0,0,.5,3.59,16.187,16.187,0,0,0,5.756,6.625,24.165,24.165,0,0,0,7.83,3.557,7.413,7.413,0,0,0,7.434-1.921,25.792,25.792,0,0,0,4.376-5.639c.394-.652.8-1.291,1.221-1.93a.274.274,0,0,1,.264-.039c.113.112.29.3.256.389a82.581,82.581,0,0,1-3.811,9.2,11.808,11.808,0,0,1-3.62,4.007,6.93,6.93,0,0,1-5.478,1.147c-4.871-.88-13.842-6.281-16.844-11.314a12.2,12.2,0,0,1-1.665-9.8c.146-.551.359-1.081.5-1.635,1.484-5.971,5.432-9.707,11.174-11.686a77.924,77.924,0,0,1,15.408-3.727,23.879,23.879,0,0,1,11.1,1.215,56.484,56.484,0,0,1,13.185,6.4c.477.326.944.66,1.431.968.678.423,1.019.347,1.445-.244A16.331,16.331,0,0,0,227.2,70.7a21.71,21.71,0,0,0-1.525-6.345c-.588-1.4-1.214-2.789-1.779-4.2a18.4,18.4,0,0,0-9.046-9.621,36.251,36.251,0,0,0-17.8-4.217,45.969,45.969,0,0,0-11.612,2.174,2.65,2.65,0,0,0-1.967,1.86c-1.582,4.967-4.994,8.705-8.651,12.253a11.28,11.28,0,0,1-2.534,1.878c-5.026,2.664-10.16,5.16-16,5.358-6.689.225-13.106-.864-18.543-5.075a28.321,28.321,0,0,1-9.256-12.84c-1.6-4.323-.663-8.455,1.808-12.228a27.849,27.849,0,0,1,9.1-8.614c4.554-2.737,9.061-2.923,13.439.408.077.058.161.1.24.162,1.278.886,2.509,1.769,2.466,3.58a5.845,5.845,0,0,1-2.07,4.8,8.545,8.545,0,0,1-1.438.941.936.936,0,0,1-.788-.024c-.456-.3-.184-.667.1-.919a6.242,6.242,0,0,0,1.989-2.743c.427-1.386.064-2.059-1.338-2.6a12.235,12.235,0,0,0-10.589.723,21.746,21.746,0,0,0-8.191,7.862,7.815,7.815,0,0,0-.6,7.871,28.791,28.791,0,0,0,6.776,9.481,15.484,15.484,0,0,0,7.282,3.291,30.28,30.28,0,0,0,19.752-1.79,25.523,25.523,0,0,0,10.2-8.087,19.693,19.693,0,0,0,3.993-10.773,28.558,28.558,0,0,0-6.451-20.427c-1.535-1.948-3.141-3.851-4.829-5.669C163,10.337,154.979,6.395,146.005,4.211c-5.327-1.3-10.72-2.335-16.074-3.535A35.2,35.2,0,0,0,118.709.25a66.861,66.861,0,0,0-6.839,1.118,20.544,20.544,0,0,0-7.176,2.911c-2.811,1.835-5.583,3.733-8.439,5.5C92.879,11.86,88.017,19,87.688,22.9c-.153,1.833-1.185,3.389-1.755,5.091a.752.752,0,0,1-1.36.207c-.3-.365-.53-.794-.854-1.139a14.8,14.8,0,0,0-7.549-4.43,52.83,52.83,0,0,0-20.655-.779,19.69,19.69,0,0,0-11.259,5.337A68.175,68.175,0,0,0,33.966,39.814a41.262,41.262,0,0,0-5.951,20.848,42.184,42.184,0,0,0,1.225,11,81.3,81.3,0,0,0,5.381,16.2,46.321,46.321,0,0,0,17.631,20.252c.9.557,1.814,1.083,2.706,1.644a37.288,37.288,0,0,0,18.533,5.724A47.179,47.179,0,0,0,92.263,113c1.708-.637,3.357-1.431,5-2.226a9.812,9.812,0,0,0,5.418-6.693c2.132-8.613.637-16.572-4.866-23.679a14.572,14.572,0,0,0-8.076-5.2,23.824,23.824,0,0,0-12-.46,10.114,10.114,0,0,0-7.761,7.981,7.059,7.059,0,0,0,2.911,7.794,53.773,53.773,0,0,0,5.636,3.467,3.508,3.508,0,0,0,2.762.548c.353-.106.54.025.558.339a.594.594,0,0,1-.225.481c-2.373,1.27-4.917,1.928-7.47.862a14.492,14.492,0,0,1-6-4.339,11.874,11.874,0,0,1-2.2-9.975,15.185,15.185,0,0,1,14.36-12.66c10.45-.7,18.433,3.434,23.444,12.5a31.148,31.148,0,0,1,2.554,24.547,14.535,14.535,0,0,1-6.963,8.724,39.466,39.466,0,0,1-11.54,4.415,48.683,48.683,0,0,1-22.9-.213,31.046,31.046,0,0,1-6.454-2.454,90.142,90.142,0,0,1-12.2-7.613,38.417,38.417,0,0,1-8.191-7.989,7.521,7.521,0,0,0-3.94-2.682,18.842,18.842,0,0,0-8.274-.837A59.18,59.18,0,0,0,13.181,100.4a21.181,21.181,0,0,0-10.362,7.42,13.649,13.649,0,0,0-2.1,12.7A21.568,21.568,0,0,0,4.6,127.79c1.205,1.477,2.486,2.9,3.788,4.3a3.939,3.939,0,0,1,1.2,2.509,2.416,2.416,0,0,1-2.285,2.728c-.287.028-.578.015-.869.018C1.313,137.39,6.244,144.235,13.33,145.017Z" transform="translate(1.553 5.039)" fill="#f2e9e1" fill-rule="evenodd"/>
    <path id="Path_3500-2" data-name="Path 3500" d="M15.5,128.384c3.83.423,5.453-3.376,9.312-3.221,4.841.195,9.532,1.294,14.254,2.235.94.189,1.9.3,2.855.408,4.214.447,8.428.907,12.648,1.3A2.825,2.825,0,0,1,57.4,132.05a3.892,3.892,0,0,0,.066,1.677c1.109,2.832,2.121,5.7,3.3,8.5a16.187,16.187,0,0,0,3.156,4.406,146.747,146.747,0,0,0,13.154,12.81,33.529,33.529,0,0,0,16.3,7.523,53.966,53.966,0,0,0,25.7-1.608,38.916,38.916,0,0,0,6.9-2.893,21.411,21.411,0,0,0,7.02-5.83c1.218-1.592,2.389-3.219,3.573-4.832a18.312,18.312,0,0,0,3.509-10.949,34.182,34.182,0,0,1,.947-9.027,4.094,4.094,0,0,0-.237-2.5c-.484-1.385.148-1.967,1.606-1.52,5.9,1.812,11.949,2.993,17.977,4.238,5.47,1.126,11.016,1.855,16.558,2.567a73.212,73.212,0,0,0,7.777.615,24.673,24.673,0,0,0,10.433-1.946,168.158,168.158,0,0,0,17.6-8.587c8.538-4.969,13.589-12.429,15.982-21.758a27.73,27.73,0,0,0,.8-4.768,80,80,0,0,0-.583-20.159,18.8,18.8,0,0,0-7.53-12.4,48.251,48.251,0,0,0-16.152-7.417,24.865,24.865,0,0,0-11.469.159c-3.292.694-6.525,1.662-9.779,2.527-.648.174-1.288.393-1.916.63a14.934,14.934,0,0,0-2.386,1.139L176.951,64.9a13.323,13.323,0,0,0-3.129,7.034,6.176,6.176,0,0,0,.5,3.59,16.187,16.187,0,0,0,5.756,6.625,22.842,22.842,0,0,0,5.656,2.886c-4.224-3.626-8-9.825-5.361-15.385,4.23-8.93,20.447-12.2,29.131-8.729s22.708,17.986,6.784,48.087-89.2,4.095-89.2,4.095.541,5.521,4.522,7.834c0,0,5.066,26.359-17.189,37.578S57.615,147.3,59.785,118.979a88.154,88.154,0,0,1-37.45-2.315c-19.068-5.5-18.371-50.656,17.826-34.156-.735-.813-1.434-1.656-2.091-2.539a7.525,7.525,0,0,0-3.941-2.682,18.885,18.885,0,0,0-8.275-.837,59.186,59.186,0,0,0-12.672,2.765A21.2,21.2,0,0,0,2.819,86.631a13.653,13.653,0,0,0-2.1,12.705A21.538,21.538,0,0,0,4.6,106.6c1.207,1.477,2.486,2.9,3.788,4.3a3.939,3.939,0,0,1,1.2,2.509c.09,1.5-2.9-3.781-4.4-3.629-.289.028-.578.015-.869.018C-.8,109.845,5.207,127.515,15.5,128.384ZM136.785,17.6a24.865,24.865,0,0,0-3.567,4.47,7.815,7.815,0,0,0-.6,7.871,28.794,28.794,0,0,0,6.776,9.484,15.508,15.508,0,0,0,7.282,3.288,30.281,30.281,0,0,0,19.752-1.79,25.518,25.518,0,0,0,10.2-8.087,19.674,19.674,0,0,0,3.991-10.773,28.541,28.541,0,0,0-6.449-20.427q-.589-.748-1.19-1.482c3.826,7.7,6.685,19.514-2.989,30.393-16.108,18.12-38.538-1.492-33.2-12.946Zm64.679,58.962c3.443,4.42.99,23.094-13.939,20.6-12.305-2.055-14.9-13.126-15.427-16.954,3.32,4.854,11.778,9.868,16.457,10.715a6.932,6.932,0,0,0,5.478-1.147,11.8,11.8,0,0,0,3.619-4,82.543,82.543,0,0,0,3.813-9.207Zm10.713-21.079c10.819-10.711-1.54-24.37-7.282-29.693a39.157,39.157,0,0,1,9.959,3.548,18.393,18.393,0,0,1,9.046,9.624c.566,1.41,1.191,2.8,1.781,4.2a21.8,21.8,0,0,1,1.524,6.345,16.331,16.331,0,0,1-2.917,11.6c-.427.591-.767.667-1.445.244-.487-.308-.954-.643-1.429-.968a51.693,51.693,0,0,0-9.236-4.9ZM76.172,1.441C28.86.47,31.5,70.043,62.87,83.446c31.3,13.373,40.533-4.726,40.57-4.8a31.882,31.882,0,0,1-.76,4.25,9.812,9.812,0,0,1-5.418,6.693c-1.641.795-3.29,1.589-5,2.226a47.182,47.182,0,0,1-18.771,2.478A37.293,37.293,0,0,1,54.96,88.571c-.892-.56-1.808-1.087-2.7-1.644A46.307,46.307,0,0,1,34.623,66.675a81.239,81.239,0,0,1-5.382-16.2,42.184,42.184,0,0,1-1.225-11,41.247,41.247,0,0,1,5.951-20.848A68.229,68.229,0,0,1,44.257,6,19.714,19.714,0,0,1,55.517.662,52.83,52.83,0,0,1,76.172,1.441Z" transform="translate(1.552 26.227)" fill="#d2b7a8" fill-rule="evenodd"/>
    <g id="Group_431-2" data-name="Group 431" transform="translate(0)">
      <g id="Group_165-2" data-name="Group 165">
        <g id="Group_164-2" data-name="Group 164">
          <path id="Path_736-2" data-name="Path 736" d="M6.38,137.141c-.348-.524-.658-.978-.954-1.44-.972-1.52-2.056-2.978-2.884-4.573C-1.9,122.565-.289,113.449,5.608,107.4a26.966,26.966,0,0,1,9.631-6.476,43.684,43.684,0,0,1,10.189-2.673,22.012,22.012,0,0,1,9.628.432c.343.109.728.2,1.02-.155a1.828,1.828,0,0,0-.1-.545,73.912,73.912,0,0,1-5.391-14.066c-2.135-7.417-3.751-14.908-2.678-22.711a49.524,49.524,0,0,1,4.844-16.582,62.6,62.6,0,0,1,13.319-16.95,23.657,23.657,0,0,1,13.341-5.91A67.258,67.258,0,0,1,69.1,21.2a23.362,23.362,0,0,1,15.471,5.651,8.868,8.868,0,0,0,1.1.9c.392.237.733.051.859-.381.134-.454.189-.929.308-1.386A26.5,26.5,0,0,1,97.758,10.17c2.671-1.831,5.371-3.609,8.079-5.377a23.62,23.62,0,0,1,7.027-3.069A56.823,56.823,0,0,1,121.857.185a34.852,34.852,0,0,1,11.08.6c4.915,1.121,9.839,2.2,14.757,3.307a52.8,52.8,0,0,1,16.028,6.579,55.829,55.829,0,0,1,15.906,14.944,35.85,35.85,0,0,1,4.152,7.118,32.834,32.834,0,0,1,2.67,15.547c-.085,1.127.31,1.4,1.309.8,3.638-2.2,7.668-2.719,11.8-2.8,4.65-.088,9.034,1.2,13.345,2.728a32.849,32.849,0,0,1,12.182,8.251,10.414,10.414,0,0,1,1.593,2c3.681,6.239,6.166,12.819,5.735,20.227a17.9,17.9,0,0,1-2.556,8.924c-.308.478-.542,1.008-.862,1.477a1.719,1.719,0,0,0,.144,2.308,24.665,24.665,0,0,1,5.116,12.776,81.518,81.518,0,0,1,.45,19.858,44.908,44.908,0,0,1-2.984,12.122,38.18,38.18,0,0,1-17.157,19.164c-5.311,2.992-10.831,5.553-16.4,8.023a28.1,28.1,0,0,1-12.8,2.338c-3.621-.155-7.2-.7-10.783-1.166-6.706-.874-13.337-2.129-19.922-3.648a27.516,27.516,0,0,1-7.757-2.8,3.915,3.915,0,0,0-.951-.2c.113.956.193,1.794.312,2.628a35.59,35.59,0,0,1-.652,11.868,13.235,13.235,0,0,1-1,3.249c-3.07,6.324-7.024,11.935-13.062,15.851a39.579,39.579,0,0,1-9.3,4.275,55.654,55.654,0,0,1-20.872,2.354,37.343,37.343,0,0,1-11.936-2.6,45.945,45.945,0,0,1-13.409-8.55q-5.631-5.047-10.756-10.62c-1.221-1.321-2.331-2.756-3.418-4.2a15.827,15.827,0,0,1-3.126-8.139c-.112-1.13-.337-2.25-.5-3.377a1.071,1.071,0,0,0-.926-.932,9.365,9.365,0,0,0-1.118-.219c-2.742-.317-5.482-.619-8.225-.929a52.705,52.705,0,0,1-5.383-.642,89.888,89.888,0,0,0-14.929-2.305c-3.523-.164-6.979-.919-10.476-1.3C9.979,154.3,5.366,137.712,6.38,137.141Zm10.794,12.916c3.78.426,7.525,1.178,11.336,1.334,4.784.2,9.415,1.294,14.077,2.235.929.185,1.877.3,2.821.408,4.162.447,8.323.907,12.491,1.3a2.81,2.81,0,0,1,2.8,2.941,3.937,3.937,0,0,0,.065,1.677c1.1,2.832,2.094,5.7,3.26,8.5a16.219,16.219,0,0,0,3.118,4.406,145.962,145.962,0,0,0,12.99,12.81,32.956,32.956,0,0,0,16.1,7.526,52.7,52.7,0,0,0,25.385-1.611,38.38,38.38,0,0,0,6.817-2.89,21.268,21.268,0,0,0,6.933-5.833c1.2-1.592,2.359-3.219,3.529-4.832a18.479,18.479,0,0,0,3.465-10.949,34.594,34.594,0,0,1,.935-9.027,4.131,4.131,0,0,0-.234-2.5c-.478-1.385.148-1.967,1.586-1.52,5.823,1.812,11.8,2.993,17.754,4.238,5.4,1.126,10.879,1.855,16.352,2.567a71.419,71.419,0,0,0,7.681.615,24.011,24.011,0,0,0,10.3-1.946,165.363,165.363,0,0,0,17.387-8.587c8.431-4.969,13.42-12.429,15.784-21.758a28.045,28.045,0,0,0,.784-4.768,80.966,80.966,0,0,0-.576-20.156,18.831,18.831,0,0,0-7.437-12.408,47.366,47.366,0,0,0-15.949-7.417,24.233,24.233,0,0,0-11.328.159c-3.251.694-6.442,1.662-9.658,2.527-.642.174-1.27.4-1.893.63-4.826,1.836-7.391,5.408-8.171,10.426a6.234,6.234,0,0,0,.5,3.59,16.129,16.129,0,0,0,5.685,6.625,23.725,23.725,0,0,0,7.733,3.557,7.259,7.259,0,0,0,7.342-1.921,25.753,25.753,0,0,0,4.322-5.639c.389-.652.794-1.291,1.206-1.93a.268.268,0,0,1,.261-.039c.112.112.286.3.253.389a82.9,82.9,0,0,1-3.764,9.2A11.768,11.768,0,0,1,195.633,116a6.781,6.781,0,0,1-5.411,1.147c-4.811-.88-13.67-6.281-16.635-11.311a12.341,12.341,0,0,1-1.644-9.8c.144-.551.354-1.081.49-1.635,1.465-5.971,5.364-9.707,11.035-11.686a76.191,76.191,0,0,1,15.217-3.727,23.354,23.354,0,0,1,10.965,1.215,55.53,55.53,0,0,1,13.023,6.4c.469.326.931.66,1.411.968.67.423,1.006.347,1.427-.244a16.488,16.488,0,0,0,2.881-11.6,21.977,21.977,0,0,0-1.5-6.345c-.582-1.4-1.2-2.789-1.759-4.2a18.3,18.3,0,0,0-8.934-9.621,35.468,35.468,0,0,0-17.575-4.22,44.747,44.747,0,0,0-11.467,2.18,2.628,2.628,0,0,0-1.945,1.857c-1.561,4.967-4.928,8.7-8.541,12.253a11.118,11.118,0,0,1-2.5,1.878c-4.964,2.664-10.034,5.16-15.8,5.358-6.606.225-12.944-.864-18.313-5.075a28.311,28.311,0,0,1-9.141-12.84c-1.575-4.323-.654-8.455,1.785-12.228a27.651,27.651,0,0,1,8.986-8.614c4.5-2.737,8.948-2.923,13.272.408.076.058.159.1.237.162,1.262.886,2.478,1.769,2.435,3.58a5.879,5.879,0,0,1-2.044,4.8,8.422,8.422,0,0,1-1.42.941.914.914,0,0,1-.779-.024c-.45-.3-.182-.667.1-.919a6.238,6.238,0,0,0,1.965-2.743c.423-1.386.063-2.059-1.321-2.6a11.95,11.95,0,0,0-10.457.722,21.585,21.585,0,0,0-8.089,7.862,7.9,7.9,0,0,0-.6,7.871,28.767,28.767,0,0,0,6.692,9.481,15.2,15.2,0,0,0,7.191,3.291,29.563,29.563,0,0,0,19.507-1.79,25.277,25.277,0,0,0,10.073-8.087,19.853,19.853,0,0,0,3.942-10.773,28.792,28.792,0,0,0-6.371-20.428c-1.516-1.948-3.1-3.851-4.769-5.669-6.252-6.82-14.175-10.763-23.038-12.946-5.262-1.3-10.587-2.335-15.874-3.532a34.248,34.248,0,0,0-11.084-.429,65.255,65.255,0,0,0-6.754,1.117A20.178,20.178,0,0,0,107.4,9.318c-2.776,1.835-5.513,3.733-8.333,5.5-3.334,2.086-8.136,9.223-8.461,13.126-.151,1.833-1.171,3.389-1.733,5.091a.741.741,0,0,1-1.343.21c-.3-.368-.523-.8-.843-1.142a14.584,14.584,0,0,0-7.455-4.43,51.541,51.541,0,0,0-20.4-.779,19.35,19.35,0,0,0-11.12,5.337A68.011,68.011,0,0,0,37.554,44.853,41.648,41.648,0,0,0,31.677,65.7a42.69,42.69,0,0,0,1.21,11A82.013,82.013,0,0,0,38.2,92.9a46.154,46.154,0,0,0,17.412,20.252c.886.557,1.791,1.083,2.673,1.644a36.5,36.5,0,0,0,18.3,5.724,46.057,46.057,0,0,0,18.538-2.478c1.687-.637,3.316-1.431,4.936-2.226a9.788,9.788,0,0,0,5.35-6.693c2.106-8.613.629-16.576-4.806-23.679a14.37,14.37,0,0,0-7.975-5.2,23.247,23.247,0,0,0-11.848-.459,10.057,10.057,0,0,0-7.664,7.98A7.1,7.1,0,0,0,76,95.558a52.848,52.848,0,0,0,5.566,3.467,3.443,3.443,0,0,0,2.728.551c.348-.109.533.022.551.336a.6.6,0,0,1-.223.481c-2.344,1.27-4.855,1.928-7.377.862a14.307,14.307,0,0,1-5.922-4.339,11.986,11.986,0,0,1-2.172-9.975,15.059,15.059,0,0,1,14.182-12.66c10.319-.7,18.2,3.434,23.153,12.5A31.5,31.5,0,0,1,109,111.327a14.5,14.5,0,0,1-6.876,8.724,38.684,38.684,0,0,1-11.4,4.415,47.493,47.493,0,0,1-22.612-.213,30.408,30.408,0,0,1-6.376-2.454A88.853,88.853,0,0,1,49.7,114.185a38.126,38.126,0,0,1-8.088-7.989,7.435,7.435,0,0,0-3.892-2.682,18.39,18.39,0,0,0-8.171-.837,57.824,57.824,0,0,0-12.516,2.765,20.928,20.928,0,0,0-10.233,7.42,13.786,13.786,0,0,0-2.077,12.7,21.635,21.635,0,0,0,3.836,7.265c1.19,1.477,2.454,2.9,3.74,4.3a3.96,3.96,0,0,1,1.189,2.509,2.408,2.408,0,0,1-2.256,2.728c-.284.028-.571.015-.858.018C5.307,142.429,10.177,149.274,17.174,150.056Z" fill="#d2b7a8" fill-rule="evenodd"/>
        </g>
      </g>
    </g>
  </g>
</svg>
