<svg id="Group_643" data-name="Group 643" xmlns="http://www.w3.org/2000/svg" width="381.792" height="81.501" viewBox="0 0 381.792 81.501">
  <path id="Path_1966" data-name="Path 1966" d="M130.5,326v32.59s8.091-16.179,12.615-19.975C149.5,333.263,173.953,326,173.953,326Z" transform="translate(-130.5 -326)" fill="#ac5454"/>
  <path id="Path_1967" data-name="Path 1967" d="M625.286,326v32.59s-8.09-16.179-12.615-19.975C606.288,333.263,581.832,326,581.832,326Z" transform="translate(-243.494 -326)" fill="#ac5454"/>
  <path id="Path_1968" data-name="Path 1968" d="M130.5,447.59V415s8.09,16.179,12.615,19.974c6.382,5.353,30.838,12.616,30.838,12.616Z" transform="translate(-130.5 -366.089)" fill="#ac5454"/>
  <path id="Path_1969" data-name="Path 1969" d="M625.287,447.59V415s-8.09,16.179-12.615,19.974c-6.382,5.353-30.839,12.616-30.839,12.616Z" transform="translate(-243.495 -366.089)" fill="#ac5454"/>
</svg>
