<svg xmlns="http://www.w3.org/2000/svg" width="613.833" height="140.249" viewBox="0 0 613.833 140.249">
  <path id="雲" d="M1023.01,488.965s-22.62,6.039-43.229.55-23.124,1.647-55.8,1.647-61.829-2.745-61.829-2.745-8.044-7.136,11.56-8.783S907.9,469.2,918.454,456.028s44.738-2.2,57.3-6.588,25.636-28,48.759-26.35,16.086,13.725,30.16,2.2,19.6-37.054,39.713-33.212,15.08-15.645,42.224-23.056,42.225,37.6,42.225,37.6,15.834-24.428,37.7-21.957,44.487,28.272,44.487,28.272,11.311-15.1,23.374-3.569,11.31,28.272,11.31,28.272,5.125-12.333,13.823-10.7c17.594,3.294,19.731,23.468,19.731,23.468s3.9-12.215,28.023-7.274,18.348,15.645,25.889,18.115,27.144-4.665,33.93,6.862,1.508,9.881,16.589,9.881,46.5,10.154,39.711,14.272-42.727,4.667-58.562,6.314-56.551,4.941-83.695,3.294-17.343-10.7-53.536-6.587-37.323,23.6-64.845,5.764c-10.555-6.843-40.717-8.234-52.027-4.117s-38.958,14.822-59.316.823-25.133-1.647-47.753,1.647S1023.01,488.965,1023.01,488.965Z" transform="translate(-860.52 -368.196)" fill="#fff"/>
</svg>
