<svg xmlns="http://www.w3.org/2000/svg" width="260.001" height="200" viewBox="0 0 260.001 200">
  <g id="對話框" fill="#ffeea8">
    <path d="M 119.2986221313477 195 C 111.4867706298828 195 103.6819686889648 194.3406524658203 96.10096740722656 193.0402984619141 C 88.72127532958984 191.7744903564453 81.46473693847656 189.8865661621094 74.53285217285156 187.4289093017578 C 67.73750305175781 185.0196838378906 61.18634796142578 182.0393829345703 55.06130981445312 178.5707244873047 C 49.00819396972656 175.1428833007812 43.31961822509766 171.2091064453125 38.15357971191406 166.8787689208984 C 33.00354385375977 162.5617980957031 28.33150291442871 157.8159942626953 24.26723480224609 152.7732238769531 C 20.17911911010742 147.7008361816406 16.67050361633301 142.2835693359375 13.83892631530762 136.671875 C 10.96481132507324 130.9758453369141 8.758426666259766 125.0191879272461 7.28108024597168 118.967414855957 C 5.767465114593506 112.7670669555664 5.000003337860107 106.3853759765625 5.000003337860107 99.99953460693359 C 5.000003337860107 93.61383819580078 5.767465114593506 87.23222351074219 7.28108024597168 81.03199005126953 C 8.758426666259766 74.98030090332031 10.96481132507324 69.02371978759766 13.83892631530762 63.32776260375977 C 16.67050361633301 57.71610641479492 20.17908096313477 52.29887771606445 24.26719665527344 47.22657012939453 C 28.33150291442871 42.183837890625 33.00354385375977 37.43806838989258 38.15357971191406 33.12114715576172 C 43.31961822509766 28.79080009460449 49.00819396972656 24.85706901550293 55.06127166748047 21.42922401428223 C 61.18634796142578 17.96060752868652 67.73750305175781 14.980299949646 74.53285217285156 12.57106971740723 C 81.46473693847656 10.11341571807861 88.72127532958984 8.225492477416992 96.10096740722656 6.9596848487854 C 103.6819686889648 5.659338474273682 111.4867706298828 4.999992370605469 119.2986221313477 4.999992370605469 C 127.1103515625 4.999992370605469 134.9150848388672 5.659338474273682 142.4960021972656 6.9596848487854 C 149.8756256103516 8.225492477416992 157.1321563720703 10.11341571807861 164.0640106201172 12.57106971740723 C 170.8593139648438 14.980299949646 177.4104614257812 17.96060752868652 183.5355377197266 21.42922401428223 C 189.5886535644531 24.85706901550293 195.2772369384766 28.79080009460449 200.4433135986328 33.12114715576172 C 205.5933837890625 37.43806838989258 210.2654724121094 42.183837890625 214.3297729492188 47.22657012939453 C 218.4179229736328 52.29891586303711 221.9265441894531 57.71614456176758 224.7581634521484 63.32776260375977 C 227.6323089599609 69.02375793457031 229.8387298583984 74.98030090332031 231.3160858154297 81.03199005126953 C 232.8297271728516 87.23222351074219 233.5971984863281 93.61383819580078 233.5971984863281 99.99953460693359 C 233.5971984863281 109.8407211303711 231.7926177978516 119.5392227172852 228.2336120605469 128.82568359375 L 227.2611541748047 131.3630676269531 L 228.8612670898438 133.5592956542969 L 248.8672790527344 161.0186157226562 L 214.899658203125 155.7388000488281 L 212.24658203125 155.326416015625 L 210.4373474121094 157.3102264404297 C 205.2474212646484 163.0009613037109 199.2778167724609 168.2146148681641 192.6943511962891 172.8063812255859 C 186.0543823242188 177.4375762939453 178.7854309082031 181.4389953613281 171.0894317626953 184.6995239257812 C 163.2375793457031 188.0260620117188 154.9215087890625 190.5888366699219 146.3722686767578 192.3166046142578 C 137.5618896484375 194.0971832275391 128.4530029296875 195 119.2986221313477 195 Z" stroke="none"/>
    <path d="M 119.298583984375 9.999984741210938 C 59.0311279296875 9.999984741210938 10 50.37361145019531 10 99.99953460693359 C 10 149.6259460449219 59.0311279296875 190 119.298583984375 190 C 153.9714202880859 190 185.8436737060547 176.8569946289062 206.7429656982422 153.9409942626953 L 210.3614196777344 149.9733276367188 L 215.6675872802734 150.7981262207031 L 237.7335052490234 154.2279815673828 L 224.8200836181641 136.5036163330078 L 221.6198425292969 132.1111145019531 L 223.5647583007812 127.0363693237305 C 226.904052734375 118.3232040405273 228.5972137451172 109.2266998291016 228.5972137451172 99.99953460693359 C 228.5972137451172 50.37361145019531 179.5660400390625 9.999984741210938 119.298583984375 9.999984741210938 M 119.298583984375 -1.52587890625e-05 C 185.1849212646484 -1.52587890625e-05 238.5972137451172 44.77153015136719 238.5972137451172 99.99953460693359 C 238.5972137451172 110.6785736083984 236.6004180908203 120.9660339355469 232.9024658203125 130.6150360107422 L 260.0010070800781 167.8092346191406 L 214.1316680908203 160.679443359375 C 192.3321685791016 184.5825347900391 157.9641723632812 200 119.298583984375 200 C 53.41142272949219 200 0 155.2284545898438 0 99.99953460693359 C 0 44.77153015136719 53.41142272949219 -1.52587890625e-05 119.298583984375 -1.52587890625e-05 Z" stroke="none" fill="#fff"/>
  </g>
</svg>
