<svg xmlns="http://www.w3.org/2000/svg" width="393.555" height="444.709" viewBox="0 0 393.555 444.709">
  <g id="Union_2" data-name="Union 2" transform="translate(-3422.461 4154)" fill="#ffeea8">
    <path d="M 3431.63525390625 -3722.440185546875 L 3446.829833984375 -3772.9794921875 L 3447.04150390625 -3773.683837890625 L 3447.04150390625 -3774.419189453125 L 3447.04150390625 -4134.00048828125 C 3447.04150390625 -4138.0068359375 3448.601806640625 -4141.77392578125 3451.434814453125 -4144.6064453125 C 3454.26806640625 -4147.43994140625 3458.03466796875 -4149 3462.041259765625 -4149 L 3796.0166015625 -4149 C 3800.023193359375 -4149 3803.789794921875 -4147.43994140625 3806.623046875 -4144.6064453125 C 3809.4560546875 -4141.77392578125 3811.016357421875 -4138.0068359375 3811.016357421875 -4134.00048828125 L 3811.016357421875 -3766.290283203125 C 3811.016357421875 -3762.28369140625 3809.4560546875 -3758.51708984375 3806.623046875 -3755.68408203125 C 3803.789794921875 -3752.85107421875 3800.023193359375 -3751.290771484375 3796.0166015625 -3751.290771484375 L 3471.694091796875 -3751.290771484375 L 3470.024658203125 -3751.290771484375 L 3468.690185546875 -3750.287841796875 L 3431.63525390625 -3722.440185546875 Z" stroke="none"/>
    <path d="M 3440.8095703125 -3735.58935546875 L 3465.686279296875 -3754.284912109375 L 3468.35546875 -3756.290771484375 L 3471.694091796875 -3756.290771484375 L 3796.0166015625 -3756.290771484375 C 3801.530517578125 -3756.290771484375 3806.016357421875 -3760.776611328125 3806.016357421875 -3766.290283203125 L 3806.016357421875 -4134.00048828125 C 3806.016357421875 -4139.51416015625 3801.530517578125 -4144 3796.0166015625 -4144 L 3462.041259765625 -4144 C 3456.52734375 -4144 3452.04150390625 -4139.51416015625 3452.04150390625 -4134.00048828125 L 3452.04150390625 -3774.419189453125 L 3452.04150390625 -3772.948486328125 L 3451.617919921875 -3771.5400390625 L 3440.8095703125 -3735.58935546875 M 3422.4609375 -3709.290771484375 L 3442.04150390625 -3774.419189453125 L 3442.04150390625 -4134.00048828125 C 3442.04150390625 -4145.0458984375 3450.995849609375 -4154 3462.041259765625 -4154 L 3796.0166015625 -4154 C 3807.06201171875 -4154 3816.016357421875 -4145.0458984375 3816.016357421875 -4134.00048828125 L 3816.016357421875 -3766.290283203125 C 3816.016357421875 -3755.244873046875 3807.06201171875 -3746.290771484375 3796.0166015625 -3746.290771484375 L 3471.694091796875 -3746.290771484375 L 3422.4609375 -3709.290771484375 Z" stroke="none" fill="#fff"/>
  </g>
</svg>
