<svg xmlns="http://www.w3.org/2000/svg" xmlns:xlink="http://www.w3.org/1999/xlink" width="516.5" height="955.504" viewBox="0 0 516.5 955.504">
  <defs>
    <linearGradient id="linear-gradient" x1="0.483" y1="0.864" x2="0.509" y2="0.279" gradientUnits="objectBoundingBox">
      <stop offset="0.023" stop-color="#008129"/>
      <stop offset="1" stop-color="#d3d522"/>
    </linearGradient>
    <linearGradient id="linear-gradient-4" x1="0.483" y1="0.864" x2="0.509" y2="0.279" xlink:href="#linear-gradient"/>
    <linearGradient id="linear-gradient-6" x1="0.49" y1="1.01" x2="0.519" y2="0" xlink:href="#linear-gradient"/>
    <linearGradient id="linear-gradient-10" y1="0.5" x2="1" y2="0.5" gradientUnits="objectBoundingBox">
      <stop offset="0.157" stop-color="#de2a57"/>
      <stop offset="0.873" stop-color="#efa5bb"/>
    </linearGradient>
    <linearGradient id="linear-gradient-11" x1="7.027" y1="0.365" x2="-1.596" y2="0.543" gradientUnits="objectBoundingBox">
      <stop offset="0.155" stop-color="#98bc00"/>
      <stop offset="0.23" stop-color="#8db804"/>
      <stop offset="0.499" stop-color="#6cad14"/>
      <stop offset="0.723" stop-color="#58a61d"/>
      <stop offset="0.873" stop-color="#51a421"/>
    </linearGradient>
    <linearGradient id="linear-gradient-12" x1="1.01" y1="0.497" x2="0.01" y2="0.502" xlink:href="#linear-gradient-10"/>
    <linearGradient id="linear-gradient-13" x1="0.034" y1="0.988" x2="1.68" y2="0.988" xlink:href="#linear-gradient-10"/>
    <linearGradient id="linear-gradient-14" x1="0.893" y1="-0.015" x2="-0.751" y2="0.031" xlink:href="#linear-gradient-10"/>
    <linearGradient id="linear-gradient-15" x1="0.077" y1="0.012" x2="2.033" y2="0.012" xlink:href="#linear-gradient-10"/>
    <linearGradient id="linear-gradient-16" x1="0.936" y1="1.002" x2="-1.021" y2="1.002" xlink:href="#linear-gradient-10"/>
    <linearGradient id="linear-gradient-17" x1="0.71" y1="0.091" x2="0.013" y2="0.885" xlink:href="#linear-gradient-11"/>
    <linearGradient id="linear-gradient-18" x1="3.253" y1="0.091" x2="2.556" y2="0.885" xlink:href="#linear-gradient-11"/>
  </defs>
  <g id="地圖" transform="translate(-195.941 -21.073)">
    <g id="圖層_1" data-name="圖層 1" transform="translate(195.941 21.073)">
      <g id="Group_378" data-name="Group 378">
        <path id="Path_1436" data-name="Path 1436" d="M702.516,99.627c-4.542-.6-9.22-.173-13.675-.173-.646-1.773-.755-4.012-1.822-4.647-4.1-2.443-3.466-6.2-3.466-9.881,0-1.675.057-3.354-.028-5.026-.279-5.579-2.769-8.1-8.26-8.251-3.906-.107-7.845.252-11.725-.109-14.972-1.394-45.511-20.813-48.034-24.419-2.314-3.3-12.856-20.439-19.573-20.042-11.818.7-36.19,20.018-38.966,23.258-2.424,2.828-2.6,5.617.193,8.36a64.034,64.034,0,0,1,4.65,4.813c2.983,3.621,2.943,4.66.034,9.217-6.484-6.615-14.013-5.349-21.7-2.813-5.241,1.728-10.436,3.63-15.748,5.112-11.029,3.075-22.217,5.61-33.17,8.933-18.37,5.573-62.127,66.774-64.55,72.11-3.264,7.185-6.235,14.508-9.681,21.6-3.472,7.147-26.493,27.43-30.417,31.495-7.585,7.856-18.726,27.007-18.931,27.319-9.751,14.863-19.619,29.652-29.214,44.616-6.55,10.212-15.32,19.691-16.282,32.327-.831,10.929-6.316,17.837-14.128,24.518a27,27,0,0,0-8.347,13.792c-1.855,8.5-6.019,14.729-12.146,20.574-4.556,4.347-9.4,9.484-11.391,15.215-5.618,16.143-13.164,31.175-23.858,44.3-13.209,16.214-20.877,35.636-32.261,52.863a10.75,10.75,0,0,0-1.968,5.107c-.444,11.117-2.411,22.575-.432,33.282,2.021,10.934,5.531,21.523,4.73,32.852a12.821,12.821,0,0,0,.419,2.183c.967,8.188.858,16.093-3.1,23.805a225.141,225.141,0,0,0-10.351,23.883c-1.22,3.251-.905,7.076-1.289,10.644,1.062.723-1.113,9.179.6,19.912.029.183,44.57,135.075,47.8,139.13,3.348,4.2,22.99,39.087,32.907,38.411,3.763-.259,8,3.224,11.656,5.562,2.931,1.872,5.27,4.65,7.959,6.925,10.054,8.5,21.554,15.772,29.933,25.684,18.262,21.6,29,46.223,23.43,75.738-1.093,5.791-1.622,13.115,1.014,17.812,3.181,5.668,6.333,10.061,4.767,17.071-.915,4.1,3.293,5.771,7.008,6.319,4.2.619,4.157-2.535,4.549-5.333.215-1.536,4.031-5.469,4.472-5.674,9.039-4.208,17.455,21.039,21.372,16.428-.216-4.1,1.154-8.265.446-10.818-1.7-6.117-1.491-10.079,2.54-14.764,5.983-6.958,7.053-15.159,6.917-23.954-.226-14.474-.555-28.99.256-43.428.659-11.727,8.207-47.851,9.818-54.28.754-3.01,1-6.82,2.964-8.722,5.49-5.316,6.638-12.079,8.33-18.88.644-2.586,2.408-4.919,3.8-7.288,4.087-6.95,8.063-13.977,12.439-20.745,2.934-4.541,5.853-9.412,9.872-12.87,7.7-6.623,16.442-12.029,24.257-18.536,7.734-6.44,35.677-69.576,40.408-74.209,6.581-6.451,25.509-33,28.424-41.236,1.148-3.243,1.543-24.376,4.369-29.889,5.1-9.941,16.605-39.96,17.364-42.972a212.818,212.818,0,0,0,4.119-22.873c1.568-11.37,21.752-98.849,22.12-106.588.568-11.915,1.488-23.152,9.178-33.034,2.745-3.525,4.265-8.672.292-12.251-6.83-6.153-4.236-11.741-.8-18.259,3.736-7.093,6.456-14.718,9.717-22.065a19.792,19.792,0,0,1,3.079-5.241c7.671-8.519,16.682-15.94,23.291-25.306,7.888-11.183,11.516-75.039,10.486-80.5-3.248-17.233,2.912-63.58,4.767-70.563,1.671-6.295,3.607-12.108,5.359-13.839,4.849-4.794,9.323-10,14.448-14.468,6.96-6.07,14.479-11.494,21.535-17.46,1.774-1.5,2.689-4.013,4-6.062C707.04,102.042,704.9,99.94,702.516,99.627Z" transform="translate(-192.791 -19.498)" fill="#898450"/>
        <path id="Path_1437" data-name="Path 1437" d="M690.9,93.683c-4.547-.6-9.227-.173-13.686-.173-.646-1.774-.756-4.015-1.822-4.651-4.1-2.444-3.469-6.205-3.469-9.889,0-1.677.058-3.357-.027-5.03-.28-5.583-2.771-8.106-8.268-8.258-3.909-.107-7.851.252-11.732-.109-14.985-1.394-45.547-20.829-48.073-24.438-2.315-3.305-12.865-20.455-19.587-20.057-11.827.7-36.218,20.033-39,23.276-2.424,2.829-2.6,5.622.193,8.368a63.914,63.914,0,0,1,4.655,4.816c2.984,3.622,2.944,4.661.033,9.224-6.489-6.62-14.023-5.353-21.717-2.815-5.244,1.73-10.442,3.633-15.759,5.114-11.038,3.079-22.236,5.617-33.2,8.942-18.385,5.576-62.175,66.826-64.6,72.165-3.266,7.191-6.24,14.52-9.688,21.62-3.473,7.153-26.512,27.451-30.439,31.519-7.591,7.861-18.74,27.028-18.945,27.339-9.76,14.874-19.635,29.674-29.238,44.65C319.981,285.517,311.2,295,310.24,307.65c-.831,10.937-6.321,17.85-14.138,24.539a27,27,0,0,0-8.354,13.8c-1.857,8.507-6.025,14.741-12.156,20.59-4.559,4.349-9.4,9.491-11.4,15.227-5.622,16.155-13.175,31.2-23.876,44.339-13.221,16.225-20.894,35.662-32.288,52.9a10.728,10.728,0,0,0-1.968,5.109c-.446,11.129-2.415,22.593-.433,33.31,2.024,10.942,5.536,21.536,4.734,32.877a12.686,12.686,0,0,0,.42,2.183c.966,8.195.857,16.108-3.107,23.824a225.559,225.559,0,0,0-10.36,23.9c-1.22,3.252-.905,7.08-1.289,10.65,1.062.725-1.113,9.188.6,19.928.029.182,44.6,135.18,47.837,139.235,3.352,4.208,23.008,39.12,32.933,38.443,3.767-.258,8,3.227,11.668,5.565,2.931,1.873,5.273,4.655,7.964,6.932,10.062,8.509,21.571,15.785,29.956,25.7,18.277,21.619,29.027,46.261,23.449,75.8-1.093,5.795-1.624,13.126,1.015,17.826,3.184,5.675,6.336,10.067,4.77,17.082-.917,4.1,3.3,5.778,7.014,6.327,4.2.619,4.161-2.539,4.552-5.34.215-1.536,4.034-5.471,4.474-5.677,9.047-4.212,17.469,21.057,21.39,16.445-.216-4.107,1.154-8.277.446-10.831-1.7-6.12-1.492-10.087,2.541-14.775,5.988-6.963,7.06-15.17,6.923-23.973-.226-14.484-.555-29.01.256-43.461.659-11.736,8.214-47.891,9.826-54.321.754-3.012,1-6.825,2.967-8.73,5.494-5.321,6.643-12.088,8.336-18.894.644-2.588,2.41-4.924,3.8-7.293,4.09-6.956,8.07-13.988,12.448-20.761,2.937-4.545,5.859-9.422,9.88-12.881,7.706-6.627,16.456-12.039,24.276-18.551,7.741-6.445,35.706-69.629,40.439-74.266,6.588-6.455,25.53-33.03,28.447-41.269,1.149-3.245,1.544-24.395,4.373-29.912,5.1-9.947,16.617-39.99,17.377-43a212.786,212.786,0,0,0,4.122-22.891c1.569-11.376,21.77-98.926,22.137-106.67.571-11.924,1.49-23.171,9.187-33.059,2.746-3.529,4.267-8.681.29-12.26-6.835-6.158-4.238-11.752-.8-18.276,3.738-7.1,6.461-14.727,9.725-22.082a19.786,19.786,0,0,1,3.082-5.244c7.677-8.525,16.7-15.953,23.309-25.325,7.894-11.192,11.525-75.1,10.495-80.562-3.252-17.247,2.913-63.631,4.77-70.62,1.673-6.3,3.611-12.117,5.363-13.849,4.854-4.8,9.332-10.006,14.46-14.479,6.964-6.074,14.489-11.5,21.55-17.474,1.776-1.5,2.693-4.017,4.007-6.066C695.429,96.1,693.282,94,690.9,93.683Z" transform="translate(-195.941 -21.073)" fill="#9cc24e"/>
        <g id="Group_377" data-name="Group 377" transform="translate(114.333 523.615)">
          <path id="Path_1438" data-name="Path 1438" d="M396.543,561.027c-25.509,18.73-37.518,71.739-53.746,97.946-11.183,18.061-42.756,47.276-56.293,63.646,6.023,4.7,11.884,9.527,16.709,15.233,18.277,21.619,29.027,46.261,23.449,75.8-1.093,5.795-1.624,13.126,1.015,17.826,3.184,5.675,6.336,10.067,4.77,17.082-.917,4.1,3.3,5.778,7.014,6.327,4.2.619,4.161-2.539,4.552-5.34.215-1.536,4.034-5.471,4.474-5.677,9.047-4.212,17.469,21.057,21.39,16.445-.216-4.107,1.154-8.277.446-10.831-1.7-6.12-1.492-10.087,2.541-14.775,5.988-6.963,7.06-15.17,6.923-23.973-.226-14.484-.555-29.01.256-43.461.659-11.736,8.214-47.891,9.826-54.321.754-3.012,1-6.825,2.967-8.73,5.494-5.321,6.643-12.088,8.336-18.894.644-2.588,2.41-4.924,3.8-7.293,4.09-6.956,8.07-13.988,12.448-20.761,2.937-4.545,5.859-9.422,9.88-12.881,7.706-6.627,16.456-12.039,24.276-18.551,7.741-6.445,35.706-69.629,40.439-74.266,6.588-6.455,25.53-33.03,28.447-41.269,1.149-3.245,1.544-24.395,4.373-29.912,5.1-9.947,16.617-39.99,17.377-43,1.889-7.5-33.733,13.381-51.408,32.738C459.083,504.876,429.789,536.619,396.543,561.027Z" transform="translate(-286.504 -435.827)" fill="#fcef86"/>
        </g>
      </g>
    </g>
    <g id="圖層_3" data-name="圖層 3" transform="translate(260.933 72.023)">
      <path id="Path_1831" data-name="Path 1831" d="M483.381,120.579c0,9.2-8.129,18.435-18.159,18.435s-18.159-9.232-18.159-18.435c0-3.736,1.775-4.443,4.037-7.221,3.311-4.065,8.164-9.441,14.122-9.441,6.666,0,9.591,5.753,12.75,10.663C479.567,117.059,483.381,117.492,483.381,120.579Z" transform="translate(-195.021 -50.278)" fill="url(#linear-gradient)"/>
      <path id="Path_1832" data-name="Path 1832" d="M462.906,118.578s-2.406,18.073-3.376,24.049c-.452,2.776-2.488,11.015-2.488,11.015s3.652.561,4.974.561,4.978-.561,4.978-.561-1.833-8.365-2.135-11.055C464.184,136.516,462.906,118.578,462.906,118.578Z" transform="translate(-192.402 -46.43)" fill="#502613"/>
      <path id="Path_1833" data-name="Path 1833" d="M514.6,301.992c0,10.7-9.448,21.425-21.106,21.425s-21.1-10.73-21.1-21.425c0-4.342,2.062-5.162,4.69-8.393,3.849-4.724,9.49-10.972,16.413-10.972,7.747,0,11.146,6.686,14.819,12.392C510.169,297.9,514.6,298.4,514.6,301.992Z" transform="translate(-188.373 -3.373)" fill="url(#linear-gradient)"/>
      <path id="Path_1834" data-name="Path 1834" d="M490.807,299.667s-2.8,21-3.925,27.948c-.524,3.228-2.891,12.8-2.891,12.8s4.244.653,5.782.653,5.783-.653,5.783-.653-2.13-9.722-2.48-12.848C492.292,320.515,490.807,299.667,490.807,299.667Z" transform="translate(-185.329 1.1)" fill="#502613"/>
      <path id="Path_1835" data-name="Path 1835" d="M289.63,586.595c0,10.694-9.448,21.425-21.1,21.425s-21.1-10.731-21.1-21.425c0-4.342,2.063-5.163,4.691-8.393,3.848-4.724,9.489-10.972,16.413-10.972,7.745,0,11.146,6.686,14.818,12.392C285.2,582.5,289.63,583.008,289.63,586.595Z" transform="translate(-247.421 71.327)" fill="url(#linear-gradient)"/>
      <path id="Path_1836" data-name="Path 1836" d="M265.835,584.271s-2.8,21-3.924,27.947c-.525,3.228-2.892,12.8-2.892,12.8s4.246.65,5.783.65,5.783-.65,5.783-.65-2.131-9.722-2.479-12.849C267.321,605.118,265.835,584.271,265.835,584.271Z" transform="translate(-244.377 75.799)" fill="#502613"/>
      <path id="Path_1837" data-name="Path 1837" d="M567.908,77.686c0,8.977-7.932,17.986-17.719,17.986s-17.715-9.009-17.715-17.986c0-3.645,1.731-4.334,3.936-7.045,3.231-3.968,7.968-9.211,13.779-9.211,6.5,0,9.359,5.612,12.44,10.4C564.186,74.252,567.908,74.673,567.908,77.686Z" transform="translate(-172.604 -61.43)" fill="url(#linear-gradient-4)"/>
      <path id="Path_1838" data-name="Path 1838" d="M547.932,75.734s-2.347,17.633-3.3,23.462c-.439,2.709-2.426,10.749-2.426,10.749s3.563.547,4.854.547,4.854-.547,4.854-.547-1.789-8.162-2.081-10.787C549.178,93.236,547.932,75.734,547.932,75.734Z" transform="translate(-170.048 -57.676)" fill="#502613"/>
      <path id="Path_1839" data-name="Path 1839" d="M401.043,342.007c0,7.786-6.879,15.6-15.365,15.6s-15.366-7.812-15.366-15.6c0-3.162,1.5-3.76,3.416-6.112,2.8-3.439,6.908-7.988,11.949-7.988,5.639,0,8.115,4.867,10.788,9.023C397.816,339.028,401.043,339.4,401.043,342.007Z" transform="translate(-215.166 8.512)" fill="url(#linear-gradient)"/>
      <path id="Path_1840" data-name="Path 1840" d="M383.717,340.314s-2.035,15.292-2.856,20.349c-.381,2.349-2.106,9.321-2.106,9.321s3.091.475,4.21.475,4.21-.475,4.21-.475-1.55-7.079-1.8-9.355C384.8,355.493,383.717,340.314,383.717,340.314Z" transform="translate(-212.95 11.768)" fill="#502613"/>
    </g>
    <g id="圖層_4" data-name="圖層 4" transform="translate(212.968 239.464)">
      <path id="Path_1841" data-name="Path 1841" d="M393.316,223.423c.712-2.835,1.632-8.817,3.454-10.362,1.857-1.576,6.908-3.07,9.211-1.919,3.277,1.639,8.53-7.137,12.154-7.676a57.11,57.11,0,0,1,18.359.959c2.7.665,10.42,5.217,11.578,7.741,1.226,2.674-2.012,9.623,0,11.769,1.923,2.052,9.924.636,10.747,3.325,1.805,5.916-11.934,14.824-17.528,17.464-6.365,3-28.019,2.751-28.019,2.751s-20.091-4.055-23.282-9.467C387.8,234.29,392.4,227.05,393.316,223.423Z" transform="translate(-162.19 -191.686)" fill="url(#linear-gradient-6)"/>
      <path id="Path_1842" data-name="Path 1842" d="M418.454,245.723l9.1-17.611-9.518,10.967c-.641-10.556-1.25-21.905-1.25-21.905s-2.766,27.584-3.88,36.7c-.519,4.239-2.858,16.814-2.858,16.814a47.628,47.628,0,0,0,5.718.856,47.609,47.609,0,0,0,5.715-.856s-2.106-12.769-2.451-16.874C418.866,251.811,418.666,248.96,418.454,245.723Z" transform="translate(-156.771 -187.994)" fill="#502613"/>
      <path id="Path_1843" data-name="Path 1843" d="M212.883,403.306c.629-2.5,1.442-7.788,3.05-9.153,1.641-1.391,6.1-2.713,8.137-1.7,2.895,1.447,7.536-6.3,10.736-6.781a50.509,50.509,0,0,1,16.216.848c2.382.587,9.2,4.608,10.227,6.838,1.082,2.363-1.778,8.5,0,10.4,1.7,1.812,8.767.562,9.494,2.938,1.594,5.225-10.542,13.094-15.483,15.425-5.623,2.652-24.749,2.429-24.749,2.429s-17.747-3.582-20.567-8.363C208.009,412.906,212.078,406.51,212.883,403.306Z" transform="translate(-209.428 -143.85)" fill="url(#linear-gradient-6)"/>
      <path id="Path_1844" data-name="Path 1844" d="M235.088,423l8.041-15.556-8.408,9.687c-.566-9.323-1.1-19.349-1.1-19.349s-2.443,24.364-3.426,32.418c-.458,3.746-2.525,14.852-2.525,14.852a42.1,42.1,0,0,0,5.051.756,42.075,42.075,0,0,0,5.049-.756s-1.86-11.278-2.165-14.9C235.452,428.383,235.275,425.863,235.088,423Z" transform="translate(-204.641 -140.588)" fill="#502613"/>
      <path id="Path_1845" data-name="Path 1845" d="M321.895,481.932c.571-2.274,1.308-7.069,2.769-8.307,1.49-1.262,5.538-2.461,7.384-1.539,2.627,1.314,6.839-5.72,9.742-6.153a45.838,45.838,0,0,1,14.718.77c2.161.534,8.354,4.181,9.282,6.2.982,2.146-1.613,7.716,0,9.436,1.542,1.645,7.956.51,8.615,2.666,1.448,4.742-9.566,11.885-14.051,14-5.1,2.408-22.461,2.207-22.461,2.207s-16.105-3.252-18.664-7.59C317.471,490.644,321.164,484.841,321.895,481.932Z" transform="translate(-180.732 -122.778)" fill="url(#linear-gradient-6)"/>
      <path id="Path_1846" data-name="Path 1846" d="M342.047,499.809l7.3-14.117-7.63,8.792c-.514-8.464-1-17.561-1-17.561s-2.217,22.112-3.109,29.422c-.415,3.4-2.291,13.478-2.291,13.478a38.228,38.228,0,0,0,4.584.685,38.206,38.206,0,0,0,4.581-.685s-1.688-10.235-1.964-13.526C342.376,504.69,342.217,502.4,342.047,499.809Z" transform="translate(-176.388 -119.818)" fill="#502613"/>
      <path id="Path_1847" data-name="Path 1847" d="M308.828,214.377c.712-2.836,1.632-8.817,3.453-10.362,1.858-1.576,6.909-3.07,9.212-1.919,3.277,1.639,8.53-7.137,12.154-7.676a57.151,57.151,0,0,1,18.359.959c2.7.665,10.42,5.217,11.578,7.741,1.225,2.674-2.012,9.623,0,11.769,1.923,2.052,9.924.636,10.746,3.325,1.807,5.916-11.933,14.824-17.527,17.464-6.365,3-28.019,2.751-28.019,2.751s-20.091-4.055-23.282-9.467C303.31,225.244,307.915,218,308.828,214.377Z" transform="translate(-184.365 -194.06)" fill="url(#linear-gradient-6)"/>
      <path id="Path_1848" data-name="Path 1848" d="M333.966,236.677l9.1-17.611-9.518,10.968c-.641-10.557-1.251-21.906-1.251-21.906s-2.765,27.584-3.878,36.7c-.519,4.239-2.859,16.814-2.859,16.814a47.66,47.66,0,0,0,5.719.856,47.609,47.609,0,0,0,5.715-.856s-2.106-12.769-2.45-16.874C334.378,242.766,334.178,239.914,333.966,236.677Z" transform="translate(-178.946 -190.368)" fill="#502613"/>
    </g>
    <g id="圖層_5" data-name="圖層 5" transform="translate(223.239 286.941)">
      <path id="Path_1849" data-name="Path 1849" d="M527.972,259.41a11.684,11.684,0,0,0,2.756-7.255c0-11.314-19.067-20.487-42.586-20.487-10.374,0-19.876,1.786-27.264,4.751a45.818,45.818,0,0,0-8.936-.867c-15.479,0-28.024,7.433-28.024,16.6s12.545,16.6,28.024,16.6a45.815,45.815,0,0,0,8.936-.866c7.387,2.964,16.891,4.751,27.264,4.751,2.678,0,5.292-.125,7.832-.351.139,7.326,11.047,13.242,24.489,13.242,13.527,0,24.5-5.992,24.5-13.383C544.96,266.189,537.825,261.142,527.972,259.41Z" transform="translate(-163.403 -231.667)" fill="#25b4eb"/>
      <path id="Path_1850" data-name="Path 1850" d="M285.983,482.537c2.033-1.245,3.174-2.627,3.174-4.085,0-5.484-16.027-9.929-35.8-9.929s-35.8,4.445-35.8,9.929,16.027,9.929,35.8,9.929c1.491,0,2.958-.029,4.4-.078a2.526,2.526,0,0,0-.388,1.3c0,3.993,10.571,7.228,23.611,7.228S304.6,493.595,304.6,489.6C304.6,486.136,296.622,483.24,285.983,482.537Z" transform="translate(-217.564 -169.5)" fill="#25b4eb"/>
    </g>
    <g id="圖層_6" data-name="圖層 6" transform="translate(240.504 255.499)">
      <path id="Path_1851" data-name="Path 1851" d="M454.727,242.646s14.954-29.414,21.761-33.954c2.454-1.639,8.007-1.422,10.5,0,8.65,4.917,25.109,36.205,25.109,36.205s-22.221.841-30.669.177C474.279,244.509,454.727,242.646,454.727,242.646Z" transform="translate(-172.58 -206.557)" fill="#535453"/>
      <path id="Path_1852" data-name="Path 1852" d="M464.277,221.344s4.145-3.064,7.954-1.4c2.724,1.192,5.273,6.806,6.838,6.844,1.944.049,4.324-4.5,7.712-5.844,4.045-1.607,8.76.4,8.76.4s-7.258-10.886-10.3-12.779a19.616,19.616,0,0,0-7.055-1.8c-1.77.1-4.319,1.745-5.913,3.029C470.053,211.583,464.277,221.344,464.277,221.344Z" transform="translate(-170.074 -206.762)" fill="#fff"/>
      <path id="Path_1853" data-name="Path 1853" d="M435.507,246.836S454.88,225.1,463.7,221.746c3.18-1.211,10.372-1.05,13.608,0,11.207,3.633,32.529,26.753,32.529,26.753s-28.786.621-39.731.13C460.835,248.213,435.507,246.836,435.507,246.836Z" transform="translate(-177.625 -203.051)" fill="#538483"/>
      <path id="Path_1854" data-name="Path 1854" d="M446.907,232.467s5.752-2.551,11.031-1.164c3.78.995,7.316,5.671,9.484,5.7,2.7.04,6-3.748,10.7-4.868,5.612-1.34,12.151.329,12.151.329S480.2,223.4,475.99,221.824a42.463,42.463,0,0,0-9.784-1.5c-2.456.081-5.992,1.454-8.2,2.524C454.921,224.337,446.907,232.467,446.907,232.467Z" transform="translate(-174.633 -203.203)" fill="#fff"/>
      <path id="Path_1855" data-name="Path 1855" d="M350.562,390.92s11.284-19.587,16.42-22.61c1.852-1.091,6.041-.947,7.926,0,6.527,3.274,18.945,24.108,18.945,24.108s-16.764.559-23.14.116C365.315,392.159,350.562,390.92,350.562,390.92Z" transform="translate(-199.92 -164.561)" fill="#538483"/>
      <path id="Path_1856" data-name="Path 1856" d="M357.2,377.971s3.351-2.3,6.425-1.049c2.2.9,4.262,5.11,5.525,5.139,1.571.035,3.493-3.38,6.23-4.388,3.269-1.206,7.077.3,7.077.3s-5.864-8.172-8.317-9.591a16.823,16.823,0,0,0-5.7-1.352c-1.43.072-3.489,1.31-4.778,2.275C361.869,370.645,357.2,377.971,357.2,377.971Z" transform="translate(-198.178 -164.698)" fill="#fff"/>
      <path id="Path_1857" data-name="Path 1857" d="M372.376,397.262s10.486-15.5,15.257-17.894c1.721-.862,5.614-.749,7.365,0,6.066,2.591,17.6,19.08,17.6,19.08s-15.578.442-21.5.091C386.084,398.242,372.376,397.262,372.376,397.262Z" transform="translate(-194.195 -161.617)" fill="#535453"/>
      <path id="Path_1858" data-name="Path 1858" d="M378.546,387.013s3.113-1.819,5.971-.829c2.044.71,3.959,4.045,5.132,4.068,1.459.027,3.247-2.675,5.791-3.473a12.251,12.251,0,0,1,6.576.235s-5.45-6.466-7.73-7.59a17.93,17.93,0,0,0-5.295-1.071,11.036,11.036,0,0,0-4.441,1.8C382.883,381.216,378.546,387.013,378.546,387.013Z" transform="translate(-192.576 -161.725)" fill="#fff"/>
      <path id="Path_1859" data-name="Path 1859" d="M231.239,477.266s11.473-15.276,16.692-17.634c1.885-.851,6.143-.737,8.06,0,6.637,2.553,19.26,18.8,19.26,18.8s-17.043.437-23.525.092C246.238,478.232,231.239,477.266,231.239,477.266Z" transform="translate(-231.239 -140.548)" fill="#535453"/>
      <path id="Path_1860" data-name="Path 1860" d="M237.99,467.167s3.406-1.793,6.533-.819c2.237.7,4.332,3.987,5.615,4.011,1.6.025,3.553-2.637,6.335-3.424a14.826,14.826,0,0,1,7.2.232s-5.963-6.374-8.459-7.481a21.537,21.537,0,0,0-5.792-1.054,12.841,12.841,0,0,0-4.859,1.774C242.734,461.453,237.99,467.167,237.99,467.167Z" transform="translate(-229.467 -140.654)" fill="#fff"/>
    </g>
    <g id="圖層_9" data-name="圖層 9" transform="translate(289.063 323.015)">
      <path id="Path_1861" data-name="Path 1861" d="M511.188,260.241s-117.622,63.142-148.95,94.381c-19.838,19.782-60.645,55.884-48.89,85.217,2.808,7.008,20.648,34.811,22.7,42.076,5.826,20.593-24.44,68.823-37.118,86.065-9.188,12.5-20.643,31.634-20.016,47.132.442,10.937,17.64,30.136,20.016,40.821C304.769,682.167,269.7,751.3,269.7,751.3s8.124,9.823,7.964,6.932c-1.365-24.525,37.409-75.28,35.681-99.781-.824-11.69-28.624-33.443-26.858-45.028,5.667-37.161,66.051-95.677,54.707-131.515-2.168-6.849-21.641-41.1-23.565-48.024-6.406-23.036,30.333-54.941,46.5-72.558,31.675-34.516,160.783-96.267,160.783-96.267Z" transform="translate(-269.703 -260.241)" fill="#25b4eb"/>
    </g>
    <g id="花" transform="translate(245.858 88.118)">
      <ellipse id="Ellipse_69" data-name="Ellipse 69" cx="5.108" cy="1.489" rx="5.108" ry="1.489" transform="translate(208.868 248.092)" fill="url(#linear-gradient-10)"/>
      <rect id="Rectangle_328" data-name="Rectangle 328" width="0.689" height="19.467" transform="translate(208.265 251.325)" fill="url(#linear-gradient-11)"/>
      <ellipse id="Ellipse_70" data-name="Ellipse 70" cx="5.108" cy="1.489" rx="5.108" ry="1.489" transform="translate(198.651 248.092)" fill="url(#linear-gradient-12)"/>
      <path id="Path_1998" data-name="Path 1998" d="M338.738,247.162c-.683-.458-2.51,1.071-4.081,3.415s-2.291,4.615-1.608,5.072,2.51-1.071,4.081-3.414S339.421,247.62,338.738,247.162Z" transform="translate(-124.182 -6.069)" fill="url(#linear-gradient-13)"/>
      <path id="Path_1999" data-name="Path 1999" d="M282.689,330.782c-.683-.458-2.51,1.071-4.081,3.415s-2.291,4.614-1.608,5.072,2.51-1.071,4.081-3.415S283.372,331.24,282.689,330.782Z" transform="translate(-73.821 -81.202)" fill="url(#linear-gradient-14)"/>
      <path id="Path_2000" data-name="Path 2000" d="M336.551,340.006c.739-.361.334-2.708-.9-5.243s-2.841-4.3-3.579-3.937-.334,2.708.9,5.243S335.813,340.367,336.551,340.006Z" transform="translate(-123.199 -81.272)" fill="url(#linear-gradient-15)"/>
      <path id="Path_2001" data-name="Path 2001" d="M292.369,249.554c.739-.361.334-2.708-.9-5.243s-2.841-4.3-3.58-3.937-.334,2.708.9,5.243S291.63,249.915,292.369,249.554Z" transform="translate(-83.501)" fill="url(#linear-gradient-16)"/>
      <path id="Path_2002" data-name="Path 2002" d="M323.45,316.6a1.513,1.513,0,1,1-1.513-1.513A1.513,1.513,0,0,1,323.45,316.6Z" transform="translate(-113.069 -67.169)" fill="#f27f04"/>
      <path id="Path_2003" data-name="Path 2003" d="M336.037,478.341s-.478-5,3.9-6.578,9.768,1.581,9.768,1.581-7.514-.055-9.339,1.122C339.355,475.117,336.037,478.341,336.037,478.341Z" transform="translate(-127.084 -207.549)" fill="url(#linear-gradient-17)"/>
      <path id="Path_2004" data-name="Path 2004" d="M208.25,478.341s.478-5-3.9-6.578-9.768,1.581-9.768,1.581,7.514-.055,9.339,1.122C204.932,475.117,208.25,478.341,208.25,478.341Z" transform="translate(0 -207.549)" fill="url(#linear-gradient-18)"/>
    </g>
    <g id="花-2" data-name="花" transform="translate(223.858 95.396)">
      <ellipse id="Ellipse_69-2" data-name="Ellipse 69" cx="6.403" cy="1.866" rx="6.403" ry="1.866" transform="translate(212.489 250.06)" fill="url(#linear-gradient-10)"/>
      <rect id="Rectangle_328-2" data-name="Rectangle 328" width="0.864" height="24.401" transform="translate(211.734 254.113)" fill="url(#linear-gradient-11)"/>
      <ellipse id="Ellipse_70-2" data-name="Ellipse 70" cx="6.403" cy="1.866" rx="6.403" ry="1.866" transform="translate(199.682 250.06)" fill="url(#linear-gradient-12)"/>
      <path id="Path_1998-2" data-name="Path 1998" d="M340.246,247.183c-.856-.574-3.146,1.343-5.115,4.28s-2.871,5.784-2.015,6.358,3.146-1.342,5.115-4.28S341.1,247.757,340.246,247.183Z" transform="translate(-120.626 -5.895)" fill="url(#linear-gradient-13)"/>
      <path id="Path_1999-2" data-name="Path 1999" d="M284.2,330.8c-.856-.574-3.146,1.343-5.115,4.28s-2.871,5.784-2.015,6.358,3.146-1.343,5.115-4.28S285.052,331.377,284.2,330.8Z" transform="translate(-71.707 -78.877)" fill="url(#linear-gradient-14)"/>
      <path id="Path_2000-2" data-name="Path 2000" d="M337.781,342.345c.926-.452.418-3.395-1.134-6.573s-3.561-5.387-4.487-4.935-.418,3.395,1.134,6.573S336.856,342.8,337.781,342.345Z" transform="translate(-119.671 -78.945)" fill="url(#linear-gradient-15)"/>
      <path id="Path_2001-2" data-name="Path 2001" d="M293.6,251.893c.926-.452.418-3.395-1.134-6.573s-3.561-5.387-4.487-4.935-.418,3.395,1.134,6.573S292.673,252.345,293.6,251.893Z" transform="translate(-81.11)" fill="url(#linear-gradient-16)"/>
      <path id="Path_2002-2" data-name="Path 2002" d="M324.217,316.98a1.9,1.9,0,1,1-1.9-1.9A1.9,1.9,0,0,1,324.217,316.98Z" transform="translate(-109.832 -65.245)" fill="#f27f04"/>
      <path id="Path_2003-2" data-name="Path 2003" d="M336.041,480.121s-.6-6.265,4.887-8.246,12.244,1.982,12.244,1.982-9.419-.069-11.707,1.406C340.2,476.079,336.041,480.121,336.041,480.121Z" transform="translate(-123.445 -201.606)" fill="url(#linear-gradient-17)"/>
      <path id="Path_2004-2" data-name="Path 2004" d="M211.715,480.121s.6-6.265-4.887-8.246-12.244,1.982-12.244,1.982,9.419-.069,11.707,1.406C207.555,476.079,211.715,480.121,211.715,480.121Z" transform="translate(0 -201.606)" fill="url(#linear-gradient-18)"/>
    </g>
    <g id="花-3" data-name="花" transform="translate(145.858 222.396)">
      <ellipse id="Ellipse_69-3" data-name="Ellipse 69" cx="6.403" cy="1.866" rx="6.403" ry="1.866" transform="translate(212.489 250.06)" fill="url(#linear-gradient-10)"/>
      <rect id="Rectangle_328-3" data-name="Rectangle 328" width="0.864" height="24.401" transform="translate(211.734 254.113)" fill="url(#linear-gradient-11)"/>
      <ellipse id="Ellipse_70-3" data-name="Ellipse 70" cx="6.403" cy="1.866" rx="6.403" ry="1.866" transform="translate(199.682 250.06)" fill="url(#linear-gradient-12)"/>
      <path id="Path_1998-3" data-name="Path 1998" d="M340.246,247.183c-.856-.574-3.146,1.343-5.115,4.28s-2.871,5.784-2.015,6.358,3.146-1.342,5.115-4.28S341.1,247.757,340.246,247.183Z" transform="translate(-120.626 -5.895)" fill="url(#linear-gradient-13)"/>
      <path id="Path_1999-3" data-name="Path 1999" d="M284.2,330.8c-.856-.574-3.146,1.343-5.115,4.28s-2.871,5.784-2.015,6.358,3.146-1.343,5.115-4.28S285.052,331.377,284.2,330.8Z" transform="translate(-71.707 -78.877)" fill="url(#linear-gradient-14)"/>
      <path id="Path_2000-3" data-name="Path 2000" d="M337.781,342.345c.926-.452.418-3.395-1.134-6.573s-3.561-5.387-4.487-4.935-.418,3.395,1.134,6.573S336.856,342.8,337.781,342.345Z" transform="translate(-119.671 -78.945)" fill="url(#linear-gradient-15)"/>
      <path id="Path_2001-3" data-name="Path 2001" d="M293.6,251.893c.926-.452.418-3.395-1.134-6.573s-3.561-5.387-4.487-4.935-.418,3.395,1.134,6.573S292.673,252.345,293.6,251.893Z" transform="translate(-81.11)" fill="url(#linear-gradient-16)"/>
      <path id="Path_2002-3" data-name="Path 2002" d="M324.217,316.98a1.9,1.9,0,1,1-1.9-1.9A1.9,1.9,0,0,1,324.217,316.98Z" transform="translate(-109.832 -65.245)" fill="#f27f04"/>
      <path id="Path_2003-3" data-name="Path 2003" d="M336.041,480.121s-.6-6.265,4.887-8.246,12.244,1.982,12.244,1.982-9.419-.069-11.707,1.406C340.2,476.079,336.041,480.121,336.041,480.121Z" transform="translate(-123.445 -201.606)" fill="url(#linear-gradient-17)"/>
      <path id="Path_2004-3" data-name="Path 2004" d="M211.715,480.121s.6-6.265-4.887-8.246-12.244,1.982-12.244,1.982,9.419-.069,11.707,1.406C207.555,476.079,211.715,480.121,211.715,480.121Z" transform="translate(0 -201.606)" fill="url(#linear-gradient-18)"/>
    </g>
    <g id="花-4" data-name="花" transform="translate(287.858 313.899)">
      <ellipse id="Ellipse_69-4" data-name="Ellipse 69" cx="4.978" cy="1.45" rx="4.978" ry="1.45" transform="translate(208.502 247.893)" fill="url(#linear-gradient-10)"/>
      <rect id="Rectangle_328-4" data-name="Rectangle 328" width="0.672" height="18.968" transform="translate(207.915 251.044)" fill="url(#linear-gradient-11)"/>
      <ellipse id="Ellipse_70-4" data-name="Ellipse 70" cx="4.978" cy="1.45" rx="4.978" ry="1.45" transform="translate(198.547 247.893)" fill="url(#linear-gradient-12)"/>
      <path id="Path_1998-4" data-name="Path 1998" d="M338.586,247.16c-.665-.446-2.446,1.044-3.976,3.327s-2.232,4.5-1.567,4.942,2.446-1.043,3.976-3.327S339.251,247.606,338.586,247.16Z" transform="translate(-124.541 -6.086)" fill="url(#linear-gradient-13)"/>
      <path id="Path_1999-4" data-name="Path 1999" d="M282.537,330.78c-.665-.446-2.445,1.044-3.976,3.327s-2.232,4.5-1.567,4.942,2.445-1.044,3.976-3.327S283.2,331.226,282.537,330.78Z" transform="translate(-74.035 -81.437)" fill="url(#linear-gradient-14)"/>
      <path id="Path_2000-4" data-name="Path 2000" d="M336.427,339.77c.72-.352.325-2.639-.882-5.109s-2.768-4.188-3.488-3.836-.325,2.639.881,5.109S335.707,340.122,336.427,339.77Z" transform="translate(-123.555 -81.507)" fill="url(#linear-gradient-15)"/>
      <path id="Path_2001-4" data-name="Path 2001" d="M292.244,249.318c.72-.352.325-2.639-.881-5.109s-2.768-4.188-3.488-3.836-.325,2.639.881,5.109S291.525,249.669,292.244,249.318Z" transform="translate(-83.742 0)" fill="url(#linear-gradient-16)"/>
      <path id="Path_2002-4" data-name="Path 2002" d="M323.373,316.557a1.474,1.474,0,1,1-1.474-1.474A1.474,1.474,0,0,1,323.373,316.557Z" transform="translate(-113.396 -67.363)" fill="#f27f04"/>
      <path id="Path_2003-4" data-name="Path 2003" d="M336.037,478.161s-.466-4.87,3.8-6.41,9.518,1.54,9.518,1.54-7.322-.054-9.1,1.093C339.27,475.019,336.037,478.161,336.037,478.161Z" transform="translate(-127.451 -208.15)" fill="url(#linear-gradient-17)"/>
      <path id="Path_2004-4" data-name="Path 2004" d="M207.9,478.161s.466-4.87-3.8-6.41-9.518,1.54-9.518,1.54,7.322-.054,9.1,1.093C204.667,475.019,207.9,478.161,207.9,478.161Z" transform="translate(0 -208.15)" fill="url(#linear-gradient-18)"/>
    </g>
    <g id="花-5" data-name="花" transform="translate(263.858 322.396)">
      <ellipse id="Ellipse_69-5" data-name="Ellipse 69" cx="6.403" cy="1.866" rx="6.403" ry="1.866" transform="translate(212.489 250.06)" fill="url(#linear-gradient-10)"/>
      <rect id="Rectangle_328-5" data-name="Rectangle 328" width="0.864" height="24.401" transform="translate(211.734 254.113)" fill="url(#linear-gradient-11)"/>
      <ellipse id="Ellipse_70-5" data-name="Ellipse 70" cx="6.403" cy="1.866" rx="6.403" ry="1.866" transform="translate(199.682 250.06)" fill="url(#linear-gradient-12)"/>
      <path id="Path_1998-5" data-name="Path 1998" d="M340.246,247.183c-.856-.574-3.146,1.343-5.115,4.28s-2.871,5.784-2.015,6.358,3.146-1.342,5.115-4.28S341.1,247.757,340.246,247.183Z" transform="translate(-120.626 -5.895)" fill="url(#linear-gradient-13)"/>
      <path id="Path_1999-5" data-name="Path 1999" d="M284.2,330.8c-.856-.574-3.146,1.343-5.115,4.28s-2.871,5.784-2.015,6.358,3.146-1.343,5.115-4.28S285.052,331.377,284.2,330.8Z" transform="translate(-71.707 -78.877)" fill="url(#linear-gradient-14)"/>
      <path id="Path_2000-5" data-name="Path 2000" d="M337.781,342.345c.926-.452.418-3.395-1.134-6.573s-3.561-5.387-4.487-4.935-.418,3.395,1.134,6.573S336.856,342.8,337.781,342.345Z" transform="translate(-119.671 -78.945)" fill="url(#linear-gradient-15)"/>
      <path id="Path_2001-5" data-name="Path 2001" d="M293.6,251.893c.926-.452.418-3.395-1.134-6.573s-3.561-5.387-4.487-4.935-.418,3.395,1.134,6.573S292.673,252.345,293.6,251.893Z" transform="translate(-81.11)" fill="url(#linear-gradient-16)"/>
      <path id="Path_2002-5" data-name="Path 2002" d="M324.217,316.98a1.9,1.9,0,1,1-1.9-1.9A1.9,1.9,0,0,1,324.217,316.98Z" transform="translate(-109.832 -65.245)" fill="#f27f04"/>
      <path id="Path_2003-5" data-name="Path 2003" d="M336.041,480.121s-.6-6.265,4.887-8.246,12.244,1.982,12.244,1.982-9.419-.069-11.707,1.406C340.2,476.079,336.041,480.121,336.041,480.121Z" transform="translate(-123.445 -201.606)" fill="url(#linear-gradient-17)"/>
      <path id="Path_2004-5" data-name="Path 2004" d="M211.715,480.121s.6-6.265-4.887-8.246-12.244,1.982-12.244,1.982,9.419-.069,11.707,1.406C207.555,476.079,211.715,480.121,211.715,480.121Z" transform="translate(0 -201.606)" fill="url(#linear-gradient-18)"/>
    </g>
    <g id="花-6" data-name="花" transform="translate(583.661 91.196)">
      <ellipse id="Ellipse_69-6" data-name="Ellipse 69" cx="4.439" cy="1.294" rx="4.439" ry="1.294" transform="translate(12.414 6.748)" fill="url(#linear-gradient-10)"/>
      <rect id="Rectangle_328-6" data-name="Rectangle 328" width="0.599" height="16.917" transform="translate(11.89 9.558)" fill="url(#linear-gradient-11)"/>
      <ellipse id="Ellipse_70-6" data-name="Ellipse 70" cx="4.439" cy="1.294" rx="4.439" ry="1.294" transform="translate(3.535 6.748)" fill="url(#linear-gradient-12)"/>
      <path id="Path_1998-6" data-name="Path 1998" d="M337.959,247.152c-.594-.4-2.181.931-3.546,2.967s-1.991,4.01-1.4,4.408,2.181-.931,3.546-2.967S338.553,247.55,337.959,247.152Z" transform="translate(-320.602 -246.486)" fill="url(#linear-gradient-13)"/>
      <path id="Path_1999-6" data-name="Path 1999" d="M281.91,330.772c-.593-.4-2.181.931-3.546,2.967s-1.991,4.01-1.4,4.408,2.181-.931,3.546-2.967S282.5,331.17,281.91,330.772Z" transform="translate(-269.496 -322.731)" fill="url(#linear-gradient-14)"/>
      <path id="Path_2000-6" data-name="Path 2000" d="M335.916,338.8c.642-.314.29-2.354-.786-4.557s-2.469-3.735-3.111-3.421-.29,2.354.786,4.557S335.274,339.112,335.916,338.8Z" transform="translate(-319.605 -322.801)" fill="url(#linear-gradient-15)"/>
      <path id="Path_2001-6" data-name="Path 2001" d="M291.733,248.346c.642-.314.29-2.354-.786-4.557s-2.469-3.735-3.111-3.421-.29,2.354.786,4.557S291.091,248.659,291.733,248.346Z" transform="translate(-279.319 -240.327)" fill="url(#linear-gradient-16)"/>
      <path id="Path_2002-6" data-name="Path 2002" d="M323.054,316.4a1.315,1.315,0,1,1-1.315-1.315A1.315,1.315,0,0,1,323.054,316.4Z" transform="translate(-309.325 -308.49)" fill="#f27f04"/>
      <path id="Path_2003-6" data-name="Path 2003" d="M336.035,477.422s-.415-4.343,3.388-5.717,8.489,1.374,8.489,1.374-6.53-.048-8.116.975C338.918,474.619,336.035,477.422,336.035,477.422Z" transform="translate(-323.547 -450.947)" fill="url(#linear-gradient-17)"/>
      <path id="Path_2004-6" data-name="Path 2004" d="M206.46,477.422s.415-4.343-3.388-5.717-8.489,1.374-8.489,1.374,6.53-.048,8.116.975C203.576,474.619,206.46,477.422,206.46,477.422Z" transform="translate(-194.583 -450.947)" fill="url(#linear-gradient-18)"/>
    </g>
    <g id="花-7" data-name="花" transform="translate(598.22 97.436)">
      <ellipse id="Ellipse_69-7" data-name="Ellipse 69" cx="4.439" cy="1.294" rx="4.439" ry="1.294" transform="translate(12.414 6.748)" fill="url(#linear-gradient-10)"/>
      <rect id="Rectangle_328-7" data-name="Rectangle 328" width="0.599" height="16.917" transform="translate(11.89 9.558)" fill="url(#linear-gradient-11)"/>
      <ellipse id="Ellipse_70-7" data-name="Ellipse 70" cx="4.439" cy="1.294" rx="4.439" ry="1.294" transform="translate(3.535 6.748)" fill="url(#linear-gradient-12)"/>
      <path id="Path_1998-7" data-name="Path 1998" d="M337.959,247.152c-.594-.4-2.181.931-3.546,2.967s-1.991,4.01-1.4,4.408,2.181-.931,3.546-2.967S338.553,247.55,337.959,247.152Z" transform="translate(-320.602 -246.486)" fill="url(#linear-gradient-13)"/>
      <path id="Path_1999-7" data-name="Path 1999" d="M281.91,330.772c-.593-.4-2.181.931-3.546,2.967s-1.991,4.01-1.4,4.408,2.181-.931,3.546-2.967S282.5,331.17,281.91,330.772Z" transform="translate(-269.496 -322.731)" fill="url(#linear-gradient-14)"/>
      <path id="Path_2000-7" data-name="Path 2000" d="M335.916,338.8c.642-.314.29-2.354-.786-4.557s-2.469-3.735-3.111-3.421-.29,2.354.786,4.557S335.274,339.112,335.916,338.8Z" transform="translate(-319.605 -322.801)" fill="url(#linear-gradient-15)"/>
      <path id="Path_2001-7" data-name="Path 2001" d="M291.733,248.346c.642-.314.29-2.354-.786-4.557s-2.469-3.735-3.111-3.421-.29,2.354.786,4.557S291.091,248.659,291.733,248.346Z" transform="translate(-279.319 -240.327)" fill="url(#linear-gradient-16)"/>
      <path id="Path_2002-7" data-name="Path 2002" d="M323.054,316.4a1.315,1.315,0,1,1-1.315-1.315A1.315,1.315,0,0,1,323.054,316.4Z" transform="translate(-309.325 -308.49)" fill="#f27f04"/>
      <path id="Path_2003-7" data-name="Path 2003" d="M336.035,477.422s-.415-4.343,3.388-5.717,8.489,1.374,8.489,1.374-6.53-.048-8.116.975C338.918,474.619,336.035,477.422,336.035,477.422Z" transform="translate(-323.547 -450.947)" fill="url(#linear-gradient-17)"/>
      <path id="Path_2004-7" data-name="Path 2004" d="M206.46,477.422s.415-4.343-3.388-5.717-8.489,1.374-8.489,1.374,6.53-.048,8.116.975C203.576,474.619,206.46,477.422,206.46,477.422Z" transform="translate(-194.583 -450.947)" fill="url(#linear-gradient-18)"/>
    </g>
    <g id="花-8" data-name="花" transform="translate(161.858 241.49)">
      <ellipse id="Ellipse_69-8" data-name="Ellipse 69" cx="5.382" cy="1.568" rx="5.382" ry="1.568" transform="translate(209.632 248.507)" fill="url(#linear-gradient-10)"/>
      <rect id="Rectangle_328-8" data-name="Rectangle 328" width="0.726" height="20.507" transform="translate(208.997 251.914)" fill="url(#linear-gradient-11)"/>
      <ellipse id="Ellipse_70-8" data-name="Ellipse 70" cx="5.382" cy="1.568" rx="5.382" ry="1.568" transform="translate(198.869 248.507)" fill="url(#linear-gradient-12)"/>
      <path id="Path_1998-8" data-name="Path 1998" d="M339.056,247.167c-.719-.482-2.644,1.129-4.3,3.6s-2.413,4.861-1.694,5.343,2.644-1.128,4.3-3.6S339.776,247.649,339.056,247.167Z" transform="translate(-123.432 -6.032)" fill="url(#linear-gradient-13)"/>
      <path id="Path_1999-8" data-name="Path 1999" d="M283.007,330.787c-.719-.482-2.644,1.128-4.3,3.6s-2.413,4.861-1.694,5.343,2.644-1.128,4.3-3.6S283.726,331.269,283.007,330.787Z" transform="translate(-73.375 -80.712)" fill="url(#linear-gradient-14)"/>
      <path id="Path_2000-8" data-name="Path 2000" d="M336.811,340.5c.778-.38.351-2.853-.953-5.524s-2.993-4.528-3.771-4.147-.352,2.853.953,5.524S336.033,340.88,336.811,340.5Z" transform="translate(-122.455 -80.781)" fill="url(#linear-gradient-15)"/>
      <path id="Path_2001-8" data-name="Path 2001" d="M292.628,250.048c.778-.38.352-2.853-.953-5.524s-2.993-4.527-3.771-4.147-.352,2.853.953,5.524S291.85,250.428,292.628,250.048Z" transform="translate(-82.996)" fill="url(#linear-gradient-16)"/>
      <path id="Path_2002-8" data-name="Path 2002" d="M323.612,316.677a1.594,1.594,0,1,1-1.594-1.594A1.594,1.594,0,0,1,323.612,316.677Z" transform="translate(-112.386 -66.763)" fill="#f27f04"/>
      <path id="Path_2003-8" data-name="Path 2003" d="M336.038,478.717s-.5-5.265,4.107-6.93,10.29,1.665,10.29,1.665-7.916-.058-9.838,1.182C339.533,475.32,336.038,478.717,336.038,478.717Z" transform="translate(-126.316 -206.296)" fill="url(#linear-gradient-17)"/>
      <path id="Path_2004-8" data-name="Path 2004" d="M208.981,478.717s.5-5.265-4.107-6.93-10.29,1.665-10.29,1.665,7.916-.058,9.839,1.182C205.485,475.32,208.981,478.717,208.981,478.717Z" transform="translate(0 -206.296)" fill="url(#linear-gradient-18)"/>
    </g>
  </g>
</svg>
